<svg xmlns="http://www.w3.org/2000/svg" xmlns:xlink="http://www.w3.org/1999/xlink" width="559" zoomAndPan="magnify" viewBox="0 0 419.25 229.499992" height="306" preserveAspectRatio="xMidYMid meet" version="1.0"><defs><filter x="0%" y="0%" width="100%" height="100%" id="80e61bfbb0"><feColorMatrix values="0 0 0 0 1 0 0 0 0 1 0 0 0 0 1 0 0 0 1 0" color-interpolation-filters="sRGB"/></filter><g/><clipPath id="accb4cae34"><path d="M 0.0820312 0.00390625 L 418.421875 0.00390625 L 418.421875 229 L 0.0820312 229 Z M 0.0820312 0.00390625 " clip-rule="nonzero"/></clipPath><clipPath id="01009cae17"><path d="M 136.082031 141.632812 L 282.695312 141.632812 L 282.695312 184.898438 L 136.082031 184.898438 Z M 136.082031 141.632812 " clip-rule="nonzero"/></clipPath><mask id="4ae428c0cf"><g filter="url(#80e61bfbb0)"><rect x="-41.925" width="503.1" fill="#000000" y="-22.949999" height="275.39999" fill-opacity="0.47"/></g></mask><clipPath id="70702902be"><path d="M 8 1 L 82 1 L 82 71 L 8 71 Z M 8 1 " clip-rule="nonzero"/></clipPath><clipPath id="30ffa5eda5"><path d="M 0.945312 14.167969 L 82.171875 0.800781 L 91.894531 59.875 L 10.667969 73.242188 Z M 0.945312 14.167969 " clip-rule="nonzero"/></clipPath><clipPath id="3c3a4de081"><path d="M 0.945312 14.167969 L 82.171875 0.800781 L 91.894531 59.875 L 10.667969 73.242188 Z M 0.945312 14.167969 " clip-rule="nonzero"/></clipPath><clipPath id="5fa18fa57a"><rect x="0" width="90" y="0" height="73"/></clipPath></defs><g clip-path="url(#accb4cae34)"><path fill="#eacca8" d="M 417.222656 9.324219 L 417.222656 6.65625 L 415.902344 6.65625 L 415.902344 5.335938 L 414.578125 5.335938 L 414.578125 4.015625 L 413.257812 4.015625 L 413.257812 2.691406 L 411.9375 2.691406 L 411.9375 1.328125 L 409.269531 1.328125 L 409.269531 0.00390625 L 9.65625 0.00390625 L 9.65625 1.328125 L 6.988281 1.328125 L 6.988281 2.648438 L 5.667969 2.648438 L 5.667969 3.96875 L 4.34375 3.96875 L 4.34375 5.292969 L 3.023438 5.292969 L 3.023438 6.613281 L 1.65625 6.613281 L 1.65625 9.277344 L 0.335938 9.277344 L 0.335938 219.78125 L 1.65625 219.78125 L 1.65625 222.445312 L 2.980469 222.445312 L 2.980469 223.769531 L 4.300781 223.769531 L 4.300781 225.089844 L 5.625 225.089844 L 5.625 226.414062 L 6.945312 226.414062 L 6.945312 227.734375 L 9.609375 227.734375 L 9.609375 229.054688 L 409.25 229.054688 L 409.25 227.734375 L 411.914062 227.734375 L 411.914062 226.414062 L 413.234375 226.414062 L 413.234375 225.089844 L 414.558594 225.089844 L 414.558594 223.769531 L 415.878906 223.769531 L 415.878906 222.445312 L 417.199219 222.445312 L 417.199219 219.78125 L 418.523438 219.78125 L 418.523438 9.324219 L 417.199219 9.324219 Z M 413.234375 6.65625 L 413.234375 7.980469 Z M 413.234375 222.425781 L 413.234375 221.101562 Z M 413.234375 222.425781 " fill-opacity="1" fill-rule="nonzero"/></g><path fill="#ffffff" d="M 414.578125 10.667969 L 414.578125 8 L 413.257812 8 L 413.257812 6.679688 L 411.9375 6.679688 L 411.9375 5.359375 L 410.613281 5.359375 L 410.613281 4.035156 L 407.949219 4.035156 L 407.949219 2.714844 L 11 2.714844 L 11 4.035156 L 8.332031 4.035156 L 8.332031 5.359375 L 7.011719 5.359375 L 7.011719 6.679688 L 5.6875 6.679688 L 5.6875 8 L 4.367188 8 L 4.367188 10.667969 L 3.046875 10.667969 L 3.046875 218.4375 L 4.367188 218.4375 L 4.367188 221.101562 L 5.6875 221.101562 L 5.6875 222.425781 L 7.011719 222.425781 L 7.011719 223.746094 L 8.332031 223.746094 L 8.332031 225.070312 L 11 225.070312 L 11 226.390625 L 407.90625 226.390625 L 407.90625 225.070312 L 410.570312 225.070312 L 410.570312 223.746094 L 411.890625 223.746094 L 411.890625 222.425781 L 413.214844 222.425781 L 413.214844 221.101562 L 414.535156 221.101562 L 414.535156 218.4375 L 415.855469 218.4375 L 415.855469 10.667969 L 414.535156 10.667969 Z M 410.59375 217.117188 L 409.269531 217.117188 L 409.269531 218.4375 L 407.949219 218.4375 L 407.949219 219.757812 L 406.625 219.757812 L 406.625 221.082031 L 12.320312 221.082031 L 12.320312 219.757812 L 11 219.757812 L 11 218.4375 L 9.675781 218.4375 L 9.675781 217.117188 L 8.355469 217.117188 L 8.355469 11.988281 L 9.675781 11.988281 L 9.675781 10.667969 L 11 10.667969 L 11 9.34375 L 12.320312 9.34375 L 12.320312 8.023438 L 406.582031 8.023438 L 406.582031 9.34375 L 407.90625 9.34375 L 407.90625 10.667969 L 409.226562 10.667969 L 409.226562 11.988281 L 410.546875 11.988281 L 410.546875 217.117188 Z M 410.59375 217.117188 " fill-opacity="1" fill-rule="nonzero"/><path fill="#974c1c" d="M 165.460938 165.292969 L 158.136719 172.601562 C 157.972656 172.765625 157.707031 172.765625 157.542969 172.601562 L 150.214844 165.292969 C 149.949219 165.03125 150.136719 164.578125 150.511719 164.578125 L 153.761719 164.578125 L 153.761719 158.570312 L 161.914062 158.570312 L 161.914062 164.578125 L 165.164062 164.578125 C 165.539062 164.578125 165.726562 165.03125 165.460938 165.292969 Z M 153.761719 155.957031 L 161.914062 155.957031 L 161.914062 157.214844 L 153.761719 157.214844 Z M 153.761719 153.808594 L 161.914062 153.808594 L 161.914062 154.769531 L 153.761719 154.769531 Z M 157.839844 148.0625 C 149.441406 148.0625 142.632812 154.867188 142.632812 163.265625 C 142.632812 171.664062 149.441406 178.472656 157.839844 178.472656 C 166.238281 178.472656 173.042969 171.664062 173.042969 163.265625 C 173.042969 154.867188 166.238281 148.0625 157.839844 148.0625 " fill-opacity="1" fill-rule="nonzero"/><g clip-path="url(#01009cae17)"><path fill="#974c1c" d="M 261.066406 181.617188 L 157.710938 181.617188 C 147.570312 181.617188 139.363281 173.410156 139.363281 163.265625 C 139.363281 153.128906 147.570312 144.917969 157.710938 144.917969 L 261.066406 144.917969 C 271.207031 144.917969 279.414062 153.125 279.414062 163.265625 C 279.414062 173.40625 271.207031 181.617188 261.066406 181.617188 Z M 261.066406 141.636719 L 157.710938 141.636719 C 145.757812 141.636719 136.082031 151.3125 136.082031 163.265625 C 136.082031 175.222656 145.753906 184.898438 157.710938 184.898438 L 261.066406 184.898438 C 273.019531 184.898438 282.695312 175.222656 282.695312 163.265625 C 282.695312 151.3125 273.023438 141.636719 261.066406 141.636719 " fill-opacity="1" fill-rule="nonzero"/></g><path fill="#974c1c" d="M 186.164062 166.394531 L 184.652344 166.394531 L 184.652344 160.140625 L 186.175781 160.140625 C 186.804688 160.140625 188.851562 160.359375 188.851562 163.167969 C 188.851562 165.21875 187.875 166.394531 186.164062 166.394531 Z M 186.328125 158.253906 L 182.644531 158.253906 C 182.53125 158.253906 182.441406 158.34375 182.441406 158.457031 L 182.441406 168.074219 C 182.441406 168.1875 182.53125 168.28125 182.644531 168.28125 L 186.257812 168.28125 C 187.710938 168.28125 188.945312 167.773438 189.828125 166.8125 C 190.667969 165.894531 191.132812 164.59375 191.132812 163.152344 C 191.132812 161.703125 190.675781 160.472656 189.8125 159.59375 C 188.949219 158.71875 187.746094 158.253906 186.328125 158.253906 " fill-opacity="1" fill-rule="nonzero"/><path fill="#974c1c" d="M 197.335938 166.523438 C 195.46875 166.523438 194.804688 164.820312 194.804688 163.226562 C 194.804688 162.257812 195.050781 160.007812 197.316406 160.007812 C 198.148438 160.007812 198.789062 160.320312 199.230469 160.933594 C 199.632812 161.496094 199.847656 162.296875 199.847656 163.25 C 199.847656 164.234375 199.601562 166.523438 197.335938 166.523438 Z M 197.390625 158.113281 C 194.480469 158.113281 192.527344 160.183594 192.527344 163.265625 C 192.527344 164.726562 192.945312 165.984375 193.734375 166.90625 C 194.582031 167.894531 195.800781 168.417969 197.265625 168.417969 C 200.621094 168.417969 202.125 165.8125 202.125 163.226562 C 202.125 161.734375 201.683594 160.457031 200.847656 159.542969 C 200 158.609375 198.804688 158.113281 197.390625 158.113281 " fill-opacity="1" fill-rule="nonzero"/><path fill="#974c1c" d="M 215.839844 158.253906 L 214.082031 158.253906 C 213.988281 158.253906 213.90625 158.316406 213.882812 158.410156 C 213.785156 158.8125 213.648438 159.351562 213.488281 159.972656 C 213.089844 161.53125 212.574219 163.550781 212.265625 165.0625 C 211.824219 163.113281 210.96875 159.882812 210.574219 158.40625 C 210.550781 158.316406 210.46875 158.253906 210.375 158.253906 L 208.722656 158.253906 C 208.628906 158.253906 208.546875 158.316406 208.523438 158.410156 C 208.285156 159.375 207.960938 160.589844 207.648438 161.765625 C 207.316406 163.019531 206.996094 164.222656 206.769531 165.152344 C 206.617188 164.347656 206.371094 163.238281 206.0625 161.808594 C 205.84375 160.8125 205.597656 159.683594 205.328125 158.414062 C 205.304688 158.320312 205.222656 158.253906 205.125 158.253906 L 203.207031 158.253906 C 203.144531 158.253906 203.082031 158.28125 203.042969 158.332031 C 203.003906 158.382812 202.992188 158.449219 203.007812 158.511719 L 205.5 168.125 C 205.523438 168.21875 205.605469 168.28125 205.699219 168.28125 L 207.582031 168.28125 C 207.671875 168.28125 207.753906 168.21875 207.777344 168.128906 C 207.847656 167.875 207.921875 167.59375 208.003906 167.296875 C 208.476562 165.550781 209.097656 163.273438 209.460938 161.734375 C 209.695312 162.722656 210.042969 164.0625 210.378906 165.371094 C 210.640625 166.382812 210.890625 167.339844 211.082031 168.125 C 211.105469 168.214844 211.1875 168.28125 211.28125 168.28125 L 213.167969 168.28125 C 213.257812 168.28125 213.339844 168.21875 213.363281 168.128906 L 216.039062 158.511719 C 216.054688 158.453125 216.042969 158.386719 216.003906 158.335938 C 215.964844 158.285156 215.90625 158.253906 215.839844 158.253906 " fill-opacity="1" fill-rule="nonzero"/><path fill="#974c1c" d="M 225.679688 158.253906 L 224.027344 158.253906 C 223.914062 158.253906 223.820312 158.34375 223.820312 158.457031 L 223.820312 161.796875 C 223.820312 162.902344 223.820312 164.035156 223.859375 164.976562 C 223.21875 163.792969 222.078125 161.839844 221.121094 160.195312 C 220.726562 159.515625 220.355469 158.878906 220.054688 158.355469 C 220.019531 158.292969 219.949219 158.253906 219.875 158.253906 L 217.605469 158.253906 C 217.492188 158.253906 217.398438 158.34375 217.398438 158.457031 L 217.398438 168.074219 C 217.398438 168.1875 217.492188 168.28125 217.605469 168.28125 L 219.265625 168.28125 C 219.378906 168.28125 219.472656 168.1875 219.472656 168.074219 L 219.472656 164.832031 C 219.472656 163.246094 219.457031 162.046875 219.429688 161.207031 C 220.367188 162.957031 222.375 166.472656 223.324219 168.128906 L 223.351562 168.175781 C 223.386719 168.242188 223.453125 168.28125 223.527344 168.28125 L 225.679688 168.28125 C 225.792969 168.28125 225.882812 168.1875 225.882812 168.074219 L 225.882812 158.457031 C 225.882812 158.34375 225.792969 158.253906 225.679688 158.253906 " fill-opacity="1" fill-rule="nonzero"/><path fill="#974c1c" d="M 235.175781 166.375 L 230.515625 166.375 L 230.515625 158.457031 C 230.515625 158.34375 230.421875 158.253906 230.308594 158.253906 L 228.507812 158.253906 C 228.390625 158.253906 228.300781 158.34375 228.300781 158.457031 L 228.300781 168.074219 C 228.300781 168.1875 228.390625 168.28125 228.507812 168.28125 L 234.960938 168.28125 C 235.0625 168.28125 235.148438 168.207031 235.164062 168.105469 L 235.378906 166.609375 C 235.390625 166.550781 235.371094 166.492188 235.332031 166.445312 C 235.292969 166.402344 235.238281 166.375 235.175781 166.375 " fill-opacity="1" fill-rule="nonzero"/><path fill="#974c1c" d="M 240.804688 166.523438 C 238.9375 166.523438 238.273438 164.820312 238.273438 163.226562 C 238.273438 162.257812 238.519531 160.007812 240.78125 160.007812 C 241.617188 160.007812 242.257812 160.320312 242.699219 160.933594 C 243.101562 161.496094 243.316406 162.296875 243.316406 163.25 C 243.316406 164.234375 243.070312 166.523438 240.804688 166.523438 Z M 240.859375 158.113281 C 237.949219 158.113281 235.996094 160.183594 235.996094 163.265625 C 235.996094 164.726562 236.414062 165.984375 237.203125 166.90625 C 238.050781 167.894531 239.269531 168.417969 240.734375 168.417969 C 244.089844 168.417969 245.59375 165.8125 245.59375 163.226562 C 245.59375 161.734375 245.152344 160.457031 244.316406 159.542969 C 243.46875 158.609375 242.273438 158.113281 240.859375 158.113281 " fill-opacity="1" fill-rule="nonzero"/><path fill="#974c1c" d="M 249.847656 163.925781 L 249.871094 163.855469 C 250.3125 162.492188 250.683594 161.355469 250.933594 160.515625 C 251.175781 161.277344 251.542969 162.335938 252.066406 163.847656 L 252.09375 163.925781 Z M 252.304688 158.386719 C 252.277344 158.308594 252.199219 158.253906 252.113281 158.253906 L 249.855469 158.253906 C 249.769531 158.253906 249.691406 158.308594 249.664062 158.390625 L 246.34375 168.007812 C 246.320312 168.070312 246.332031 168.140625 246.371094 168.195312 C 246.410156 168.25 246.46875 168.28125 246.539062 168.28125 L 248.316406 168.28125 C 248.402344 168.28125 248.480469 168.226562 248.511719 168.140625 L 249.308594 165.832031 L 252.644531 165.832031 L 253.480469 168.144531 C 253.507812 168.226562 253.585938 168.28125 253.671875 168.28125 L 255.574219 168.28125 C 255.640625 168.28125 255.703125 168.25 255.742188 168.191406 C 255.78125 168.136719 255.789062 168.066406 255.769531 168.003906 L 252.304688 158.386719 " fill-opacity="1" fill-rule="nonzero"/><path fill="#974c1c" d="M 260.835938 166.394531 L 259.328125 166.394531 L 259.328125 160.140625 L 260.847656 160.140625 C 261.476562 160.140625 263.527344 160.359375 263.527344 163.167969 C 263.527344 165.21875 262.546875 166.394531 260.835938 166.394531 Z M 261.003906 158.253906 L 257.320312 158.253906 C 257.203125 158.253906 257.113281 158.34375 257.113281 158.457031 L 257.113281 168.074219 C 257.113281 168.1875 257.203125 168.28125 257.320312 168.28125 L 260.929688 168.28125 C 262.382812 168.28125 263.617188 167.773438 264.5 166.8125 C 265.339844 165.894531 265.804688 164.59375 265.804688 163.152344 C 265.804688 161.703125 265.347656 160.472656 264.484375 159.59375 C 263.625 158.71875 262.417969 158.253906 261.003906 158.253906 " fill-opacity="1" fill-rule="nonzero"/><g mask="url(#4ae428c0cf)"><g transform="matrix(1, 0, 0, 1, 284, 113)"><g clip-path="url(#5fa18fa57a)"><g clip-path="url(#70702902be)"><g clip-path="url(#30ffa5eda5)"><g clip-path="url(#3c3a4de081)"><path fill="#974c1c" d="M 79.609375 2.40625 C 79.554688 2.242188 79.46875 2.097656 79.355469 1.96875 C 79.238281 1.835938 79.105469 1.734375 78.949219 1.660156 C 78.796875 1.582031 78.632812 1.539062 78.460938 1.527344 C 78.289062 1.515625 78.121094 1.539062 77.957031 1.59375 C 77.792969 1.648438 77.648438 1.734375 77.515625 1.847656 C 77.386719 1.960938 77.285156 2.097656 77.207031 2.25 C 77.132812 2.40625 77.089844 2.570312 77.078125 2.742188 C 77.066406 2.914062 77.089844 3.082031 77.144531 3.246094 C 82.730469 19.597656 74.742188 39.261719 59.339844 47.082031 C 57.523438 48.039062 55.613281 48.734375 53.609375 49.175781 C 54.433594 47.507812 54.855469 45.742188 54.878906 43.882812 C 54.863281 43.105469 54.757812 42.34375 54.558594 41.59375 C 54.363281 40.84375 54.078125 40.128906 53.714844 39.445312 C 53.347656 38.761719 52.90625 38.128906 52.390625 37.550781 C 51.875 36.96875 51.296875 36.457031 50.660156 36.015625 C 48.585938 34.570312 46.175781 34.199219 44.039062 35 C 43.125 35.363281 42.316406 35.894531 41.621094 36.589844 C 40.925781 37.289062 40.394531 38.09375 40.03125 39.011719 C 39.574219 40.074219 39.34375 41.1875 39.335938 42.34375 C 39.324219 43.503906 39.539062 44.617188 39.976562 45.6875 C 41.363281 48.910156 44.671875 51.277344 48.574219 51.90625 C 47.722656 52.820312 46.808594 53.664062 45.832031 54.441406 C 37.480469 61.105469 25.980469 63.730469 15.507812 61.632812 C 18.171875 60.605469 20.597656 59.175781 22.792969 57.347656 C 24.074219 56.273438 22.421875 54.265625 21.128906 55.34375 C 17.894531 58.046875 14.203125 59.75 10.042969 60.453125 C 9.789062 60.5 9.570312 60.617188 9.382812 60.796875 C 9.195312 60.976562 9.074219 61.195312 9.015625 61.445312 C 8.957031 61.699219 8.96875 61.949219 9.058594 62.191406 C 9.144531 62.4375 9.292969 62.636719 9.5 62.792969 L 18.941406 70.347656 C 20.253906 71.398438 21.765625 69.277344 20.460938 68.230469 L 15.511719 64.273438 C 20.109375 65.125 24.714844 65.171875 29.328125 64.410156 C 32.636719 63.878906 35.828125 62.945312 38.898438 61.601562 C 41.96875 60.253906 44.824219 58.546875 47.457031 56.472656 C 49.105469 55.183594 50.570312 53.710938 51.851562 52.054688 C 54.539062 51.878906 57.394531 51.003906 60.519531 49.425781 C 77.042969 41.015625 85.597656 19.933594 79.609375 2.40625 Z M 52.273438 43.855469 C 52.214844 45.894531 51.613281 47.761719 50.472656 49.453125 C 50.242188 49.445312 50.011719 49.433594 49.785156 49.417969 C 46.460938 49.160156 43.476562 47.242188 42.367188 44.644531 C 42.066406 43.902344 41.917969 43.128906 41.925781 42.328125 C 41.933594 41.523438 42.09375 40.753906 42.410156 40.015625 C 42.632812 39.429688 42.96875 38.910156 43.40625 38.460938 C 43.847656 38.007812 44.359375 37.664062 44.941406 37.425781 C 45.191406 37.332031 45.449219 37.261719 45.710938 37.21875 C 46.988281 37.066406 48.140625 37.371094 49.175781 38.136719 C 50.113281 38.792969 50.855469 39.628906 51.402344 40.636719 C 51.949219 41.644531 52.238281 42.722656 52.277344 43.871094 Z M 52.273438 43.855469 " fill-opacity="1" fill-rule="nonzero"/></g></g></g></g></g></g><g fill="#974c1c" fill-opacity="1"><g transform="translate(37.066836, 98.957525)"><g><path d="M 12.875 0.578125 C 11.613281 0.578125 10.5 0.269531 9.53125 -0.34375 C 8.550781 0.269531 7.644531 0.578125 6.8125 0.578125 C 5.988281 0.578125 5.3125 0.503906 4.78125 0.359375 C 4.25 0.210938 3.78125 0.015625 3.375 -0.234375 C 2.550781 -0.722656 2.140625 -1.34375 2.140625 -2.09375 C 2.140625 -2.46875 2.25 -2.800781 2.46875 -3.09375 C 2.882812 -2.769531 3.414062 -2.609375 4.0625 -2.609375 C 5.757812 -2.609375 6.929688 -3.332031 7.578125 -4.78125 L 7.578125 -18.765625 C 7.578125 -19.628906 7.398438 -20.289062 7.046875 -20.75 C 6.472656 -21.488281 5.488281 -22.191406 4.09375 -22.859375 C 5.375 -23.453125 6.210938 -23.96875 6.609375 -24.40625 C 7.253906 -25.15625 7.578125 -25.988281 7.578125 -26.90625 L 7.578125 -38.984375 C 6.929688 -40.453125 5.757812 -41.1875 4.0625 -41.1875 C 3.414062 -41.1875 2.882812 -41.019531 2.46875 -40.6875 C 2.25 -40.976562 2.140625 -41.304688 2.140625 -41.671875 C 2.140625 -42.046875 2.25 -42.394531 2.46875 -42.71875 C 2.6875 -43.050781 2.988281 -43.332031 3.375 -43.5625 C 4.25 -44.09375 5.253906 -44.359375 6.390625 -44.359375 C 7.523438 -44.359375 8.570312 -44.039062 9.53125 -43.40625 C 10.519531 -44.039062 11.625 -44.359375 12.84375 -44.359375 C 14.1875 -44.359375 15.351562 -44.003906 16.34375 -43.296875 C 18.457031 -44.191406 20.5625 -44.640625 22.65625 -44.640625 C 24.757812 -44.640625 26.675781 -44.429688 28.40625 -44.015625 C 30.132812 -43.609375 31.691406 -43.035156 33.078125 -42.296875 C 36.109375 -40.691406 38 -38.613281 38.75 -36.0625 C 39.164062 -34.644531 40.070312 -33.59375 41.46875 -32.90625 C 39.925781 -31.84375 38.972656 -30.625 38.609375 -29.25 C 37.804688 -26.226562 36.179688 -24.265625 33.734375 -23.359375 C 37.328125 -22.359375 39.664062 -20.007812 40.75 -16.3125 C 41.132812 -15 42.039062 -13.921875 43.46875 -13.078125 C 42 -12.253906 41.015625 -11.015625 40.515625 -9.359375 C 40.023438 -7.703125 39.15625 -6.207031 37.90625 -4.875 C 36.65625 -3.550781 35.203125 -2.460938 33.546875 -1.609375 C 30.335938 0.0351562 26.71875 0.859375 22.6875 0.859375 C 20.289062 0.859375 18.144531 0.429688 16.25 -0.421875 C 15.257812 0.242188 14.132812 0.578125 12.875 0.578125 Z M 23.46875 -24.71875 C 25.144531 -24.71875 26.335938 -25.117188 27.046875 -25.921875 C 27.785156 -26.742188 28.15625 -28.15625 28.15625 -30.15625 L 28.15625 -36.78125 C 28.15625 -37.9375 27.546875 -38.914062 26.328125 -39.71875 C 25.253906 -40.425781 24.265625 -40.78125 23.359375 -40.78125 C 22.453125 -40.78125 21.707031 -40.671875 21.125 -40.453125 C 20.550781 -40.234375 20.035156 -39.929688 19.578125 -39.546875 C 18.597656 -38.742188 18.109375 -37.78125 18.109375 -36.65625 L 18.109375 -24.71875 Z M 29.796875 -40.125 C 30.441406 -38.675781 30.765625 -36.554688 30.765625 -33.765625 C 30.765625 -29.660156 30.5 -27 29.96875 -25.78125 C 30.769531 -25.9375 31.445312 -26.710938 32 -28.109375 C 32.207031 -28.617188 32.363281 -29.160156 32.46875 -29.734375 C 32.570312 -30.304688 32.65625 -30.75 32.71875 -31.0625 C 32.789062 -31.375 32.894531 -31.644531 33.03125 -31.875 C 33.3125 -32.351562 33.828125 -32.71875 34.578125 -32.96875 C 33.804688 -33.21875 33.328125 -33.484375 33.140625 -33.765625 C 32.890625 -34.085938 32.6875 -34.675781 32.53125 -35.53125 C 32.382812 -36.394531 32.207031 -37.097656 32 -37.640625 C 31.789062 -38.191406 31.5625 -38.640625 31.3125 -38.984375 C 30.832031 -39.660156 30.328125 -40.039062 29.796875 -40.125 Z M 10.328125 -7.578125 C 11.285156 -7.941406 11.8125 -9.191406 11.90625 -11.328125 C 12.019531 -13.460938 12.078125 -16.421875 12.078125 -20.203125 C 12.078125 -23.984375 12.070312 -26.5 12.0625 -27.75 C 12.050781 -29 12.035156 -30.003906 12.015625 -30.765625 C 11.960938 -33.015625 11.75 -34.375 11.375 -34.84375 C 11 -35.3125 10.648438 -35.617188 10.328125 -35.765625 C 10.328125 -29.128906 10.210938 -25.351562 9.984375 -24.4375 C 9.722656 -23.675781 9.078125 -23.132812 8.046875 -22.8125 C 9.191406 -22.40625 9.835938 -21.914062 9.984375 -21.34375 C 10.210938 -20.425781 10.328125 -17.078125 10.328125 -11.296875 Z M 18.109375 -7.46875 C 18.109375 -6.132812 18.613281 -5.035156 19.625 -4.171875 C 20.601562 -3.367188 21.769531 -2.96875 23.125 -2.96875 C 24.4375 -2.96875 25.539062 -3.253906 26.4375 -3.828125 C 28.15625 -4.953125 29.015625 -6.242188 29.015625 -7.703125 L 29.015625 -16.078125 C 29.015625 -17.816406 28.453125 -19.125 27.328125 -20 C 26.378906 -20.75 25.128906 -21.125 23.578125 -21.125 L 18.109375 -21.125 Z M 30.9375 -20.234375 C 31.394531 -19.203125 31.625 -16.816406 31.625 -13.078125 C 31.625 -8.347656 31.453125 -5.570312 31.109375 -4.75 C 31.503906 -4.820312 31.910156 -5.304688 32.328125 -6.203125 C 32.753906 -7.109375 33.050781 -8.035156 33.21875 -8.984375 C 33.394531 -9.941406 33.515625 -10.59375 33.578125 -10.9375 C 33.648438 -11.28125 33.753906 -11.582031 33.890625 -11.84375 C 34.191406 -12.414062 34.703125 -12.828125 35.421875 -13.078125 C 34.285156 -13.441406 33.613281 -14.164062 33.40625 -15.25 C 33.207031 -16.34375 33.007812 -17.179688 32.8125 -17.765625 C 32.625 -18.359375 32.425781 -18.828125 32.21875 -19.171875 C 31.863281 -19.785156 31.4375 -20.140625 30.9375 -20.234375 Z M 30.9375 -20.234375 "/></g></g></g><g fill="#974c1c" fill-opacity="1"><g transform="translate(80.585209, 98.957525)"><g><path d="M 22.546875 -2.71875 C 20.816406 -0.425781 18.210938 0.71875 14.734375 0.71875 C 10.503906 0.71875 7.328125 -0.550781 5.203125 -3.09375 C 4.285156 -4.175781 3.65625 -5.382812 3.3125 -6.71875 C 3.125 -7.519531 2.789062 -8.132812 2.3125 -8.5625 C 1.84375 -9 1.253906 -9.390625 0.546875 -9.734375 C 1.921875 -10.359375 2.898438 -11.539062 3.484375 -13.28125 C 4.117188 -15.113281 5.171875 -16.4375 6.640625 -17.25 C 8.222656 -18.113281 9.96875 -18.566406 11.875 -18.609375 C 13.78125 -18.660156 15.191406 -18.722656 16.109375 -18.796875 C 17.023438 -18.878906 17.835938 -19.003906 18.546875 -19.171875 C 19.859375 -19.472656 20.890625 -20.035156 21.640625 -20.859375 L 21.640625 -25.15625 C 21.640625 -27.039062 21.25 -28.421875 20.46875 -29.296875 C 19.695312 -30.179688 18.523438 -30.625 16.953125 -30.625 C 15.378906 -30.625 14.210938 -30.332031 13.453125 -29.75 C 12.703125 -29.164062 12.328125 -28.390625 12.328125 -27.421875 C 12.328125 -25.929688 13.09375 -25.203125 14.625 -25.234375 C 14.320312 -23.753906 13.519531 -23.015625 12.21875 -23.015625 C 11.832031 -23.015625 11.460938 -23.078125 11.109375 -23.203125 L 11.109375 -23.125 C 11.109375 -22.625 11.335938 -22.304688 11.796875 -22.171875 C 11.316406 -21.453125 10.515625 -21.101562 9.390625 -21.125 C 8.265625 -21.144531 7.382812 -21.742188 6.75 -22.921875 C 6.46875 -22.847656 6.140625 -22.8125 5.765625 -22.8125 C 5.390625 -22.8125 4.976562 -22.929688 4.53125 -23.171875 C 4.082031 -23.421875 3.726562 -23.765625 3.46875 -24.203125 C 4.414062 -24.773438 4.992188 -25.664062 5.203125 -26.875 C 5.429688 -28.34375 6.609375 -29.832031 8.734375 -31.34375 C 11.285156 -33.15625 14.546875 -34.0625 18.515625 -34.0625 C 25.097656 -34.0625 29.113281 -32.035156 30.5625 -27.984375 C 31.039062 -26.628906 31.28125 -25.03125 31.28125 -23.1875 L 31.28125 -20.859375 C 31.28125 -19.921875 31.515625 -19.15625 31.984375 -18.5625 C 32.453125 -17.976562 33.25 -17.492188 34.375 -17.109375 C 33.164062 -16.554688 32.390625 -16.0625 32.046875 -15.625 C 31.535156 -14.957031 31.28125 -14.191406 31.28125 -13.328125 L 31.28125 -4.75 C 31.832031 -3.320312 32.625 -2.609375 33.65625 -2.609375 C 34.300781 -2.609375 34.832031 -2.769531 35.25 -3.09375 C 35.519531 -2.726562 35.65625 -2.273438 35.65625 -1.734375 C 35.65625 -1.191406 35.382812 -0.671875 34.84375 -0.171875 C 34.300781 0.328125 33.484375 0.578125 32.390625 0.578125 C 31.304688 0.578125 30.296875 0.269531 29.359375 -0.34375 C 28.535156 0.269531 27.804688 0.578125 27.171875 0.578125 C 26.535156 0.578125 25.984375 0.515625 25.515625 0.390625 C 25.046875 0.265625 24.609375 0.0664062 24.203125 -0.203125 C 23.304688 -0.796875 22.753906 -1.632812 22.546875 -2.71875 Z M 24.359375 -7.578125 C 25.460938 -8.015625 26.039062 -10.125 26.09375 -13.90625 C 26.09375 -14.707031 26.09375 -15.625 26.09375 -16.65625 C 26.09375 -17.6875 26.085938 -18.566406 26.078125 -19.296875 C 26.078125 -20.035156 26.066406 -20.738281 26.046875 -21.40625 C 25.960938 -23.8125 25.738281 -25.25 25.375 -25.71875 C 25.019531 -26.1875 24.679688 -26.492188 24.359375 -26.640625 Z M 13.796875 -9.609375 C 13.796875 -8.804688 13.878906 -8.023438 14.046875 -7.265625 C 14.222656 -6.503906 14.484375 -5.835938 14.828125 -5.265625 C 15.585938 -4.066406 16.664062 -3.46875 18.0625 -3.46875 C 19.101562 -3.46875 19.96875 -3.894531 20.65625 -4.75 C 21.3125 -5.59375 21.640625 -6.671875 21.640625 -7.984375 L 21.640625 -17.3125 C 20.410156 -16.601562 18.84375 -16.117188 16.9375 -15.859375 C 14.84375 -15.535156 13.796875 -13.453125 13.796875 -9.609375 Z M 9.5 -3.171875 C 9.6875 -3.304688 9.78125 -3.476562 9.78125 -3.6875 C 9.78125 -3.976562 9.648438 -4.378906 9.390625 -4.890625 C 8.429688 -6.648438 7.953125 -8.09375 7.953125 -9.21875 C 7.953125 -10.34375 7.992188 -11.148438 8.078125 -11.640625 C 8.171875 -12.140625 8.285156 -12.566406 8.421875 -12.921875 C 8.566406 -13.273438 8.726562 -13.582031 8.90625 -13.84375 C 9.09375 -14.113281 9.253906 -14.351562 9.390625 -14.5625 C 9.640625 -15 9.765625 -15.300781 9.765625 -15.46875 C 9.765625 -15.632812 9.675781 -15.773438 9.5 -15.890625 C 8.71875 -15.523438 8.144531 -15.09375 7.78125 -14.59375 C 7.132812 -13.71875 6.660156 -12.582031 6.359375 -11.1875 C 6.273438 -10.789062 5.601562 -10.304688 4.34375 -9.734375 C 5.570312 -9.179688 6.242188 -8.691406 6.359375 -8.265625 C 7.003906 -5.992188 8.050781 -4.296875 9.5 -3.171875 Z M 9.5 -3.171875 "/></g></g></g><g fill="#974c1c" fill-opacity="1"><g transform="translate(117.236778, 98.957525)"><g><path d="M 10.734375 -37.859375 C 9.753906 -37.859375 8.8125 -38.113281 7.90625 -38.625 C 7 -39.144531 6.3125 -39.832031 5.84375 -40.6875 C 5.320312 -41.570312 4.632812 -42.242188 3.78125 -42.703125 C 3.507812 -42.828125 3.203125 -42.96875 2.859375 -43.125 L 3.828125 -43.734375 C 4.742188 -44.304688 5.421875 -45 5.859375 -45.8125 C 6.304688 -46.632812 6.972656 -47.28125 7.859375 -47.75 C 8.742188 -48.21875 9.703125 -48.453125 10.734375 -48.453125 C 12.867188 -48.453125 14.414062 -47.554688 15.375 -45.765625 C 16.019531 -44.578125 17.019531 -43.695312 18.375 -43.125 C 18.082031 -42.957031 17.796875 -42.804688 17.515625 -42.671875 C 17.242188 -42.535156 16.984375 -42.382812 16.734375 -42.21875 C 16.179688 -41.832031 15.691406 -41.265625 15.265625 -40.515625 C 14.835938 -39.773438 14.21875 -39.144531 13.40625 -38.625 C 12.59375 -38.113281 11.703125 -37.859375 10.734375 -37.859375 Z M 9.21875 -41.359375 C 9.101562 -41.566406 9.007812 -41.804688 8.9375 -42.078125 C 8.875 -42.359375 8.84375 -42.847656 8.84375 -43.546875 C 8.84375 -44.253906 9.207031 -45.15625 9.9375 -46.25 C 9.226562 -46.25 8.726562 -46.117188 8.4375 -45.859375 C 8.15625 -45.597656 7.941406 -45.378906 7.796875 -45.203125 C 7.648438 -45.023438 7.523438 -44.84375 7.421875 -44.65625 C 7.316406 -44.476562 7.191406 -44.285156 7.046875 -44.078125 C 6.679688 -43.554688 6.382812 -43.238281 6.15625 -43.125 C 6.457031 -42.957031 6.738281 -42.6875 7 -42.3125 C 7.257812 -41.9375 7.5625 -41.550781 7.90625 -41.15625 C 8.414062 -40.519531 9.09375 -40.203125 9.9375 -40.203125 C 9.820312 -40.410156 9.703125 -40.601562 9.578125 -40.78125 C 9.453125 -40.96875 9.332031 -41.160156 9.21875 -41.359375 Z M 7.875 -0.34375 C 6.988281 0.269531 5.988281 0.578125 4.875 0.578125 C 3.757812 0.578125 2.929688 0.328125 2.390625 -0.171875 C 1.847656 -0.671875 1.578125 -1.148438 1.578125 -1.609375 C 1.578125 -2.234375 1.707031 -2.726562 1.96875 -3.09375 C 2.394531 -2.769531 3.015625 -2.609375 3.828125 -2.609375 C 4.648438 -2.609375 5.359375 -3.140625 5.953125 -4.203125 L 5.953125 -13.328125 C 5.953125 -14.171875 5.78125 -14.785156 5.4375 -15.171875 C 4.882812 -15.742188 3.894531 -16.378906 2.46875 -17.078125 C 3.800781 -17.691406 4.648438 -18.179688 5.015625 -18.546875 C 5.640625 -19.171875 5.953125 -19.941406 5.953125 -20.859375 L 5.953125 -25.046875 C 5.953125 -26.660156 5.398438 -27.535156 4.296875 -27.671875 C 3.972656 -27.710938 3.5625 -27.734375 3.0625 -27.734375 C 2.5625 -27.734375 2.101562 -27.570312 1.6875 -27.25 C 1.414062 -27.601562 1.28125 -27.976562 1.28125 -28.375 C 1.28125 -28.769531 1.378906 -29.207031 1.578125 -29.6875 C 1.785156 -30.175781 2.097656 -30.640625 2.515625 -31.078125 C 3.503906 -32.109375 4.648438 -32.625 5.953125 -32.625 C 7.253906 -32.625 8.425781 -32.394531 9.46875 -31.9375 C 10.40625 -33.15625 11.472656 -33.765625 12.671875 -33.765625 C 14.640625 -33.765625 15.625 -32.734375 15.625 -30.671875 L 15.625 -20.859375 C 15.625 -19.941406 15.820312 -19.285156 16.21875 -18.890625 C 16.8125 -18.296875 17.773438 -17.691406 19.109375 -17.078125 C 17.679688 -16.378906 16.785156 -15.847656 16.421875 -15.484375 C 15.890625 -14.890625 15.625 -14.171875 15.625 -13.328125 L 15.625 -4.125 C 16.25 -3.113281 16.960938 -2.609375 17.765625 -2.609375 C 18.566406 -2.609375 19.179688 -2.769531 19.609375 -3.09375 C 19.867188 -2.726562 20 -2.273438 20 -1.734375 C 20 -1.191406 19.726562 -0.671875 19.1875 -0.171875 C 18.644531 0.328125 17.828125 0.578125 16.734375 0.578125 C 15.648438 0.578125 14.640625 0.269531 13.703125 -0.34375 C 12.921875 0.269531 11.976562 0.578125 10.875 0.578125 C 9.769531 0.578125 8.769531 0.269531 7.875 -0.34375 Z M 10.34375 -13.90625 C 10.351562 -14.550781 10.363281 -15.09375 10.375 -15.53125 C 10.382812 -15.976562 10.390625 -16.332031 10.390625 -16.59375 L 10.390625 -17.375 C 10.390625 -17.65625 10.382812 -18.023438 10.375 -18.484375 C 10.363281 -18.941406 10.351562 -19.445312 10.34375 -20 C 10.332031 -20.550781 10.316406 -21.097656 10.296875 -21.640625 C 10.222656 -22.953125 10.128906 -23.859375 10.015625 -24.359375 C 9.785156 -25.460938 9.347656 -26.222656 8.703125 -26.640625 L 8.703125 -24.78125 C 8.703125 -21.5625 8.628906 -19.671875 8.484375 -19.109375 C 8.335938 -18.546875 8.109375 -18.125 7.796875 -17.84375 C 7.484375 -17.5625 7.019531 -17.316406 6.40625 -17.109375 C 7.550781 -16.710938 8.203125 -16.226562 8.359375 -15.65625 C 8.585938 -14.738281 8.703125 -12.664062 8.703125 -9.4375 L 8.703125 -7.578125 C 9.578125 -8.148438 10.070312 -9.328125 10.1875 -11.109375 C 10.28125 -12.328125 10.332031 -13.257812 10.34375 -13.90625 Z M 10.34375 -13.90625 "/></g></g></g><g fill="#974c1c" fill-opacity="1"><g transform="translate(137.722744, 98.957525)"><g><path d="M 4.609375 -0.140625 C 4.035156 0.335938 3.328125 0.578125 2.484375 0.578125 C 1.648438 0.578125 1 0.347656 0.53125 -0.109375 C 0.0625 -0.566406 -0.171875 -1.109375 -0.171875 -1.734375 C -0.171875 -2.367188 -0.078125 -2.832031 0.109375 -3.125 C 0.566406 -2.851562 1.078125 -2.71875 1.640625 -2.71875 C 2.203125 -2.71875 2.710938 -2.773438 3.171875 -2.890625 C 3.628906 -3.003906 4.097656 -3.210938 4.578125 -3.515625 C 5.585938 -4.171875 6.628906 -5.238281 7.703125 -6.71875 L 13.390625 -14.53125 L 4.0625 -28.5 C 3.550781 -29.257812 3.144531 -29.703125 2.84375 -29.828125 C 2.550781 -29.953125 2.269531 -30.015625 2 -30.015625 C 1.351562 -30.015625 0.820312 -29.851562 0.40625 -29.53125 C 0.1875 -29.738281 0.078125 -30.066406 0.078125 -30.515625 C 0.078125 -30.960938 0.128906 -31.332031 0.234375 -31.625 C 0.347656 -31.925781 0.519531 -32.191406 0.75 -32.421875 C 1.300781 -32.941406 2.078125 -33.203125 3.078125 -33.203125 C 4.078125 -33.203125 5.015625 -32.921875 5.890625 -32.359375 C 6.640625 -32.921875 7.539062 -33.203125 8.59375 -33.203125 C 9.65625 -33.203125 10.625 -32.875 11.5 -32.21875 C 12.457031 -32.875 13.363281 -33.203125 14.21875 -33.203125 C 15.082031 -33.203125 15.734375 -33.132812 16.171875 -33 C 16.609375 -32.863281 17 -32.679688 17.34375 -32.453125 C 18.050781 -31.941406 18.40625 -31.300781 18.40625 -30.53125 C 18.40625 -30.070312 18.257812 -29.703125 17.96875 -29.421875 C 17.53125 -29.765625 17.046875 -29.9375 16.515625 -29.9375 C 15.753906 -29.9375 15.09375 -29.765625 14.53125 -29.421875 L 19.796875 -21.578125 L 25.09375 -29.28125 C 24.375 -29.789062 23.679688 -30.046875 23.015625 -30.046875 C 22.359375 -30.046875 21.71875 -29.863281 21.09375 -29.5 C 20.882812 -29.84375 20.78125 -30.300781 20.78125 -30.875 C 20.78125 -31.445312 21.046875 -31.976562 21.578125 -32.46875 C 22.109375 -32.957031 22.789062 -33.203125 23.625 -33.203125 C 24.46875 -33.203125 25.226562 -32.921875 25.90625 -32.359375 C 26.582031 -32.921875 27.304688 -33.203125 28.078125 -33.203125 C 28.859375 -33.203125 29.609375 -32.953125 30.328125 -32.453125 C 30.921875 -32.953125 31.503906 -33.203125 32.078125 -33.203125 C 32.648438 -33.203125 33.078125 -33.144531 33.359375 -33.03125 C 33.648438 -32.925781 33.921875 -32.769531 34.171875 -32.5625 C 34.703125 -32.125 34.96875 -31.578125 34.96875 -30.921875 C 34.96875 -30.265625 34.875 -29.789062 34.6875 -29.5 C 34.226562 -29.769531 33.75 -29.90625 33.25 -29.90625 C 32.757812 -29.90625 32.300781 -29.851562 31.875 -29.75 C 31.457031 -29.644531 31.039062 -29.457031 30.625 -29.1875 C 29.664062 -28.59375 28.75 -27.6875 27.875 -26.46875 L 21.890625 -18.4375 L 30.25 -5.953125 C 30.570312 -5.492188 30.851562 -5.0625 31.09375 -4.65625 C 31.332031 -4.257812 31.578125 -3.910156 31.828125 -3.609375 C 32.398438 -2.941406 33.039062 -2.609375 33.75 -2.609375 C 34.46875 -2.609375 35.035156 -2.769531 35.453125 -3.09375 C 35.660156 -2.882812 35.765625 -2.472656 35.765625 -1.859375 C 35.765625 -1.242188 35.507812 -0.679688 35 -0.171875 C 34.488281 0.328125 33.726562 0.578125 32.71875 0.578125 C 31.71875 0.578125 30.882812 0.257812 30.21875 -0.375 C 29.382812 0.257812 28.375 0.578125 27.1875 0.578125 C 26 0.578125 24.910156 0.25 23.921875 -0.40625 C 23.046875 0.25 22.066406 0.578125 20.984375 0.578125 C 19.910156 0.578125 19.066406 0.328125 18.453125 -0.171875 C 17.847656 -0.679688 17.546875 -1.320312 17.546875 -2.09375 C 17.546875 -2.550781 17.6875 -2.921875 17.96875 -3.203125 C 18.425781 -2.859375 18.863281 -2.6875 19.28125 -2.6875 C 19.988281 -2.6875 20.59375 -2.789062 21.09375 -3 L 15.375 -11.59375 L 10.28125 -3.296875 C 10.832031 -2.816406 11.457031 -2.578125 12.15625 -2.578125 C 12.863281 -2.578125 13.535156 -2.757812 14.171875 -3.125 C 14.378906 -2.78125 14.484375 -2.390625 14.484375 -1.953125 C 14.484375 -0.265625 13.535156 0.578125 11.640625 0.578125 C 10.734375 0.578125 9.925781 0.269531 9.21875 -0.34375 C 8.507812 0.269531 7.710938 0.578125 6.828125 0.578125 C 5.953125 0.578125 5.210938 0.335938 4.609375 -0.140625 Z M 10.390625 -26.640625 C 10.179688 -26.335938 10.078125 -25.945312 10.078125 -25.46875 C 10.078125 -24.988281 10.195312 -24.503906 10.4375 -24.015625 C 10.6875 -23.535156 11.003906 -23.007812 11.390625 -22.4375 L 13.671875 -19.171875 L 21.484375 -7.578125 C 21.734375 -7.890625 21.859375 -8.300781 21.859375 -8.8125 C 21.859375 -9.613281 20.800781 -11.570312 18.6875 -14.6875 Z M 10.390625 -26.640625 "/></g></g></g><g fill="#974c1c" fill-opacity="1"><g transform="translate(173.086786, 98.957525)"><g><path d="M 27.609375 -8.640625 C 28.035156 -9.441406 28.8125 -9.84375 29.9375 -9.84375 C 30.695312 -9.84375 31.285156 -9.53125 31.703125 -8.90625 C 32.046875 -8.40625 32.21875 -7.796875 32.21875 -7.078125 C 32.21875 -6.367188 32.035156 -5.648438 31.671875 -4.921875 C 31.316406 -4.191406 30.820312 -3.53125 30.1875 -2.9375 C 29.5625 -2.351562 28.84375 -1.832031 28.03125 -1.375 C 27.21875 -0.914062 26.351562 -0.535156 25.4375 -0.234375 C 23.550781 0.398438 21.585938 0.71875 19.546875 0.71875 C 17.503906 0.71875 15.585938 0.378906 13.796875 -0.296875 C 12.015625 -0.972656 10.488281 -1.921875 9.21875 -3.140625 C 6.71875 -5.546875 5.191406 -8.847656 4.640625 -13.046875 C 4.503906 -13.984375 4.285156 -14.648438 3.984375 -15.046875 C 3.410156 -15.753906 2.460938 -16.429688 1.140625 -17.078125 C 2.804688 -17.828125 3.867188 -19.019531 4.328125 -20.65625 C 4.453125 -21.113281 4.554688 -21.570312 4.640625 -22.03125 C 5.109375 -25.394531 6.804688 -28.257812 9.734375 -30.625 C 12.554688 -32.914062 15.710938 -34.0625 19.203125 -34.0625 C 22.828125 -34.0625 25.96875 -32.78125 28.625 -30.21875 C 31.363281 -27.582031 32.734375 -24.347656 32.734375 -20.515625 C 32.734375 -20.378906 32.726562 -20.242188 32.71875 -20.109375 C 32.707031 -19.984375 32.710938 -19.863281 32.734375 -19.75 C 32.773438 -19.5 32.929688 -19.351562 33.203125 -19.3125 C 33.546875 -18.875 33.71875 -18.410156 33.71875 -17.921875 C 33.71875 -16.773438 33.101562 -16.097656 31.875 -15.890625 C 31.570312 -15.828125 31.097656 -15.75 30.453125 -15.65625 L 14.3125 -13.078125 L 14.3125 -10.328125 C 14.3125 -8.117188 14.976562 -6.363281 16.3125 -5.0625 C 17.570312 -3.820312 19.164062 -3.203125 21.09375 -3.203125 C 23.132812 -3.203125 24.773438 -3.625 26.015625 -4.46875 C 27.179688 -5.269531 27.765625 -6.316406 27.765625 -7.609375 C 27.765625 -7.910156 27.710938 -8.253906 27.609375 -8.640625 Z M 22.609375 -17.890625 L 22.609375 -25.90625 C 22.609375 -27.15625 22.359375 -28.078125 21.859375 -28.671875 C 20.984375 -29.679688 20.113281 -30.1875 19.25 -30.1875 C 18.394531 -30.1875 17.679688 -30.054688 17.109375 -29.796875 C 16.535156 -29.546875 16.039062 -29.144531 15.625 -28.59375 C 14.75 -27.425781 14.3125 -25.613281 14.3125 -23.15625 L 14.3125 -16.546875 Z M 26.84375 -18.609375 L 26.84375 -19.484375 C 26.84375 -23.035156 26.546875 -25.179688 25.953125 -25.921875 C 25.691406 -26.253906 25.394531 -26.492188 25.0625 -26.640625 L 25.0625 -18.3125 Z M 9.640625 -7.578125 C 9.910156 -7.796875 10.046875 -8.035156 10.046875 -8.296875 C 10.046875 -8.710938 9.957031 -9.25 9.78125 -9.90625 C 9 -12.894531 8.609375 -14.976562 8.609375 -16.15625 C 8.609375 -17.332031 8.644531 -18.25 8.71875 -18.90625 C 8.800781 -19.5625 8.910156 -20.222656 9.046875 -20.890625 C 9.273438 -22.191406 9.519531 -23.335938 9.78125 -24.328125 C 9.957031 -24.972656 10.046875 -25.410156 10.046875 -25.640625 C 10.046875 -26.097656 9.910156 -26.429688 9.640625 -26.640625 C 8.835938 -25.691406 8.226562 -24.414062 7.8125 -22.8125 C 7.394531 -21.207031 7.050781 -19.796875 6.78125 -18.578125 C 6.6875 -18.054688 6.125 -17.554688 5.09375 -17.078125 C 6.125 -16.609375 6.6875 -16.132812 6.78125 -15.65625 C 7.488281 -12.425781 8.070312 -10.375 8.53125 -9.5 C 8.988281 -8.625 9.359375 -7.984375 9.640625 -7.578125 Z M 9.640625 -7.578125 "/></g></g></g><g fill="#974c1c" fill-opacity="1"><g transform="translate(207.993042, 98.957525)"><g/></g></g><g fill="#974c1c" fill-opacity="1"><g transform="translate(222.298884, 98.957525)"><g><path d="M 22.546875 -2.71875 C 20.816406 -0.425781 18.210938 0.71875 14.734375 0.71875 C 10.503906 0.71875 7.328125 -0.550781 5.203125 -3.09375 C 4.285156 -4.175781 3.65625 -5.382812 3.3125 -6.71875 C 3.125 -7.519531 2.789062 -8.132812 2.3125 -8.5625 C 1.84375 -9 1.253906 -9.390625 0.546875 -9.734375 C 1.921875 -10.359375 2.898438 -11.539062 3.484375 -13.28125 C 4.117188 -15.113281 5.171875 -16.4375 6.640625 -17.25 C 8.222656 -18.113281 9.96875 -18.566406 11.875 -18.609375 C 13.78125 -18.660156 15.191406 -18.722656 16.109375 -18.796875 C 17.023438 -18.878906 17.835938 -19.003906 18.546875 -19.171875 C 19.859375 -19.472656 20.890625 -20.035156 21.640625 -20.859375 L 21.640625 -25.15625 C 21.640625 -27.039062 21.25 -28.421875 20.46875 -29.296875 C 19.695312 -30.179688 18.523438 -30.625 16.953125 -30.625 C 15.378906 -30.625 14.210938 -30.332031 13.453125 -29.75 C 12.703125 -29.164062 12.328125 -28.390625 12.328125 -27.421875 C 12.328125 -25.929688 13.09375 -25.203125 14.625 -25.234375 C 14.320312 -23.753906 13.519531 -23.015625 12.21875 -23.015625 C 11.832031 -23.015625 11.460938 -23.078125 11.109375 -23.203125 L 11.109375 -23.125 C 11.109375 -22.625 11.335938 -22.304688 11.796875 -22.171875 C 11.316406 -21.453125 10.515625 -21.101562 9.390625 -21.125 C 8.265625 -21.144531 7.382812 -21.742188 6.75 -22.921875 C 6.46875 -22.847656 6.140625 -22.8125 5.765625 -22.8125 C 5.390625 -22.8125 4.976562 -22.929688 4.53125 -23.171875 C 4.082031 -23.421875 3.726562 -23.765625 3.46875 -24.203125 C 4.414062 -24.773438 4.992188 -25.664062 5.203125 -26.875 C 5.429688 -28.34375 6.609375 -29.832031 8.734375 -31.34375 C 11.285156 -33.15625 14.546875 -34.0625 18.515625 -34.0625 C 25.097656 -34.0625 29.113281 -32.035156 30.5625 -27.984375 C 31.039062 -26.628906 31.28125 -25.03125 31.28125 -23.1875 L 31.28125 -20.859375 C 31.28125 -19.921875 31.515625 -19.15625 31.984375 -18.5625 C 32.453125 -17.976562 33.25 -17.492188 34.375 -17.109375 C 33.164062 -16.554688 32.390625 -16.0625 32.046875 -15.625 C 31.535156 -14.957031 31.28125 -14.191406 31.28125 -13.328125 L 31.28125 -4.75 C 31.832031 -3.320312 32.625 -2.609375 33.65625 -2.609375 C 34.300781 -2.609375 34.832031 -2.769531 35.25 -3.09375 C 35.519531 -2.726562 35.65625 -2.273438 35.65625 -1.734375 C 35.65625 -1.191406 35.382812 -0.671875 34.84375 -0.171875 C 34.300781 0.328125 33.484375 0.578125 32.390625 0.578125 C 31.304688 0.578125 30.296875 0.269531 29.359375 -0.34375 C 28.535156 0.269531 27.804688 0.578125 27.171875 0.578125 C 26.535156 0.578125 25.984375 0.515625 25.515625 0.390625 C 25.046875 0.265625 24.609375 0.0664062 24.203125 -0.203125 C 23.304688 -0.796875 22.753906 -1.632812 22.546875 -2.71875 Z M 24.359375 -7.578125 C 25.460938 -8.015625 26.039062 -10.125 26.09375 -13.90625 C 26.09375 -14.707031 26.09375 -15.625 26.09375 -16.65625 C 26.09375 -17.6875 26.085938 -18.566406 26.078125 -19.296875 C 26.078125 -20.035156 26.066406 -20.738281 26.046875 -21.40625 C 25.960938 -23.8125 25.738281 -25.25 25.375 -25.71875 C 25.019531 -26.1875 24.679688 -26.492188 24.359375 -26.640625 Z M 13.796875 -9.609375 C 13.796875 -8.804688 13.878906 -8.023438 14.046875 -7.265625 C 14.222656 -6.503906 14.484375 -5.835938 14.828125 -5.265625 C 15.585938 -4.066406 16.664062 -3.46875 18.0625 -3.46875 C 19.101562 -3.46875 19.96875 -3.894531 20.65625 -4.75 C 21.3125 -5.59375 21.640625 -6.671875 21.640625 -7.984375 L 21.640625 -17.3125 C 20.410156 -16.601562 18.84375 -16.117188 16.9375 -15.859375 C 14.84375 -15.535156 13.796875 -13.453125 13.796875 -9.609375 Z M 9.5 -3.171875 C 9.6875 -3.304688 9.78125 -3.476562 9.78125 -3.6875 C 9.78125 -3.976562 9.648438 -4.378906 9.390625 -4.890625 C 8.429688 -6.648438 7.953125 -8.09375 7.953125 -9.21875 C 7.953125 -10.34375 7.992188 -11.148438 8.078125 -11.640625 C 8.171875 -12.140625 8.285156 -12.566406 8.421875 -12.921875 C 8.566406 -13.273438 8.726562 -13.582031 8.90625 -13.84375 C 9.09375 -14.113281 9.253906 -14.351562 9.390625 -14.5625 C 9.640625 -15 9.765625 -15.300781 9.765625 -15.46875 C 9.765625 -15.632812 9.675781 -15.773438 9.5 -15.890625 C 8.71875 -15.523438 8.144531 -15.09375 7.78125 -14.59375 C 7.132812 -13.71875 6.660156 -12.582031 6.359375 -11.1875 C 6.273438 -10.789062 5.601562 -10.304688 4.34375 -9.734375 C 5.570312 -9.179688 6.242188 -8.691406 6.359375 -8.265625 C 7.003906 -5.992188 8.050781 -4.296875 9.5 -3.171875 Z M 9.5 -3.171875 "/></g></g></g><g fill="#974c1c" fill-opacity="1"><g transform="translate(258.950452, 98.957525)"><g><path d="M 24.03125 -2.265625 C 22.28125 -0.273438 20.207031 0.71875 17.8125 0.71875 C 15.414062 0.71875 13.445312 0.382812 11.90625 -0.28125 C 10.375 -0.945312 9.085938 -1.882812 8.046875 -3.09375 C 6.023438 -5.4375 4.890625 -8.753906 4.640625 -13.046875 C 4.597656 -13.910156 4.40625 -14.5625 4.0625 -15 C 3.488281 -15.71875 2.515625 -16.410156 1.140625 -17.078125 C 3.390625 -18.109375 4.5625 -19.6875 4.65625 -21.8125 C 4.757812 -23.945312 5.140625 -25.769531 5.796875 -27.28125 C 6.453125 -28.800781 7.332031 -30.046875 8.4375 -31.015625 C 10.5625 -32.847656 13.519531 -33.765625 17.3125 -33.765625 C 19.625 -33.765625 21.5625 -33.128906 23.125 -31.859375 C 23.632812 -31.429688 24.050781 -30.929688 24.375 -30.359375 C 25.375 -31.484375 26.410156 -32.332031 27.484375 -32.90625 C 28.566406 -33.476562 29.640625 -33.765625 30.703125 -33.765625 C 32.535156 -33.765625 33.988281 -33.5 35.0625 -32.96875 C 34.164062 -31.863281 33.71875 -30.359375 33.71875 -28.453125 L 33.71875 -22.03125 C 33.71875 -19.820312 34.878906 -18.179688 37.203125 -17.109375 C 35.828125 -16.441406 34.953125 -15.878906 34.578125 -15.421875 C 34.003906 -14.710938 33.71875 -13.921875 33.71875 -13.046875 L 33.71875 9.4375 C 34.1875 10.757812 34.976562 11.421875 36.09375 11.421875 C 36.738281 11.421875 37.269531 11.257812 37.6875 10.9375 C 37.957031 11.289062 38.09375 11.738281 38.09375 12.28125 C 38.09375 12.832031 37.816406 13.351562 37.265625 13.84375 C 36.722656 14.34375 35.898438 14.59375 34.796875 14.59375 C 33.691406 14.59375 32.691406 14.28125 31.796875 13.65625 C 31.035156 14.28125 30.085938 14.59375 28.953125 14.59375 C 27.816406 14.59375 26.816406 14.28125 25.953125 13.65625 C 25.097656 14.28125 24.109375 14.59375 22.984375 14.59375 C 21.859375 14.59375 21.019531 14.34375 20.46875 13.84375 C 19.925781 13.351562 19.65625 12.878906 19.65625 12.421875 C 19.65625 11.785156 19.789062 11.289062 20.0625 10.9375 C 20.476562 11.257812 21.007812 11.421875 21.65625 11.421875 C 22.769531 11.421875 23.5625 10.78125 24.03125 9.5 Z M 18.890625 -29.59375 C 15.835938 -29.59375 14.3125 -27.347656 14.3125 -22.859375 L 14.3125 -10.328125 C 14.3125 -6.835938 15.460938 -4.671875 17.765625 -3.828125 C 18.421875 -3.585938 19.066406 -3.46875 19.703125 -3.46875 C 20.335938 -3.46875 20.914062 -3.59375 21.4375 -3.84375 C 21.96875 -4.101562 22.425781 -4.441406 22.8125 -4.859375 C 23.625 -5.796875 24.03125 -6.914062 24.03125 -8.21875 L 24.03125 -22.859375 C 24.03125 -26.367188 22.960938 -28.5 20.828125 -29.25 C 20.203125 -29.476562 19.554688 -29.59375 18.890625 -29.59375 Z M 26.9375 -20.03125 C 26.925781 -19.175781 26.914062 -18.523438 26.90625 -18.078125 C 26.90625 -17.640625 26.90625 -16.582031 26.90625 -14.90625 L 26.90625 -7.328125 C 26.90625 -4.484375 26.976562 -2.691406 27.125 -1.953125 C 27.375 -0.628906 27.832031 0.25 28.5 0.6875 L 28.5 -1.578125 C 28.5 -10.046875 28.613281 -14.738281 28.84375 -15.65625 C 29 -16.207031 29.648438 -16.679688 30.796875 -17.078125 C 29.671875 -17.460938 29.019531 -17.960938 28.84375 -18.578125 C 28.613281 -19.492188 28.5 -21.609375 28.5 -24.921875 L 28.5 -26.640625 C 27.71875 -26.128906 27.25 -24.921875 27.09375 -23.015625 C 27 -21.878906 26.945312 -20.882812 26.9375 -20.03125 Z M 9.640625 -7.578125 C 9.910156 -7.796875 10.046875 -8.035156 10.046875 -8.296875 C 10.046875 -8.710938 9.957031 -9.25 9.78125 -9.90625 C 9 -12.894531 8.609375 -14.976562 8.609375 -16.15625 C 8.609375 -17.332031 8.644531 -18.25 8.71875 -18.90625 C 8.800781 -19.5625 8.910156 -20.222656 9.046875 -20.890625 C 9.273438 -22.191406 9.519531 -23.335938 9.78125 -24.328125 C 9.957031 -24.972656 10.046875 -25.410156 10.046875 -25.640625 C 10.046875 -26.097656 9.910156 -26.429688 9.640625 -26.640625 C 8.835938 -25.691406 8.226562 -24.414062 7.8125 -22.8125 C 7.394531 -21.207031 7.050781 -19.796875 6.78125 -18.578125 C 6.6875 -18.054688 6.125 -17.554688 5.09375 -17.078125 C 6.125 -16.609375 6.6875 -16.132812 6.78125 -15.65625 C 7.488281 -12.425781 8.070312 -10.375 8.53125 -9.5 C 8.988281 -8.625 9.359375 -7.984375 9.640625 -7.578125 Z M 9.640625 -7.578125 "/></g></g></g><g fill="#974c1c" fill-opacity="1"><g transform="translate(297.204275, 98.957525)"><g><path d="M 29.421875 0.578125 C 26.734375 0.578125 25.28125 -1.285156 25.0625 -5.015625 C 24.09375 -3.253906 22.78125 -1.859375 21.125 -0.828125 C 19.476562 0.203125 17.707031 0.71875 15.8125 0.71875 C 13.914062 0.71875 12.375 0.460938 11.1875 -0.046875 C 10.007812 -0.566406 9.023438 -1.316406 8.234375 -2.296875 C 6.710938 -4.203125 5.953125 -6.910156 5.953125 -10.421875 L 5.953125 -12.1875 C 5.953125 -14.40625 4.789062 -16.046875 2.46875 -17.109375 C 3.832031 -17.773438 4.707031 -18.335938 5.09375 -18.796875 C 5.664062 -19.503906 5.953125 -20.296875 5.953125 -21.171875 L 5.953125 -25.046875 C 5.953125 -26.660156 5.398438 -27.535156 4.296875 -27.671875 C 3.972656 -27.710938 3.5625 -27.734375 3.0625 -27.734375 C 2.5625 -27.734375 2.101562 -27.570312 1.6875 -27.25 C 1.414062 -27.601562 1.28125 -27.976562 1.28125 -28.375 C 1.28125 -28.769531 1.378906 -29.207031 1.578125 -29.6875 C 1.785156 -30.175781 2.097656 -30.640625 2.515625 -31.078125 C 3.503906 -32.109375 4.65625 -32.625 5.96875 -32.625 C 7.289062 -32.625 8.535156 -32.40625 9.703125 -31.96875 C 10.535156 -33.164062 11.523438 -33.765625 12.671875 -33.765625 C 14.640625 -33.765625 15.625 -32.734375 15.625 -30.671875 L 15.625 -12.046875 C 15.625 -8.421875 16.460938 -6.242188 18.140625 -5.515625 C 18.671875 -5.296875 19.265625 -5.1875 19.921875 -5.1875 C 20.585938 -5.1875 21.1875 -5.320312 21.71875 -5.59375 C 22.25 -5.875 22.71875 -6.25 23.125 -6.71875 C 23.863281 -7.65625 24.335938 -8.9375 24.546875 -10.5625 L 24.546875 -25.046875 C 24.546875 -27.210938 23.660156 -28.296875 21.890625 -28.296875 C 21.242188 -28.296875 20.710938 -28.132812 20.296875 -27.8125 C 20.023438 -28.175781 19.890625 -28.550781 19.890625 -28.9375 C 19.890625 -29.332031 19.988281 -29.742188 20.1875 -30.171875 C 20.382812 -30.609375 20.695312 -31.003906 21.125 -31.359375 C 22.050781 -32.203125 23.1875 -32.625 24.53125 -32.625 C 25.882812 -32.625 27.140625 -32.40625 28.296875 -31.96875 C 29.140625 -33.164062 30.132812 -33.765625 31.28125 -33.765625 C 33.25 -33.765625 34.234375 -32.734375 34.234375 -30.671875 L 34.234375 -21.171875 C 34.234375 -20.296875 34.398438 -19.648438 34.734375 -19.234375 C 35.347656 -18.484375 36.34375 -17.773438 37.71875 -17.109375 C 35.394531 -16.046875 34.234375 -14.40625 34.234375 -12.1875 L 34.234375 -4.8125 C 34.585938 -3.34375 35.378906 -2.609375 36.609375 -2.609375 C 37.253906 -2.609375 37.785156 -2.769531 38.203125 -3.09375 C 38.472656 -2.726562 38.609375 -2.273438 38.609375 -1.734375 C 38.609375 -1.191406 38.332031 -0.671875 37.78125 -0.171875 C 37.238281 0.328125 36.390625 0.578125 35.234375 0.578125 C 34.085938 0.578125 33 0.269531 31.96875 -0.34375 C 31.207031 0.269531 30.359375 0.578125 29.421875 0.578125 Z M 27.265625 -7.578125 C 28.378906 -8.015625 28.960938 -10.125 29.015625 -13.90625 C 29.015625 -14.707031 29.015625 -15.625 29.015625 -16.65625 C 29.015625 -17.6875 29.007812 -18.566406 29 -19.296875 C 28.988281 -20.035156 28.976562 -20.738281 28.96875 -21.40625 C 28.882812 -23.8125 28.660156 -25.25 28.296875 -25.71875 C 27.941406 -26.1875 27.597656 -26.492188 27.265625 -26.640625 Z M 10.15625 -17.109375 L 10.25 -20.890625 C 10.25 -22.585938 10.191406 -23.710938 10.078125 -24.265625 C 9.753906 -25.710938 9.296875 -26.503906 8.703125 -26.640625 L 8.703125 -24.78125 C 8.703125 -21.5625 8.628906 -19.671875 8.484375 -19.109375 C 8.335938 -18.546875 8.109375 -18.125 7.796875 -17.84375 C 7.484375 -17.5625 7.019531 -17.316406 6.40625 -17.109375 C 7.550781 -16.710938 8.203125 -16.226562 8.359375 -15.65625 C 8.585938 -14.738281 8.703125 -12.664062 8.703125 -9.4375 L 8.703125 -7.578125 C 9.273438 -7.710938 9.742188 -8.5625 10.109375 -10.125 C 10.203125 -10.5625 10.25 -11.628906 10.25 -13.328125 Z M 10.15625 -17.109375 "/></g></g></g><g fill="#974c1c" fill-opacity="1"><g transform="translate(336.945919, 98.957525)"><g><path d="M 10.734375 -37.859375 C 9.753906 -37.859375 8.8125 -38.113281 7.90625 -38.625 C 7 -39.144531 6.3125 -39.832031 5.84375 -40.6875 C 5.320312 -41.570312 4.632812 -42.242188 3.78125 -42.703125 C 3.507812 -42.828125 3.203125 -42.96875 2.859375 -43.125 L 3.828125 -43.734375 C 4.742188 -44.304688 5.421875 -45 5.859375 -45.8125 C 6.304688 -46.632812 6.972656 -47.28125 7.859375 -47.75 C 8.742188 -48.21875 9.703125 -48.453125 10.734375 -48.453125 C 12.867188 -48.453125 14.414062 -47.554688 15.375 -45.765625 C 16.019531 -44.578125 17.019531 -43.695312 18.375 -43.125 C 18.082031 -42.957031 17.796875 -42.804688 17.515625 -42.671875 C 17.242188 -42.535156 16.984375 -42.382812 16.734375 -42.21875 C 16.179688 -41.832031 15.691406 -41.265625 15.265625 -40.515625 C 14.835938 -39.773438 14.21875 -39.144531 13.40625 -38.625 C 12.59375 -38.113281 11.703125 -37.859375 10.734375 -37.859375 Z M 9.21875 -41.359375 C 9.101562 -41.566406 9.007812 -41.804688 8.9375 -42.078125 C 8.875 -42.359375 8.84375 -42.847656 8.84375 -43.546875 C 8.84375 -44.253906 9.207031 -45.15625 9.9375 -46.25 C 9.226562 -46.25 8.726562 -46.117188 8.4375 -45.859375 C 8.15625 -45.597656 7.941406 -45.378906 7.796875 -45.203125 C 7.648438 -45.023438 7.523438 -44.84375 7.421875 -44.65625 C 7.316406 -44.476562 7.191406 -44.285156 7.046875 -44.078125 C 6.679688 -43.554688 6.382812 -43.238281 6.15625 -43.125 C 6.457031 -42.957031 6.738281 -42.6875 7 -42.3125 C 7.257812 -41.9375 7.5625 -41.550781 7.90625 -41.15625 C 8.414062 -40.519531 9.09375 -40.203125 9.9375 -40.203125 C 9.820312 -40.410156 9.703125 -40.601562 9.578125 -40.78125 C 9.453125 -40.96875 9.332031 -41.160156 9.21875 -41.359375 Z M 7.875 -0.34375 C 6.988281 0.269531 5.988281 0.578125 4.875 0.578125 C 3.757812 0.578125 2.929688 0.328125 2.390625 -0.171875 C 1.847656 -0.671875 1.578125 -1.148438 1.578125 -1.609375 C 1.578125 -2.234375 1.707031 -2.726562 1.96875 -3.09375 C 2.394531 -2.769531 3.015625 -2.609375 3.828125 -2.609375 C 4.648438 -2.609375 5.359375 -3.140625 5.953125 -4.203125 L 5.953125 -13.328125 C 5.953125 -14.171875 5.78125 -14.785156 5.4375 -15.171875 C 4.882812 -15.742188 3.894531 -16.378906 2.46875 -17.078125 C 3.800781 -17.691406 4.648438 -18.179688 5.015625 -18.546875 C 5.640625 -19.171875 5.953125 -19.941406 5.953125 -20.859375 L 5.953125 -25.046875 C 5.953125 -26.660156 5.398438 -27.535156 4.296875 -27.671875 C 3.972656 -27.710938 3.5625 -27.734375 3.0625 -27.734375 C 2.5625 -27.734375 2.101562 -27.570312 1.6875 -27.25 C 1.414062 -27.601562 1.28125 -27.976562 1.28125 -28.375 C 1.28125 -28.769531 1.378906 -29.207031 1.578125 -29.6875 C 1.785156 -30.175781 2.097656 -30.640625 2.515625 -31.078125 C 3.503906 -32.109375 4.648438 -32.625 5.953125 -32.625 C 7.253906 -32.625 8.425781 -32.394531 9.46875 -31.9375 C 10.40625 -33.15625 11.472656 -33.765625 12.671875 -33.765625 C 14.640625 -33.765625 15.625 -32.734375 15.625 -30.671875 L 15.625 -20.859375 C 15.625 -19.941406 15.820312 -19.285156 16.21875 -18.890625 C 16.8125 -18.296875 17.773438 -17.691406 19.109375 -17.078125 C 17.679688 -16.378906 16.785156 -15.847656 16.421875 -15.484375 C 15.890625 -14.890625 15.625 -14.171875 15.625 -13.328125 L 15.625 -4.125 C 16.25 -3.113281 16.960938 -2.609375 17.765625 -2.609375 C 18.566406 -2.609375 19.179688 -2.769531 19.609375 -3.09375 C 19.867188 -2.726562 20 -2.273438 20 -1.734375 C 20 -1.191406 19.726562 -0.671875 19.1875 -0.171875 C 18.644531 0.328125 17.828125 0.578125 16.734375 0.578125 C 15.648438 0.578125 14.640625 0.269531 13.703125 -0.34375 C 12.921875 0.269531 11.976562 0.578125 10.875 0.578125 C 9.769531 0.578125 8.769531 0.269531 7.875 -0.34375 Z M 10.34375 -13.90625 C 10.351562 -14.550781 10.363281 -15.09375 10.375 -15.53125 C 10.382812 -15.976562 10.390625 -16.332031 10.390625 -16.59375 L 10.390625 -17.375 C 10.390625 -17.65625 10.382812 -18.023438 10.375 -18.484375 C 10.363281 -18.941406 10.351562 -19.445312 10.34375 -20 C 10.332031 -20.550781 10.316406 -21.097656 10.296875 -21.640625 C 10.222656 -22.953125 10.128906 -23.859375 10.015625 -24.359375 C 9.785156 -25.460938 9.347656 -26.222656 8.703125 -26.640625 L 8.703125 -24.78125 C 8.703125 -21.5625 8.628906 -19.671875 8.484375 -19.109375 C 8.335938 -18.546875 8.109375 -18.125 7.796875 -17.84375 C 7.484375 -17.5625 7.019531 -17.316406 6.40625 -17.109375 C 7.550781 -16.710938 8.203125 -16.226562 8.359375 -15.65625 C 8.585938 -14.738281 8.703125 -12.664062 8.703125 -9.4375 L 8.703125 -7.578125 C 9.578125 -8.148438 10.070312 -9.328125 10.1875 -11.109375 C 10.28125 -12.328125 10.332031 -13.257812 10.34375 -13.90625 Z M 10.34375 -13.90625 "/></g></g></g><g fill="#974c1c" fill-opacity="1"><g transform="translate(357.431885, 98.957525)"><g><path d="M 21.65625 -44.421875 C 21.1875 -44.742188 20.6875 -44.90625 20.15625 -44.90625 C 19.632812 -44.90625 19.234375 -44.847656 18.953125 -44.734375 C 18.679688 -44.617188 18.46875 -44.445312 18.3125 -44.21875 C 18.0625 -43.875 17.875 -43.1875 17.75 -42.15625 L 15.078125 -16.515625 C 14.910156 -15.484375 14.554688 -14.707031 14.015625 -14.1875 C 13.484375 -13.675781 12.914062 -13.421875 12.3125 -13.421875 C 11.71875 -13.421875 11.140625 -13.695312 10.578125 -14.25 C 10.015625 -14.800781 9.65625 -15.566406 9.5 -16.546875 L 6.53125 -42.15625 C 6.394531 -43.1875 6.226562 -43.84375 6.03125 -44.125 C 5.675781 -44.644531 5.117188 -44.90625 4.359375 -44.90625 C 3.609375 -44.90625 3.023438 -44.742188 2.609375 -44.421875 C 2.398438 -44.679688 2.296875 -45.097656 2.296875 -45.671875 C 2.296875 -46.242188 2.535156 -46.785156 3.015625 -47.296875 C 3.503906 -47.816406 4.234375 -48.078125 5.203125 -48.078125 C 6.179688 -48.078125 7.175781 -47.9375 8.1875 -47.65625 C 9.363281 -48.320312 10.6875 -48.65625 12.15625 -48.65625 C 13.625 -48.65625 14.921875 -48.320312 16.046875 -47.65625 C 16.984375 -47.9375 17.960938 -48.078125 18.984375 -48.078125 C 20.003906 -48.078125 20.757812 -47.8125 21.25 -47.28125 C 21.738281 -46.757812 21.984375 -46.257812 21.984375 -45.78125 C 21.984375 -45.15625 21.875 -44.703125 21.65625 -44.421875 Z M 11.46875 -18.203125 C 11.894531 -18.410156 12.109375 -19.832031 12.109375 -22.46875 C 12.109375 -23.59375 12.0625 -24.785156 11.96875 -26.046875 L 11.703125 -29.984375 C 11.203125 -37.179688 10.601562 -41.476562 9.90625 -42.875 C 9.675781 -43.3125 9.414062 -43.453125 9.125 -43.296875 Z M 4.8125 -4.6875 C 5.875 -5.351562 6.539062 -5.890625 6.8125 -6.296875 C 7.09375 -6.710938 7.320312 -7.082031 7.5 -7.40625 C 7.957031 -8.269531 8.628906 -8.941406 9.515625 -9.421875 C 10.398438 -9.910156 11.359375 -10.15625 12.390625 -10.15625 C 14.523438 -10.15625 16.070312 -9.257812 17.03125 -7.46875 C 17.789062 -6.050781 18.695312 -5.125 19.75 -4.6875 C 19.457031 -4.519531 19.1875 -4.367188 18.9375 -4.234375 C 18.695312 -4.097656 18.472656 -3.945312 18.265625 -3.78125 C 17.816406 -3.414062 17.375 -2.851562 16.9375 -2.09375 C 16.5 -1.34375 15.875 -0.6875 15.0625 -0.125 C 14.25 0.4375 13.359375 0.71875 12.390625 0.71875 C 11.421875 0.71875 10.484375 0.4375 9.578125 -0.125 C 8.671875 -0.6875 7.976562 -1.398438 7.5 -2.265625 C 6.945312 -3.210938 6.445312 -3.816406 6 -4.078125 C 5.550781 -4.335938 5.15625 -4.539062 4.8125 -4.6875 Z M 11.15625 -2.9375 C 11.039062 -3.132812 10.945312 -3.367188 10.875 -3.640625 C 10.8125 -3.921875 10.78125 -4.4375 10.78125 -5.1875 C 10.78125 -5.945312 11.144531 -6.867188 11.875 -7.953125 C 11.457031 -7.953125 11.085938 -7.867188 10.765625 -7.703125 C 10.441406 -7.546875 10.15625 -7.304688 9.90625 -6.984375 C 9.65625 -6.660156 9.476562 -6.40625 9.375 -6.21875 C 9.269531 -6.039062 9.140625 -5.859375 8.984375 -5.671875 C 8.617188 -5.128906 8.320312 -4.800781 8.09375 -4.6875 C 8.40625 -4.519531 8.6875 -4.25 8.9375 -3.875 C 9.195312 -3.5 9.5 -3.101562 9.84375 -2.6875 C 10.363281 -2.082031 11.039062 -1.78125 11.875 -1.78125 C 11.757812 -1.988281 11.640625 -2.179688 11.515625 -2.359375 C 11.390625 -2.546875 11.269531 -2.738281 11.15625 -2.9375 Z M 11.15625 -2.9375 "/></g></g></g></svg>