<svg xmlns="http://www.w3.org/2000/svg" xmlns:xlink="http://www.w3.org/1999/xlink" width="3477" zoomAndPan="magnify" viewBox="0 0 2607.75 595.499987" height="793" preserveAspectRatio="xMidYMid meet" version="1.0"><defs><g/></defs><g fill="#e9cba7" fill-opacity="1"><g transform="translate(4.598752, 426.322257)"><g><path d="M 59.65625 -6.609375 C 50.613281 2.429688 42.023438 6.953125 33.890625 6.953125 C 28.691406 6.953125 25.191406 5.03125 23.390625 1.1875 C 25.984375 -1.976562 27.28125 -6.722656 27.28125 -13.046875 L 27.28125 -15.59375 C 27.28125 -16.269531 27.226562 -16.890625 27.125 -17.453125 C 21.46875 -22.535156 18.640625 -28.550781 18.640625 -35.5 C 18.640625 -42.457031 21.914062 -49.550781 28.46875 -56.78125 C 26.550781 -60.625 25.59375 -64.71875 25.59375 -69.0625 C 25.59375 -73.414062 26.238281 -77.484375 27.53125 -81.265625 C 28.832031 -85.054688 30.613281 -88.363281 32.875 -91.1875 C 37.625 -97.394531 42.285156 -100.5 46.859375 -100.5 C 51.441406 -100.5 54.691406 -98.691406 56.609375 -95.078125 C 52.535156 -90.785156 50.5 -84.0625 50.5 -74.90625 C 50.5 -65.757812 51.828125 -57.796875 54.484375 -51.015625 C 57.140625 -44.234375 60.898438 -38.414062 65.765625 -33.5625 C 76.160156 -22.9375 89.4375 -17.625 105.59375 -17.625 C 116.4375 -17.625 125.644531 -20.734375 133.21875 -26.953125 C 141.351562 -33.617188 145.421875 -42.710938 145.421875 -54.234375 C 145.421875 -62.367188 143.5 -68.976562 139.65625 -74.0625 C 133.664062 -81.976562 124.285156 -90.34375 111.515625 -99.15625 C 101.691406 -106.039062 93.84375 -109.484375 87.96875 -109.484375 C 81.976562 -109.484375 75.367188 -107.054688 68.140625 -102.203125 C 70.054688 -107.960938 71.015625 -113.328125 71.015625 -118.296875 C 71.015625 -119.429688 69.941406 -120.898438 67.796875 -122.703125 L 61.53125 -128.296875 C 41.75 -146.492188 30.050781 -163.390625 26.4375 -178.984375 C 25.195312 -184.398438 24.578125 -191.203125 24.578125 -199.390625 C 24.578125 -207.585938 26.582031 -215.894531 30.59375 -224.3125 C 34.601562 -232.726562 40.113281 -239.875 47.125 -245.75 C 61.695312 -258.1875 80.222656 -264.40625 102.703125 -264.40625 C 116.378906 -264.40625 128.921875 -262.203125 140.328125 -257.796875 C 145.191406 -255.867188 150.726562 -254.90625 156.9375 -254.90625 C 159.539062 -254.90625 161.882812 -255.046875 163.96875 -255.328125 C 166.0625 -255.609375 167.898438 -256.769531 169.484375 -258.8125 C 170.953125 -260.957031 171.6875 -262.875 171.6875 -264.5625 C 171.6875 -266.257812 171.460938 -267.675781 171.015625 -268.8125 C 171.804688 -269.144531 172.90625 -269.3125 174.3125 -269.3125 C 175.726562 -269.3125 177.28125 -268.832031 178.96875 -267.875 C 180.664062 -266.914062 182.191406 -265.585938 183.546875 -263.890625 C 186.597656 -260.046875 188.125 -255.722656 188.125 -250.921875 C 188.125 -246.117188 186.769531 -242.476562 184.0625 -240 C 187.90625 -236.601562 189.828125 -231.347656 189.828125 -224.234375 C 189.828125 -217.222656 187.453125 -211.347656 182.703125 -206.609375 C 183.609375 -203.554688 184.0625 -200.8125 184.0625 -198.375 C 184.0625 -195.945312 183.632812 -193.628906 182.78125 -191.421875 C 181.9375 -189.222656 180.78125 -187.332031 179.3125 -185.75 C 176.039062 -182.25 172.9375 -180.5 170 -180.5 C 165.363281 -180.5 161.460938 -181.289062 158.296875 -182.875 C 160.222656 -187.394531 161.1875 -192.253906 161.1875 -197.453125 C 161.1875 -202.648438 160.023438 -207.988281 157.703125 -213.46875 C 155.390625 -218.945312 152.144531 -223.722656 147.96875 -227.796875 C 139.144531 -236.148438 127.617188 -240.328125 113.390625 -240.328125 C 104.347656 -240.328125 96.945312 -237.5625 91.1875 -232.03125 C 85.757812 -226.832031 83.046875 -220.5625 83.046875 -213.21875 C 83.046875 -207.675781 84.398438 -203.039062 87.109375 -199.3125 C 91.859375 -192.875 99.375 -186.207031 109.65625 -179.3125 L 117.796875 -173.890625 C 122.316406 -171.066406 125.363281 -169.65625 126.9375 -169.65625 C 128.519531 -169.65625 130.101562 -169.820312 131.6875 -170.15625 C 133.269531 -170.5 135.023438 -170.953125 136.953125 -171.515625 C 141.015625 -172.878906 144.96875 -174.800781 148.8125 -177.28125 L 146.609375 -167.796875 C 145.929688 -164.628906 145.59375 -162.3125 145.59375 -160.84375 C 145.59375 -158.46875 146.78125 -156.320312 149.15625 -154.40625 C 170.28125 -136.101562 184.398438 -120.789062 191.515625 -108.46875 C 197.734375 -97.738281 200.84375 -86.15625 200.84375 -73.71875 C 200.84375 -61.289062 198.804688 -50.613281 194.734375 -41.6875 C 190.671875 -32.757812 184.738281 -24.851562 176.9375 -17.96875 C 159.769531 -2.601562 137.457031 5.078125 110 5.078125 C 90.675781 5.078125 73.894531 1.179688 59.65625 -6.609375 Z M 48.140625 -211.859375 C 43.835938 -210.046875 41.6875 -205.359375 41.6875 -197.796875 C 41.6875 -182.316406 52.023438 -165.3125 72.703125 -146.78125 L 82.875 -137.625 C 86.382812 -134.457031 87.941406 -132.023438 87.546875 -130.328125 C 87.148438 -128.640625 86.804688 -127.285156 86.515625 -126.265625 C 86.234375 -125.253906 85.921875 -124.296875 85.578125 -123.390625 C 85.242188 -122.484375 85.019531 -121.804688 84.90625 -121.359375 C 88.863281 -123.722656 92.085938 -124.90625 94.578125 -124.90625 C 99.546875 -124.90625 104.234375 -123.550781 108.640625 -120.84375 C 130.453125 -107.28125 145.253906 -95.191406 153.046875 -84.578125 C 158.691406 -76.773438 161.628906 -67.054688 161.859375 -55.421875 C 161.859375 -51.242188 161.578125 -47.738281 161.015625 -44.90625 C 167.003906 -48.75 170 -54.851562 170 -63.21875 C 170 -71.351562 168.894531 -77.625 166.6875 -82.03125 C 164.488281 -86.4375 161.921875 -90.363281 158.984375 -93.8125 C 156.046875 -97.257812 152.226562 -101.015625 147.53125 -105.078125 C 142.84375 -109.148438 137.054688 -113.554688 130.171875 -118.296875 L 106.09375 -134.734375 C 86.320312 -147.734375 71.296875 -161.460938 61.015625 -175.921875 C 51.972656 -188.691406 47.679688 -200.671875 48.140625 -211.859375 Z M 48.140625 -211.859375 "/></g></g><g transform="translate(217.304427, 426.322257)"><g><path d="M 76.265625 3.390625 C 68.804688 3.390625 62.195312 1.582031 56.4375 -2.03125 C 50.675781 1.582031 45.335938 3.390625 40.421875 3.390625 C 35.503906 3.390625 31.460938 2.960938 28.296875 2.109375 C 25.140625 1.265625 22.375 0.109375 20 -1.359375 C 15.144531 -4.296875 12.71875 -7.96875 12.71875 -12.375 C 12.71875 -14.632812 13.335938 -16.609375 14.578125 -18.296875 C 17.054688 -16.378906 20.21875 -15.421875 24.0625 -15.421875 C 34.125 -15.421875 41.070312 -19.710938 44.90625 -28.296875 L 44.90625 -111.1875 C 44.90625 -116.382812 43.832031 -120.222656 41.6875 -122.703125 C 38.300781 -126.890625 32.484375 -131.015625 24.234375 -135.078125 C 31.921875 -138.578125 36.894531 -141.6875 39.15625 -144.40625 C 42.988281 -148.8125 44.90625 -153.78125 44.90625 -159.3125 L 44.90625 -230.84375 C 41.070312 -239.539062 34.125 -243.890625 24.0625 -243.890625 C 20.21875 -243.890625 17.054688 -242.929688 14.578125 -241.015625 C 13.335938 -242.703125 12.71875 -244.644531 12.71875 -246.84375 C 12.71875 -249.050781 13.363281 -251.113281 14.65625 -253.03125 C 15.957031 -254.957031 17.738281 -256.597656 20 -257.953125 C 25.195312 -261.117188 31.15625 -262.703125 37.875 -262.703125 C 44.601562 -262.703125 50.789062 -260.835938 56.4375 -257.109375 C 62.3125 -260.835938 69.035156 -262.703125 76.609375 -262.703125 C 84.179688 -262.703125 91.070312 -260.5 97.28125 -256.09375 C 109.257812 -260.5 123.101562 -262.703125 138.8125 -262.703125 C 150.445312 -262.703125 160.390625 -261.570312 168.640625 -259.3125 L 183.71875 -255.25 C 185.53125 -254.789062 187.285156 -254.5625 188.984375 -254.5625 C 192.140625 -254.5625 193.71875 -256.820312 193.71875 -261.34375 C 193.71875 -262.476562 193.320312 -264.398438 192.53125 -267.109375 C 195.695312 -267.671875 199.707031 -267.953125 204.5625 -267.953125 C 209.425781 -267.953125 213.550781 -266.34375 216.9375 -263.125 C 220.332031 -259.90625 222.03125 -255.269531 222.03125 -249.21875 C 222.03125 -243.175781 220.957031 -238.742188 218.8125 -235.921875 C 221.863281 -231.398438 223.390625 -225.890625 223.390625 -219.390625 C 223.390625 -212.898438 221.1875 -207.453125 216.78125 -203.046875 C 218.132812 -199.648438 218.8125 -196.34375 218.8125 -193.125 C 218.8125 -189.90625 218.273438 -186.96875 217.203125 -184.3125 C 216.128906 -181.65625 214.800781 -179.425781 213.21875 -177.625 C 210.050781 -174.34375 206.828125 -172.703125 203.546875 -172.703125 C 198.804688 -172.703125 194.515625 -173.722656 190.671875 -175.765625 C 192.023438 -178.472656 192.703125 -182.484375 192.703125 -187.796875 C 192.703125 -200.222656 189.597656 -211.125 183.390625 -220.5 C 174.910156 -233.382812 162.195312 -239.828125 145.25 -239.828125 C 136.664062 -239.828125 128.894531 -237.734375 121.9375 -233.546875 C 114.988281 -229.367188 110.101562 -223.382812 107.28125 -215.59375 L 107.28125 -150 C 111.238281 -147.507812 114.941406 -146.265625 118.390625 -146.265625 C 121.835938 -146.265625 124.4375 -146.320312 126.1875 -146.4375 C 127.9375 -146.550781 129.710938 -146.773438 131.515625 -147.109375 C 136.148438 -147.785156 139.710938 -148.691406 142.203125 -149.828125 C 146.941406 -152.085938 149.3125 -157.625 149.3125 -166.4375 C 149.3125 -171.40625 148.128906 -175.25 145.765625 -177.96875 C 148.023438 -179.539062 150.847656 -180.328125 154.234375 -180.328125 C 161.804688 -180.328125 167.285156 -177.28125 170.671875 -171.1875 C 171.910156 -169.039062 172.53125 -166.664062 172.53125 -164.0625 C 172.53125 -161.46875 171.851562 -158.25 170.5 -154.40625 C 175.132812 -149.09375 177.453125 -142.789062 177.453125 -135.5 C 177.453125 -128.21875 175.132812 -121.921875 170.5 -116.609375 C 171.851562 -112.765625 172.53125 -109.285156 172.53125 -106.171875 C 172.53125 -103.066406 171.910156 -100.101562 170.671875 -97.28125 C 169.429688 -94.457031 167.90625 -92.195312 166.09375 -90.5 C 162.59375 -87.34375 158.640625 -85.765625 154.234375 -85.765625 C 151.066406 -85.765625 148.242188 -86.664062 145.765625 -88.46875 C 148.128906 -92.425781 149.3125 -97.0625 149.3125 -102.375 C 149.3125 -112.875 146.429688 -119.367188 140.671875 -121.859375 C 135.585938 -123.890625 129.769531 -124.90625 123.21875 -124.90625 C 116.664062 -124.90625 111.351562 -123.722656 107.28125 -121.359375 L 107.28125 -36.609375 C 113.832031 -25.085938 126.488281 -19.328125 145.25 -19.328125 C 166.488281 -19.328125 180.953125 -25.878906 188.640625 -38.984375 C 197.566406 -54.015625 202.03125 -70.113281 202.03125 -87.28125 C 202.03125 -92.257812 201.578125 -96.101562 200.671875 -98.8125 C 203.492188 -101.632812 206.429688 -103.046875 209.484375 -103.046875 C 212.535156 -103.046875 214.851562 -102.617188 216.4375 -101.765625 C 218.019531 -100.921875 219.429688 -99.878906 220.671875 -98.640625 C 223.378906 -95.585938 224.734375 -92.476562 224.734375 -89.3125 L 223.71875 -81.015625 C 223.71875 -78.867188 224.285156 -77.117188 225.421875 -75.765625 C 227.679688 -73.390625 228.8125 -71.15625 228.8125 -69.0625 C 228.8125 -66.976562 228.132812 -64.46875 226.78125 -61.53125 C 229.375 -60.0625 231.710938 -57.882812 233.796875 -55 C 235.890625 -52.113281 236.9375 -49.144531 236.9375 -46.09375 C 236.9375 -39.65625 234.226562 -33.894531 228.8125 -28.8125 C 231.175781 -25.425781 232.359375 -20.539062 232.359375 -14.15625 C 232.359375 -7.769531 230.519531 -2.347656 226.84375 2.109375 C 223.175781 6.578125 218.40625 8.8125 212.53125 8.8125 C 209.375 8.8125 206.097656 8.472656 202.703125 7.796875 C 203.160156 5.304688 203.390625 2.820312 203.390625 0.34375 C 203.390625 -4.851562 201.015625 -7.453125 196.265625 -7.453125 C 190.953125 -7.453125 185.640625 -6.378906 180.328125 -4.234375 C 167.785156 0.847656 153.519531 3.390625 137.53125 3.390625 C 121.550781 3.390625 107.96875 1.300781 96.78125 -2.875 C 90.90625 1.300781 84.066406 3.390625 76.265625 3.390625 Z M 61.1875 -44.90625 C 66.832031 -47.0625 69.9375 -54.460938 70.5 -67.109375 C 71.1875 -79.765625 71.53125 -97.28125 71.53125 -119.65625 C 71.53125 -142.03125 71.5 -156.914062 71.4375 -164.3125 C 71.382812 -171.71875 71.300781 -177.679688 71.1875 -182.203125 C 70.84375 -195.535156 69.566406 -203.582031 67.359375 -206.34375 C 65.160156 -209.113281 63.101562 -210.953125 61.1875 -211.859375 C 61.1875 -172.535156 60.507812 -150.160156 59.15625 -144.734375 C 57.570312 -140.222656 53.726562 -137.003906 47.625 -135.078125 C 54.40625 -132.703125 58.25 -129.820312 59.15625 -126.4375 C 60.507812 -121.007812 61.1875 -101.179688 61.1875 -66.953125 Z M 103.890625 -46.609375 C 103.890625 -46.265625 103.945312 -45.984375 104.0625 -45.765625 Z M 103.890625 -46.609375 "/></g></g><g transform="translate(461.534607, 426.322257)"><g><path d="M 95.765625 -2.03125 C 89.992188 1.582031 83.4375 3.390625 76.09375 3.390625 C 68.75 3.390625 62.195312 1.582031 56.4375 -2.03125 C 50.675781 1.582031 45.335938 3.390625 40.421875 3.390625 C 35.503906 3.390625 31.460938 2.960938 28.296875 2.109375 C 25.140625 1.265625 22.375 0.109375 20 -1.359375 C 15.144531 -4.296875 12.71875 -7.96875 12.71875 -12.375 C 12.71875 -14.632812 13.335938 -16.609375 14.578125 -18.296875 C 17.054688 -16.378906 20.21875 -15.421875 24.0625 -15.421875 C 34.125 -15.421875 41.070312 -19.710938 44.90625 -28.296875 L 44.90625 -111.1875 C 44.90625 -116.382812 43.832031 -120.222656 41.6875 -122.703125 C 38.300781 -126.890625 32.484375 -131.015625 24.234375 -135.078125 C 31.921875 -138.578125 36.894531 -141.6875 39.15625 -144.40625 C 42.988281 -148.8125 44.90625 -153.78125 44.90625 -159.3125 L 44.90625 -230.84375 C 41.070312 -239.539062 34.125 -243.890625 24.0625 -243.890625 C 20.21875 -243.890625 17.054688 -242.929688 14.578125 -241.015625 C 13.335938 -242.703125 12.71875 -244.644531 12.71875 -246.84375 C 12.71875 -249.050781 13.363281 -251.113281 14.65625 -253.03125 C 15.957031 -254.957031 17.738281 -256.597656 20 -257.953125 C 25.195312 -261.117188 31.15625 -262.703125 37.875 -262.703125 C 44.601562 -262.703125 50.789062 -260.835938 56.4375 -257.109375 C 62.3125 -260.835938 68.863281 -262.703125 76.09375 -262.703125 C 83.332031 -262.703125 89.890625 -260.835938 95.765625 -257.109375 C 108.523438 -261.972656 122.671875 -264.40625 138.203125 -264.40625 C 153.742188 -264.40625 166.769531 -262.988281 177.28125 -260.15625 C 187.789062 -257.332031 196.832031 -253.320312 204.40625 -248.125 C 219.65625 -237.613281 229.144531 -222.984375 232.875 -204.234375 C 234.34375 -195.867188 239.707031 -189.539062 248.96875 -185.25 C 240.15625 -180.28125 234.394531 -172.367188 231.6875 -161.515625 C 226.15625 -139.148438 212.316406 -125.195312 190.171875 -119.65625 C 201.578125 -116.601562 210.894531 -110.332031 218.125 -100.84375 C 225.582031 -91.007812 229.3125 -79.425781 229.3125 -66.09375 L 229.3125 -49.15625 C 229.3125 -32.882812 234.566406 -22.375 245.078125 -17.625 C 248.242188 -16.15625 251.691406 -15.421875 255.421875 -15.421875 C 259.148438 -15.421875 262.253906 -16.378906 264.734375 -18.296875 C 265.984375 -16.609375 266.609375 -14.660156 266.609375 -12.453125 C 266.609375 -10.253906 266.039062 -8.191406 264.90625 -6.265625 C 263.78125 -4.347656 262.253906 -2.710938 260.328125 -1.359375 C 256.265625 1.804688 251.519531 3.390625 246.09375 3.390625 C 240.664062 3.390625 235.351562 1.921875 230.15625 -1.015625 C 220.664062 4.179688 211.796875 4.691406 203.546875 0.515625 C 200.390625 2.429688 197.054688 3.390625 193.546875 3.390625 C 190.046875 3.390625 186.6875 2.597656 183.46875 1.015625 C 180.25 -0.566406 177.394531 -3.164062 174.90625 -6.78125 C 169.59375 -14.570312 166.9375 -26.546875 166.9375 -42.703125 L 166.9375 -55.25 C 166.9375 -81.351562 159.484375 -98.300781 144.578125 -106.09375 C 139.597656 -108.695312 133.773438 -110 127.109375 -110 L 107.28125 -110 L 107.28125 -27.453125 C 110.332031 -19.429688 116.15625 -15.421875 124.75 -15.421875 C 128.582031 -15.421875 131.742188 -16.378906 134.234375 -18.296875 C 135.472656 -16.609375 136.09375 -14.125 136.09375 -10.84375 C 136.09375 -7.570312 134.3125 -4.378906 130.75 -1.265625 C 127.195312 1.835938 121.859375 3.390625 114.734375 3.390625 C 107.617188 3.390625 101.296875 1.582031 95.765625 -2.03125 Z M 139.828125 -241.859375 C 118.128906 -241.859375 107.28125 -233.441406 107.28125 -216.609375 L 107.28125 -147.28125 C 107.28125 -141.40625 109.597656 -137.453125 114.234375 -135.421875 C 118.640625 -133.492188 125.164062 -132.53125 133.8125 -132.53125 C 142.457031 -132.53125 148.5 -133.007812 151.9375 -133.96875 C 155.382812 -134.9375 158.351562 -136.609375 160.84375 -138.984375 C 165.925781 -143.835938 168.46875 -151.972656 168.46875 -163.390625 L 168.46875 -212.875 C 168.46875 -227 162.59375 -236.039062 150.84375 -240 C 147.34375 -241.238281 143.671875 -241.859375 139.828125 -241.859375 Z M 179.828125 -231.015625 C 183.328125 -223.097656 185.078125 -210.441406 185.078125 -193.046875 C 185.078125 -163.097656 183.664062 -145.1875 180.84375 -139.3125 C 187.0625 -140.5625 191.523438 -148.867188 194.234375 -164.234375 L 195.59375 -171.1875 C 196.832031 -178.53125 200.445312 -183.21875 206.4375 -185.25 C 202.03125 -186.71875 199.203125 -188.46875 197.953125 -190.5 C 196.597656 -192.875 195.382812 -196.914062 194.3125 -202.625 C 193.238281 -208.332031 192.132812 -212.9375 191 -216.4375 C 189.875 -219.9375 188.691406 -222.703125 187.453125 -224.734375 C 185.304688 -228.347656 182.765625 -230.441406 179.828125 -231.015625 Z M 61.1875 -44.90625 C 66.832031 -47.0625 69.9375 -54.460938 70.5 -67.109375 C 71.1875 -79.765625 71.53125 -97.28125 71.53125 -119.65625 C 71.53125 -142.03125 71.5 -156.914062 71.4375 -164.3125 C 71.382812 -171.71875 71.300781 -177.679688 71.1875 -182.203125 C 70.84375 -195.535156 69.566406 -203.582031 67.359375 -206.34375 C 65.160156 -209.113281 63.101562 -210.953125 61.1875 -211.859375 C 61.1875 -172.535156 60.507812 -150.160156 59.15625 -144.734375 C 57.570312 -140.222656 53.726562 -137.003906 47.625 -135.078125 C 54.40625 -132.703125 58.25 -129.820312 59.15625 -126.4375 C 60.507812 -121.007812 61.1875 -101.179688 61.1875 -66.953125 Z M 178.125 -91.359375 C 182.644531 -86.273438 184.90625 -80.054688 184.90625 -72.703125 L 184.90625 -50.34375 C 184.90625 -31.582031 188.632812 -21.582031 196.09375 -20.34375 C 198.125 -20 200.101562 -20.054688 202.03125 -20.515625 C 197.957031 -26.835938 195.921875 -33.5 195.921875 -40.5 L 195.921875 -64.234375 C 195.921875 -73.160156 194.679688 -79.488281 192.203125 -83.21875 C 187.898438 -89.539062 183.207031 -92.253906 178.125 -91.359375 Z M 178.125 -91.359375 "/></g></g><g transform="translate(724.747286, 426.322257)"><g><path d="M 251.015625 -240.15625 C 248.078125 -242.082031 244.570312 -243.046875 240.5 -243.046875 C 232.476562 -243.046875 225.25 -238.640625 218.8125 -229.828125 C 201.632812 -184.066406 192.757812 -159.546875 192.1875 -156.265625 C 191.625 -152.992188 191.34375 -150.625 191.34375 -149.15625 C 191.34375 -142.144531 195.1875 -137.453125 202.875 -135.078125 C 194.507812 -131.691406 188.75 -128.300781 185.59375 -124.90625 C 180.613281 -119.375 176.148438 -110.898438 172.203125 -99.484375 L 141.1875 -14.75 C 135.414062 1.632812 131.175781 10.734375 128.46875 12.546875 C 127.457031 13.109375 126.269531 13.390625 124.90625 13.390625 C 123.550781 13.390625 122.421875 12.992188 121.515625 12.203125 L 66.4375 -111.015625 C 64.175781 -116.328125 61.238281 -120.394531 57.625 -123.21875 C 51.75 -127.738281 44.234375 -131.691406 35.078125 -135.078125 C 44.910156 -140.503906 49.710938 -145.535156 49.484375 -150.171875 C 49.484375 -152.316406 48.582031 -155.757812 46.78125 -160.5 L 17.125 -236.765625 C 11.132812 -240.953125 5.648438 -243.046875 0.671875 -243.046875 C -2.941406 -243.046875 -6.21875 -242.082031 -9.15625 -240.15625 C -10.394531 -241.0625 -11.015625 -242.753906 -11.015625 -245.234375 C -11.015625 -247.722656 -10.617188 -250.015625 -9.828125 -252.109375 C -9.035156 -254.203125 -7.789062 -256.039062 -6.09375 -257.625 C -2.476562 -261.007812 2.710938 -262.703125 9.484375 -262.703125 C 16.265625 -262.703125 22.253906 -260.894531 27.453125 -257.28125 C 33.210938 -260.894531 39.960938 -262.703125 47.703125 -262.703125 C 55.453125 -262.703125 62.148438 -260.953125 67.796875 -257.453125 C 73.785156 -260.953125 79.265625 -262.703125 84.234375 -262.703125 C 89.203125 -262.703125 93.269531 -262.332031 96.4375 -261.59375 C 99.601562 -260.863281 102.375 -259.765625 104.75 -258.296875 C 109.832031 -255.359375 112.484375 -251.289062 112.703125 -246.09375 C 112.703125 -242.925781 112.082031 -240.945312 110.84375 -240.15625 C 107.789062 -242.082031 104.679688 -243.046875 101.515625 -243.046875 C 94.398438 -243.046875 88.863281 -241.691406 84.90625 -238.984375 L 140.5 -80.34375 L 192.703125 -231.34375 C 192.140625 -235.1875 190.644531 -238.238281 188.21875 -240.5 C 185.789062 -242.757812 182.085938 -243.890625 177.109375 -243.890625 C 172.140625 -243.890625 168.015625 -242.929688 164.734375 -241.015625 C 163.609375 -242.703125 163.046875 -245.351562 163.046875 -248.96875 C 163.046875 -252.59375 164.570312 -255.785156 167.625 -258.546875 C 170.675781 -261.316406 174.882812 -262.703125 180.25 -262.703125 C 185.613281 -262.703125 190.390625 -261.40625 194.578125 -258.8125 C 198.191406 -261.40625 202.707031 -262.703125 208.125 -262.703125 C 213.550781 -262.703125 218.015625 -261.457031 221.515625 -258.96875 C 226.492188 -261.457031 231.46875 -262.703125 236.4375 -262.703125 C 241.40625 -262.703125 245.382812 -261.09375 248.375 -257.875 C 251.375 -254.65625 252.875 -250.503906 252.875 -245.421875 C 252.875 -242.816406 252.253906 -241.0625 251.015625 -240.15625 Z M 192.53125 -224.0625 C 192.3125 -223.382812 192.203125 -222.929688 192.203125 -222.703125 Z M 54.578125 -211.859375 C 52.085938 -210.046875 50.84375 -207.695312 50.84375 -204.8125 C 50.84375 -201.9375 50.925781 -199.765625 51.09375 -198.296875 C 51.269531 -196.828125 51.695312 -194.929688 52.375 -192.609375 C 53.050781 -190.296875 54.066406 -187.332031 55.421875 -183.71875 L 64.75 -159.65625 C 67.007812 -153.78125 68.25 -149.375 68.46875 -146.4375 C 69.03125 -141.46875 65.867188 -137.679688 58.984375 -135.078125 C 63.617188 -134.171875 67.429688 -133.066406 70.421875 -131.765625 C 73.410156 -130.472656 76.09375 -127.253906 78.46875 -122.109375 C 80.84375 -116.972656 83.953125 -109.601562 87.796875 -100 L 102.03125 -65.421875 C 106.320312 -54.910156 111.066406 -48.582031 116.265625 -46.4375 C 117.734375 -45.757812 119.203125 -45.25 120.671875 -44.90625 Z M 54.578125 -211.859375 "/></g></g><g transform="translate(964.909788, 426.322257)"><g><path d="M 76.265625 3.390625 C 68.804688 3.390625 62.195312 1.582031 56.4375 -2.03125 C 50.675781 1.582031 45.335938 3.390625 40.421875 3.390625 C 35.503906 3.390625 31.460938 2.960938 28.296875 2.109375 C 25.140625 1.265625 22.375 0.109375 20 -1.359375 C 15.144531 -4.296875 12.71875 -7.96875 12.71875 -12.375 C 12.71875 -14.632812 13.335938 -16.609375 14.578125 -18.296875 C 17.054688 -16.378906 20.21875 -15.421875 24.0625 -15.421875 C 34.125 -15.421875 41.070312 -19.710938 44.90625 -28.296875 L 44.90625 -111.1875 C 44.90625 -116.382812 43.832031 -120.222656 41.6875 -122.703125 C 38.300781 -126.890625 32.484375 -131.015625 24.234375 -135.078125 C 31.921875 -138.578125 36.894531 -141.6875 39.15625 -144.40625 C 42.988281 -148.8125 44.90625 -153.78125 44.90625 -159.3125 L 44.90625 -230.84375 C 41.070312 -239.539062 34.125 -243.890625 24.0625 -243.890625 C 20.21875 -243.890625 17.054688 -242.929688 14.578125 -241.015625 C 13.335938 -242.703125 12.71875 -244.644531 12.71875 -246.84375 C 12.71875 -249.050781 13.363281 -251.113281 14.65625 -253.03125 C 15.957031 -254.957031 17.738281 -256.597656 20 -257.953125 C 25.195312 -261.117188 31.15625 -262.703125 37.875 -262.703125 C 44.601562 -262.703125 50.789062 -260.835938 56.4375 -257.109375 C 62.3125 -260.835938 69.035156 -262.703125 76.609375 -262.703125 C 84.179688 -262.703125 91.070312 -260.5 97.28125 -256.09375 C 109.257812 -260.5 123.101562 -262.703125 138.8125 -262.703125 C 150.445312 -262.703125 160.390625 -261.570312 168.640625 -259.3125 L 183.71875 -255.25 C 185.53125 -254.789062 187.285156 -254.5625 188.984375 -254.5625 C 192.140625 -254.5625 193.71875 -256.820312 193.71875 -261.34375 C 193.71875 -262.476562 193.320312 -264.398438 192.53125 -267.109375 C 195.695312 -267.671875 199.707031 -267.953125 204.5625 -267.953125 C 209.425781 -267.953125 213.550781 -266.34375 216.9375 -263.125 C 220.332031 -259.90625 222.03125 -255.269531 222.03125 -249.21875 C 222.03125 -243.175781 220.957031 -238.742188 218.8125 -235.921875 C 221.863281 -231.398438 223.390625 -225.890625 223.390625 -219.390625 C 223.390625 -212.898438 221.1875 -207.453125 216.78125 -203.046875 C 218.132812 -199.648438 218.8125 -196.34375 218.8125 -193.125 C 218.8125 -189.90625 218.273438 -186.96875 217.203125 -184.3125 C 216.128906 -181.65625 214.800781 -179.425781 213.21875 -177.625 C 210.050781 -174.34375 206.828125 -172.703125 203.546875 -172.703125 C 198.804688 -172.703125 194.515625 -173.722656 190.671875 -175.765625 C 192.023438 -178.472656 192.703125 -182.484375 192.703125 -187.796875 C 192.703125 -200.222656 189.597656 -211.125 183.390625 -220.5 C 174.910156 -233.382812 162.195312 -239.828125 145.25 -239.828125 C 136.664062 -239.828125 128.894531 -237.734375 121.9375 -233.546875 C 114.988281 -229.367188 110.101562 -223.382812 107.28125 -215.59375 L 107.28125 -150 C 111.238281 -147.507812 114.941406 -146.265625 118.390625 -146.265625 C 121.835938 -146.265625 124.4375 -146.320312 126.1875 -146.4375 C 127.9375 -146.550781 129.710938 -146.773438 131.515625 -147.109375 C 136.148438 -147.785156 139.710938 -148.691406 142.203125 -149.828125 C 146.941406 -152.085938 149.3125 -157.625 149.3125 -166.4375 C 149.3125 -171.40625 148.128906 -175.25 145.765625 -177.96875 C 148.023438 -179.539062 150.847656 -180.328125 154.234375 -180.328125 C 161.804688 -180.328125 167.285156 -177.28125 170.671875 -171.1875 C 171.910156 -169.039062 172.53125 -166.664062 172.53125 -164.0625 C 172.53125 -161.46875 171.851562 -158.25 170.5 -154.40625 C 175.132812 -149.09375 177.453125 -142.789062 177.453125 -135.5 C 177.453125 -128.21875 175.132812 -121.921875 170.5 -116.609375 C 171.851562 -112.765625 172.53125 -109.285156 172.53125 -106.171875 C 172.53125 -103.066406 171.910156 -100.101562 170.671875 -97.28125 C 169.429688 -94.457031 167.90625 -92.195312 166.09375 -90.5 C 162.59375 -87.34375 158.640625 -85.765625 154.234375 -85.765625 C 151.066406 -85.765625 148.242188 -86.664062 145.765625 -88.46875 C 148.128906 -92.425781 149.3125 -97.0625 149.3125 -102.375 C 149.3125 -112.875 146.429688 -119.367188 140.671875 -121.859375 C 135.585938 -123.890625 129.769531 -124.90625 123.21875 -124.90625 C 116.664062 -124.90625 111.351562 -123.722656 107.28125 -121.359375 L 107.28125 -36.609375 C 113.832031 -25.085938 126.488281 -19.328125 145.25 -19.328125 C 166.488281 -19.328125 180.953125 -25.878906 188.640625 -38.984375 C 197.566406 -54.015625 202.03125 -70.113281 202.03125 -87.28125 C 202.03125 -92.257812 201.578125 -96.101562 200.671875 -98.8125 C 203.492188 -101.632812 206.429688 -103.046875 209.484375 -103.046875 C 212.535156 -103.046875 214.851562 -102.617188 216.4375 -101.765625 C 218.019531 -100.921875 219.429688 -99.878906 220.671875 -98.640625 C 223.378906 -95.585938 224.734375 -92.476562 224.734375 -89.3125 L 223.71875 -81.015625 C 223.71875 -78.867188 224.285156 -77.117188 225.421875 -75.765625 C 227.679688 -73.390625 228.8125 -71.15625 228.8125 -69.0625 C 228.8125 -66.976562 228.132812 -64.46875 226.78125 -61.53125 C 229.375 -60.0625 231.710938 -57.882812 233.796875 -55 C 235.890625 -52.113281 236.9375 -49.144531 236.9375 -46.09375 C 236.9375 -39.65625 234.226562 -33.894531 228.8125 -28.8125 C 231.175781 -25.425781 232.359375 -20.539062 232.359375 -14.15625 C 232.359375 -7.769531 230.519531 -2.347656 226.84375 2.109375 C 223.175781 6.578125 218.40625 8.8125 212.53125 8.8125 C 209.375 8.8125 206.097656 8.472656 202.703125 7.796875 C 203.160156 5.304688 203.390625 2.820312 203.390625 0.34375 C 203.390625 -4.851562 201.015625 -7.453125 196.265625 -7.453125 C 190.953125 -7.453125 185.640625 -6.378906 180.328125 -4.234375 C 167.785156 0.847656 153.519531 3.390625 137.53125 3.390625 C 121.550781 3.390625 107.96875 1.300781 96.78125 -2.875 C 90.90625 1.300781 84.066406 3.390625 76.265625 3.390625 Z M 61.1875 -44.90625 C 66.832031 -47.0625 69.9375 -54.460938 70.5 -67.109375 C 71.1875 -79.765625 71.53125 -97.28125 71.53125 -119.65625 C 71.53125 -142.03125 71.5 -156.914062 71.4375 -164.3125 C 71.382812 -171.71875 71.300781 -177.679688 71.1875 -182.203125 C 70.84375 -195.535156 69.566406 -203.582031 67.359375 -206.34375 C 65.160156 -209.113281 63.101562 -210.953125 61.1875 -211.859375 C 61.1875 -172.535156 60.507812 -150.160156 59.15625 -144.734375 C 57.570312 -140.222656 53.726562 -137.003906 47.625 -135.078125 C 54.40625 -132.703125 58.25 -129.820312 59.15625 -126.4375 C 60.507812 -121.007812 61.1875 -101.179688 61.1875 -66.953125 Z M 103.890625 -46.609375 C 103.890625 -46.265625 103.945312 -45.984375 104.0625 -45.765625 Z M 103.890625 -46.609375 "/></g></g><g transform="translate(1209.139968, 426.322257)"><g><path d="M 43.21875 -1.1875 C 39.039062 1.863281 34.265625 3.390625 28.890625 3.390625 C 23.523438 3.390625 19.234375 2.003906 16.015625 -0.765625 C 12.796875 -3.535156 11.1875 -6.726562 11.1875 -10.34375 C 11.1875 -13.957031 11.75 -16.609375 12.875 -18.296875 C 16.15625 -16.378906 21.351562 -15.421875 28.46875 -15.421875 C 31.300781 -15.421875 34.410156 -16.859375 37.796875 -19.734375 C 41.179688 -22.617188 43.894531 -26.601562 45.9375 -31.6875 L 45.9375 -111.1875 C 45.9375 -116.5 44.804688 -120.453125 42.546875 -123.046875 C 39.148438 -127.117188 33.382812 -131.128906 25.25 -135.078125 C 33.5 -139.035156 38.695312 -142.3125 40.84375 -144.90625 C 44.238281 -149.207031 45.9375 -154.007812 45.9375 -159.3125 L 46.09375 -233.21875 C 43.382812 -240.332031 37.398438 -243.890625 28.140625 -243.890625 C 23.390625 -243.890625 19.882812 -242.929688 17.625 -241.015625 C 16.5 -242.484375 15.9375 -244.398438 15.9375 -246.765625 C 15.9375 -249.140625 16.441406 -251.285156 17.453125 -253.203125 C 18.472656 -255.128906 19.882812 -256.828125 21.6875 -258.296875 C 25.53125 -261.234375 30.671875 -262.703125 37.109375 -262.703125 C 43.554688 -262.703125 48.867188 -260.835938 53.046875 -257.109375 C 56.773438 -260.835938 61.125 -262.703125 66.09375 -262.703125 C 71.070312 -262.703125 75.3125 -260.613281 78.8125 -256.4375 C 83.21875 -260.613281 87.113281 -262.703125 90.5 -262.703125 C 93.894531 -262.703125 96.492188 -262.421875 98.296875 -261.859375 C 100.109375 -261.296875 101.914062 -260.222656 103.71875 -258.640625 C 107.34375 -255.816406 111.128906 -250.109375 115.078125 -241.515625 L 180 -106.78125 L 233.546875 -238.8125 L 238.296875 -249.828125 C 241.117188 -256.035156 243.773438 -259.734375 246.265625 -260.921875 C 248.753906 -262.109375 251.664062 -262.703125 255 -262.703125 C 258.332031 -262.703125 261.75 -261.457031 265.25 -258.96875 C 269.539062 -261.457031 275.160156 -262.703125 282.109375 -262.703125 C 289.054688 -262.703125 295.070312 -260.835938 300.15625 -257.109375 C 304.675781 -260.835938 309.394531 -262.703125 314.3125 -262.703125 C 319.226562 -262.703125 323.066406 -262.304688 325.828125 -261.515625 C 328.597656 -260.722656 331.003906 -259.648438 333.046875 -258.296875 C 337.335938 -255.242188 339.484375 -251.457031 339.484375 -246.9375 C 339.484375 -244.675781 338.863281 -242.703125 337.625 -241.015625 C 335.132812 -242.929688 331.96875 -243.890625 328.125 -243.890625 C 319.539062 -243.890625 313.722656 -239.878906 310.671875 -231.859375 L 310.671875 -159.3125 C 310.671875 -153.78125 311.859375 -149.65625 314.234375 -146.9375 C 317.960938 -142.53125 323.664062 -138.578125 331.34375 -135.078125 C 323.09375 -131.015625 317.835938 -127.679688 315.578125 -125.078125 C 312.304688 -121.015625 310.671875 -116.382812 310.671875 -111.1875 L 310.671875 -28.296875 C 314.515625 -19.710938 321.460938 -15.421875 331.515625 -15.421875 C 335.359375 -15.421875 338.523438 -16.378906 341.015625 -18.296875 C 342.253906 -16.609375 342.875 -14.660156 342.875 -12.453125 C 342.875 -10.253906 342.222656 -8.191406 340.921875 -6.265625 C 339.617188 -4.347656 337.835938 -2.710938 335.578125 -1.359375 C 330.378906 1.804688 324.445312 3.390625 317.78125 3.390625 C 311.113281 3.390625 304.898438 1.582031 299.140625 -2.03125 C 293.828125 1.582031 287.785156 3.390625 281.015625 3.390625 C 273.773438 3.390625 267.390625 1.582031 261.859375 -2.03125 C 256.097656 1.582031 250.757812 3.390625 245.84375 3.390625 C 240.925781 3.390625 236.882812 2.960938 233.71875 2.109375 C 230.5625 1.265625 227.796875 0.109375 225.421875 -1.359375 C 220.554688 -4.296875 218.125 -7.96875 218.125 -12.375 C 218.125 -14.632812 218.75 -16.609375 220 -18.296875 C 222.476562 -16.378906 225.640625 -15.421875 229.484375 -15.421875 C 239.535156 -15.421875 246.484375 -19.710938 250.328125 -28.296875 L 250.328125 -213.546875 L 184.234375 -49.828125 L 176.9375 -33.21875 C 173.4375 -25.3125 170.976562 -20.847656 169.5625 -19.828125 C 168.15625 -18.804688 167 -18.296875 166.09375 -18.296875 C 163.269531 -18.296875 161.296875 -18.582031 160.171875 -19.15625 L 69.65625 -197.625 L 69.65625 -31.859375 C 71.800781 -26.660156 74.738281 -22.617188 78.46875 -19.734375 C 82.195312 -16.859375 86.378906 -15.421875 91.015625 -15.421875 C 95.648438 -15.421875 99.601562 -16.378906 102.875 -18.296875 C 104.125 -16.265625 104.75 -13.46875 104.75 -9.90625 C 104.75 -6.351562 102.992188 -3.25 99.484375 -0.59375 C 95.984375 2.0625 91.460938 3.390625 85.921875 3.390625 C 80.390625 3.390625 75.304688 1.976562 70.671875 -0.84375 C 66.609375 1.976562 61.945312 3.390625 56.6875 3.390625 C 51.4375 3.390625 46.945312 1.863281 43.21875 -1.1875 Z M 93.5625 -212.03125 C 92.425781 -210.332031 91.859375 -207.898438 91.859375 -204.734375 C 91.859375 -195.585938 95.703125 -183.441406 103.390625 -168.296875 L 165.078125 -45.078125 C 165.867188 -46.097656 166.265625 -48.25 166.265625 -51.53125 C 166.265625 -61.351562 161.578125 -75.757812 152.203125 -94.75 Z M 266.609375 -44.90625 C 272.253906 -47.0625 275.359375 -54.460938 275.921875 -67.109375 C 276.597656 -79.765625 276.9375 -97.28125 276.9375 -119.65625 C 276.9375 -142.03125 276.90625 -156.914062 276.84375 -164.3125 C 276.789062 -171.71875 276.710938 -177.679688 276.609375 -182.203125 C 276.265625 -195.535156 274.988281 -203.582031 272.78125 -206.34375 C 270.582031 -209.113281 268.523438 -210.953125 266.609375 -211.859375 Z M 67.28125 -42.703125 C 67.28125 -41.804688 67.335938 -41.128906 67.453125 -40.671875 Z M 48.296875 -42.703125 C 48.191406 -42.253906 48.140625 -41.578125 48.140625 -40.671875 Z M 48.296875 -42.703125 "/></g></g><g transform="translate(1564.044895, 426.322257)"><g/></g><g transform="translate(1648.788193, 426.322257)"><g><path d="M 95.765625 -2.203125 C 89.890625 1.523438 83.304688 3.390625 76.015625 3.390625 C 68.722656 3.390625 62.195312 1.582031 56.4375 -2.03125 C 50.675781 1.582031 45.335938 3.390625 40.421875 3.390625 C 35.503906 3.390625 31.460938 2.960938 28.296875 2.109375 C 25.140625 1.265625 22.375 0.109375 20 -1.359375 C 15.144531 -4.296875 12.71875 -7.96875 12.71875 -12.375 C 12.71875 -14.632812 13.335938 -16.609375 14.578125 -18.296875 C 17.054688 -16.378906 20.21875 -15.421875 24.0625 -15.421875 C 34.125 -15.421875 41.070312 -19.710938 44.90625 -28.296875 L 44.90625 -111.1875 C 44.90625 -116.382812 43.832031 -120.222656 41.6875 -122.703125 C 38.300781 -126.890625 32.484375 -131.015625 24.234375 -135.078125 C 31.921875 -138.578125 36.894531 -141.6875 39.15625 -144.40625 C 42.988281 -148.8125 44.90625 -153.78125 44.90625 -159.3125 L 44.90625 -230.84375 C 41.070312 -239.539062 34.125 -243.890625 24.0625 -243.890625 C 20.21875 -243.890625 17.054688 -242.929688 14.578125 -241.015625 C 13.335938 -242.703125 12.71875 -244.644531 12.71875 -246.84375 C 12.71875 -249.050781 13.363281 -251.113281 14.65625 -253.03125 C 15.957031 -254.957031 17.738281 -256.597656 20 -257.953125 C 25.195312 -261.117188 31.15625 -262.703125 37.875 -262.703125 C 44.601562 -262.703125 50.789062 -260.835938 56.4375 -257.109375 C 62.3125 -260.835938 68.835938 -262.703125 76.015625 -262.703125 C 83.191406 -262.703125 89.660156 -260.894531 95.421875 -257.28125 C 106.609375 -262.03125 119.234375 -264.40625 133.296875 -264.40625 C 147.367188 -264.40625 159.546875 -262.765625 169.828125 -259.484375 C 180.109375 -256.203125 189.375 -251.625 197.625 -245.75 C 214.800781 -233.550781 226.15625 -217.453125 231.6875 -197.453125 C 233.945312 -189.648438 239.316406 -183.265625 247.796875 -178.296875 C 239.085938 -173.441406 233.265625 -166.097656 230.328125 -156.265625 C 227.390625 -146.429688 222.503906 -137.304688 215.671875 -128.890625 C 208.835938 -120.472656 201.015625 -113.441406 192.203125 -107.796875 C 174.234375 -96.265625 155.132812 -90.5 134.90625 -90.5 C 126.09375 -90.5 116.882812 -91.628906 107.28125 -93.890625 L 107.28125 -29.15625 C 110.332031 -22.601562 116.601562 -18.304688 126.09375 -16.265625 C 128.582031 -15.703125 131.351562 -15.421875 134.40625 -15.421875 C 137.457031 -15.421875 140.222656 -16.378906 142.703125 -18.296875 C 143.953125 -16.609375 144.578125 -14.660156 144.578125 -12.453125 C 144.578125 -10.253906 143.753906 -8.191406 142.109375 -6.265625 C 140.472656 -4.347656 138.300781 -2.710938 135.59375 -1.359375 C 129.601562 1.804688 123.046875 3.390625 115.921875 3.390625 C 108.804688 3.390625 102.085938 1.523438 95.765625 -2.203125 Z M 107.28125 -138.125 C 107.28125 -130.445312 110.109375 -124.289062 115.765625 -119.65625 C 120.960938 -115.363281 127.628906 -113.21875 135.765625 -113.21875 C 148.191406 -113.21875 157.171875 -117.960938 162.703125 -127.453125 C 164.628906 -130.734375 165.59375 -134.742188 165.59375 -139.484375 L 165.59375 -216.09375 C 165.59375 -224.226562 162.484375 -230.613281 156.265625 -235.25 C 150.617188 -239.539062 145 -241.6875 139.40625 -241.6875 C 133.8125 -241.6875 129.234375 -241.148438 125.671875 -240.078125 C 122.109375 -239.003906 118.972656 -237.394531 116.265625 -235.25 C 110.273438 -230.5 107.28125 -223.890625 107.28125 -215.421875 Z M 176.609375 -120.671875 C 179.203125 -121.128906 181.882812 -124.296875 184.65625 -130.171875 C 187.425781 -136.046875 189.515625 -142.960938 190.921875 -150.921875 C 192.335938 -158.890625 194.117188 -164.765625 196.265625 -168.546875 C 198.410156 -172.335938 201.859375 -175.023438 206.609375 -176.609375 C 198.804688 -179.203125 193.890625 -186.117188 191.859375 -197.359375 C 189.828125 -208.609375 187.425781 -216.882812 184.65625 -222.1875 C 181.882812 -227.5 179.203125 -230.382812 176.609375 -230.84375 C 180.785156 -221.46875 182.875 -203.390625 182.875 -176.609375 C 182.875 -158.753906 181.96875 -145.304688 180.15625 -136.265625 C 178.351562 -127.222656 177.171875 -122.023438 176.609375 -120.671875 Z M 61.1875 -44.90625 C 66.832031 -47.0625 69.9375 -54.460938 70.5 -67.109375 C 71.1875 -79.765625 71.53125 -97.28125 71.53125 -119.65625 C 71.53125 -142.03125 71.5 -156.914062 71.4375 -164.3125 C 71.382812 -171.71875 71.300781 -177.679688 71.1875 -182.203125 C 70.84375 -195.535156 69.566406 -203.582031 67.359375 -206.34375 C 65.160156 -209.113281 63.101562 -210.953125 61.1875 -211.859375 C 61.1875 -172.535156 60.507812 -150.160156 59.15625 -144.734375 C 57.570312 -140.222656 53.726562 -137.003906 47.625 -135.078125 C 54.40625 -132.703125 58.25 -129.820312 59.15625 -126.4375 C 60.507812 -121.007812 61.1875 -101.179688 61.1875 -66.953125 Z M 61.1875 -44.90625 "/></g></g><g transform="translate(1890.137102, 426.322257)"><g><path d="M 76.265625 3.390625 C 68.804688 3.390625 62.195312 1.582031 56.4375 -2.03125 C 50.675781 1.582031 45.335938 3.390625 40.421875 3.390625 C 35.503906 3.390625 31.460938 2.960938 28.296875 2.109375 C 25.140625 1.265625 22.375 0.109375 20 -1.359375 C 15.144531 -4.296875 12.71875 -7.96875 12.71875 -12.375 C 12.71875 -14.632812 13.335938 -16.609375 14.578125 -18.296875 C 17.054688 -16.378906 20.21875 -15.421875 24.0625 -15.421875 C 34.125 -15.421875 41.070312 -19.710938 44.90625 -28.296875 L 44.90625 -111.1875 C 44.90625 -116.382812 43.832031 -120.222656 41.6875 -122.703125 C 38.300781 -126.890625 32.484375 -131.015625 24.234375 -135.078125 C 31.921875 -138.578125 36.894531 -141.6875 39.15625 -144.40625 C 42.988281 -148.8125 44.90625 -153.78125 44.90625 -159.3125 L 44.90625 -230.84375 C 41.070312 -239.539062 34.125 -243.890625 24.0625 -243.890625 C 20.21875 -243.890625 17.054688 -242.929688 14.578125 -241.015625 C 13.335938 -242.703125 12.71875 -244.644531 12.71875 -246.84375 C 12.71875 -249.050781 13.363281 -251.113281 14.65625 -253.03125 C 15.957031 -254.957031 17.738281 -256.597656 20 -257.953125 C 25.195312 -261.117188 31.15625 -262.703125 37.875 -262.703125 C 44.601562 -262.703125 50.789062 -260.835938 56.4375 -257.109375 C 62.3125 -260.835938 69.035156 -262.703125 76.609375 -262.703125 C 84.179688 -262.703125 91.070312 -260.5 97.28125 -256.09375 C 109.257812 -260.5 123.101562 -262.703125 138.8125 -262.703125 C 150.445312 -262.703125 160.390625 -261.570312 168.640625 -259.3125 L 183.71875 -255.25 C 185.53125 -254.789062 187.285156 -254.5625 188.984375 -254.5625 C 192.140625 -254.5625 193.71875 -256.820312 193.71875 -261.34375 C 193.71875 -262.476562 193.320312 -264.398438 192.53125 -267.109375 C 195.695312 -267.671875 199.707031 -267.953125 204.5625 -267.953125 C 209.425781 -267.953125 213.550781 -266.34375 216.9375 -263.125 C 220.332031 -259.90625 222.03125 -255.269531 222.03125 -249.21875 C 222.03125 -243.175781 220.957031 -238.742188 218.8125 -235.921875 C 221.863281 -231.398438 223.390625 -225.890625 223.390625 -219.390625 C 223.390625 -212.898438 221.1875 -207.453125 216.78125 -203.046875 C 218.132812 -199.648438 218.8125 -196.34375 218.8125 -193.125 C 218.8125 -189.90625 218.273438 -186.96875 217.203125 -184.3125 C 216.128906 -181.65625 214.800781 -179.425781 213.21875 -177.625 C 210.050781 -174.34375 206.828125 -172.703125 203.546875 -172.703125 C 198.804688 -172.703125 194.515625 -173.722656 190.671875 -175.765625 C 192.023438 -178.472656 192.703125 -182.484375 192.703125 -187.796875 C 192.703125 -200.222656 189.597656 -211.125 183.390625 -220.5 C 174.910156 -233.382812 162.195312 -239.828125 145.25 -239.828125 C 136.664062 -239.828125 128.894531 -237.734375 121.9375 -233.546875 C 114.988281 -229.367188 110.101562 -223.382812 107.28125 -215.59375 L 107.28125 -150 C 111.238281 -147.507812 114.941406 -146.265625 118.390625 -146.265625 C 121.835938 -146.265625 124.4375 -146.320312 126.1875 -146.4375 C 127.9375 -146.550781 129.710938 -146.773438 131.515625 -147.109375 C 136.148438 -147.785156 139.710938 -148.691406 142.203125 -149.828125 C 146.941406 -152.085938 149.3125 -157.625 149.3125 -166.4375 C 149.3125 -171.40625 148.128906 -175.25 145.765625 -177.96875 C 148.023438 -179.539062 150.847656 -180.328125 154.234375 -180.328125 C 161.804688 -180.328125 167.285156 -177.28125 170.671875 -171.1875 C 171.910156 -169.039062 172.53125 -166.664062 172.53125 -164.0625 C 172.53125 -161.46875 171.851562 -158.25 170.5 -154.40625 C 175.132812 -149.09375 177.453125 -142.789062 177.453125 -135.5 C 177.453125 -128.21875 175.132812 -121.921875 170.5 -116.609375 C 171.851562 -112.765625 172.53125 -109.285156 172.53125 -106.171875 C 172.53125 -103.066406 171.910156 -100.101562 170.671875 -97.28125 C 169.429688 -94.457031 167.90625 -92.195312 166.09375 -90.5 C 162.59375 -87.34375 158.640625 -85.765625 154.234375 -85.765625 C 151.066406 -85.765625 148.242188 -86.664062 145.765625 -88.46875 C 148.128906 -92.425781 149.3125 -97.0625 149.3125 -102.375 C 149.3125 -112.875 146.429688 -119.367188 140.671875 -121.859375 C 135.585938 -123.890625 129.769531 -124.90625 123.21875 -124.90625 C 116.664062 -124.90625 111.351562 -123.722656 107.28125 -121.359375 L 107.28125 -36.609375 C 113.832031 -25.085938 126.488281 -19.328125 145.25 -19.328125 C 166.488281 -19.328125 180.953125 -25.878906 188.640625 -38.984375 C 197.566406 -54.015625 202.03125 -70.113281 202.03125 -87.28125 C 202.03125 -92.257812 201.578125 -96.101562 200.671875 -98.8125 C 203.492188 -101.632812 206.429688 -103.046875 209.484375 -103.046875 C 212.535156 -103.046875 214.851562 -102.617188 216.4375 -101.765625 C 218.019531 -100.921875 219.429688 -99.878906 220.671875 -98.640625 C 223.378906 -95.585938 224.734375 -92.476562 224.734375 -89.3125 L 223.71875 -81.015625 C 223.71875 -78.867188 224.285156 -77.117188 225.421875 -75.765625 C 227.679688 -73.390625 228.8125 -71.15625 228.8125 -69.0625 C 228.8125 -66.976562 228.132812 -64.46875 226.78125 -61.53125 C 229.375 -60.0625 231.710938 -57.882812 233.796875 -55 C 235.890625 -52.113281 236.9375 -49.144531 236.9375 -46.09375 C 236.9375 -39.65625 234.226562 -33.894531 228.8125 -28.8125 C 231.175781 -25.425781 232.359375 -20.539062 232.359375 -14.15625 C 232.359375 -7.769531 230.519531 -2.347656 226.84375 2.109375 C 223.175781 6.578125 218.40625 8.8125 212.53125 8.8125 C 209.375 8.8125 206.097656 8.472656 202.703125 7.796875 C 203.160156 5.304688 203.390625 2.820312 203.390625 0.34375 C 203.390625 -4.851562 201.015625 -7.453125 196.265625 -7.453125 C 190.953125 -7.453125 185.640625 -6.378906 180.328125 -4.234375 C 167.785156 0.847656 153.519531 3.390625 137.53125 3.390625 C 121.550781 3.390625 107.96875 1.300781 96.78125 -2.875 C 90.90625 1.300781 84.066406 3.390625 76.265625 3.390625 Z M 61.1875 -44.90625 C 66.832031 -47.0625 69.9375 -54.460938 70.5 -67.109375 C 71.1875 -79.765625 71.53125 -97.28125 71.53125 -119.65625 C 71.53125 -142.03125 71.5 -156.914062 71.4375 -164.3125 C 71.382812 -171.71875 71.300781 -177.679688 71.1875 -182.203125 C 70.84375 -195.535156 69.566406 -203.582031 67.359375 -206.34375 C 65.160156 -209.113281 63.101562 -210.953125 61.1875 -211.859375 C 61.1875 -172.535156 60.507812 -150.160156 59.15625 -144.734375 C 57.570312 -140.222656 53.726562 -137.003906 47.625 -135.078125 C 54.40625 -132.703125 58.25 -129.820312 59.15625 -126.4375 C 60.507812 -121.007812 61.1875 -101.179688 61.1875 -66.953125 Z M 103.890625 -46.609375 C 103.890625 -46.265625 103.945312 -45.984375 104.0625 -45.765625 Z M 103.890625 -46.609375 "/></g></g><g transform="translate(2134.367282, 426.322257)"><g><path d="M 147.625 -2.203125 C 141.75 1.523438 135.222656 3.390625 128.046875 3.390625 C 120.867188 3.390625 114.226562 1.523438 108.125 -2.203125 C 101.914062 1.523438 96.210938 3.390625 91.015625 3.390625 C 85.816406 3.390625 81.632812 2.960938 78.46875 2.109375 C 75.3125 1.265625 72.546875 0.109375 70.171875 -1.359375 C 65.304688 -4.296875 62.875 -7.96875 62.875 -12.375 C 62.875 -14.632812 63.5 -16.609375 64.75 -18.296875 C 67.226562 -16.378906 70.53125 -15.421875 74.65625 -15.421875 C 78.78125 -15.421875 82.960938 -16.492188 87.203125 -18.640625 C 91.441406 -20.785156 94.632812 -24.117188 96.78125 -28.640625 L 96.78125 -111.1875 C 96.78125 -116.382812 95.707031 -120.222656 93.5625 -122.703125 C 90.164062 -126.890625 84.34375 -131.015625 76.09375 -135.078125 C 83.78125 -138.578125 88.753906 -141.6875 91.015625 -144.40625 C 94.859375 -148.8125 96.78125 -153.78125 96.78125 -159.3125 L 96.78125 -237.953125 C 93.050781 -239.316406 88.613281 -240 83.46875 -240 C 78.332031 -240 72.9375 -238.640625 67.28125 -235.921875 C 61.632812 -233.210938 56.550781 -229.257812 52.03125 -224.0625 C 41.976562 -212.3125 36.953125 -196.945312 36.953125 -177.96875 C 36.953125 -167 38.757812 -158.914062 42.375 -153.71875 C 41.019531 -150.894531 38.476562 -149.484375 34.75 -149.484375 C 31.019531 -149.484375 27.6875 -150.332031 24.75 -152.03125 C 21.8125 -153.726562 19.269531 -156.046875 17.125 -158.984375 C 12.71875 -164.859375 10.515625 -171.179688 10.515625 -177.953125 C 10.515625 -184.734375 11.753906 -190.5 14.234375 -195.25 C 10.054688 -200.21875 7.96875 -205.835938 7.96875 -212.109375 C 7.96875 -218.378906 9.660156 -223.550781 13.046875 -227.625 C 8.304688 -232.707031 5.9375 -239.539062 5.9375 -248.125 C 5.9375 -258.070312 10.507812 -264.738281 19.65625 -268.125 C 22.375 -269.144531 24.75 -269.65625 26.78125 -269.65625 C 30.625 -269.65625 33.503906 -268.804688 35.421875 -267.109375 C 34.628906 -264.398438 34.234375 -262.476562 34.234375 -261.34375 C 34.234375 -256.820312 35.816406 -254.5625 38.984375 -254.5625 C 40.679688 -254.5625 42.429688 -254.789062 44.234375 -255.25 L 51.859375 -257.453125 C 65.078125 -260.953125 76.09375 -262.703125 84.90625 -262.703125 C 93.726562 -262.703125 101.46875 -260.78125 108.125 -256.9375 C 113.894531 -260.78125 120.453125 -262.703125 127.796875 -262.703125 C 135.140625 -262.703125 141.804688 -260.78125 147.796875 -256.9375 C 154.234375 -260.78125 160.898438 -262.703125 167.796875 -262.703125 C 178.753906 -262.703125 188.359375 -261.570312 196.609375 -259.3125 L 211.6875 -255.25 C 213.5 -254.789062 215.25 -254.5625 216.9375 -254.5625 C 220.101562 -254.5625 221.6875 -256.820312 221.6875 -261.34375 C 221.6875 -262.476562 221.289062 -264.398438 220.5 -267.109375 C 222.425781 -268.804688 224.859375 -269.65625 227.796875 -269.65625 C 230.734375 -269.65625 233.554688 -269.144531 236.265625 -268.125 C 238.972656 -267.113281 241.347656 -265.644531 243.390625 -263.71875 C 247.796875 -259.769531 250 -254.09375 250 -246.6875 C 250 -239.289062 247.625 -232.9375 242.875 -227.625 C 246.257812 -223.550781 247.953125 -218.40625 247.953125 -212.1875 C 247.953125 -205.976562 245.804688 -200.332031 241.515625 -195.25 C 244.117188 -190.613281 245.421875 -185.976562 245.421875 -181.34375 C 245.421875 -176.71875 244.851562 -172.539062 243.71875 -168.8125 C 242.59375 -165.082031 240.957031 -161.804688 238.8125 -158.984375 C 234.175781 -152.648438 228.351562 -149.484375 221.34375 -149.484375 C 217.507812 -149.484375 214.910156 -150.894531 213.546875 -153.71875 C 217.171875 -158.914062 218.984375 -166.738281 218.984375 -177.1875 C 218.984375 -187.644531 217.597656 -196.742188 214.828125 -204.484375 C 212.054688 -212.222656 208.410156 -218.75 203.890625 -224.0625 C 194.742188 -234.6875 183.953125 -240 171.515625 -240 C 166.773438 -240 162.648438 -239.316406 159.140625 -237.953125 L 159.140625 -159.3125 C 159.140625 -153.78125 160.328125 -149.65625 162.703125 -146.9375 C 166.429688 -142.53125 172.140625 -138.578125 179.828125 -135.078125 C 171.578125 -131.015625 166.320312 -127.679688 164.0625 -125.078125 C 160.78125 -121.015625 159.140625 -116.382812 159.140625 -111.1875 L 159.140625 -28.640625 C 161.179688 -24.117188 164.316406 -20.785156 168.546875 -18.640625 C 172.785156 -16.492188 176.992188 -15.421875 181.171875 -15.421875 C 185.359375 -15.421875 188.695312 -16.378906 191.1875 -18.296875 C 192.425781 -16.609375 193.046875 -14.660156 193.046875 -12.453125 C 193.046875 -10.253906 192.394531 -8.191406 191.09375 -6.265625 C 189.789062 -4.347656 188.007812 -2.710938 185.75 -1.359375 C 180.5625 1.804688 174.488281 3.390625 167.53125 3.390625 C 160.582031 3.390625 153.945312 1.523438 147.625 -2.203125 Z M 113.046875 -44.90625 C 118.691406 -47.0625 121.800781 -54.460938 122.375 -67.109375 C 123.050781 -79.765625 123.390625 -97.28125 123.390625 -119.65625 C 123.390625 -142.03125 123.359375 -156.914062 123.296875 -164.3125 C 123.242188 -171.71875 123.160156 -177.679688 123.046875 -182.203125 C 122.710938 -195.535156 121.441406 -203.582031 119.234375 -206.34375 C 117.023438 -209.113281 114.960938 -210.953125 113.046875 -211.859375 C 113.046875 -172.535156 112.367188 -150.160156 111.015625 -144.734375 C 109.429688 -140.222656 105.585938 -137.003906 99.484375 -135.078125 C 106.265625 -132.703125 110.109375 -129.820312 111.015625 -126.4375 C 112.367188 -121.007812 113.046875 -101.179688 113.046875 -66.953125 Z M 113.046875 -44.90625 "/></g></g><g transform="translate(2390.292038, 426.322257)"><g><path d="M 59.65625 -6.609375 C 50.613281 2.429688 42.023438 6.953125 33.890625 6.953125 C 28.691406 6.953125 25.191406 5.03125 23.390625 1.1875 C 25.984375 -1.976562 27.28125 -6.722656 27.28125 -13.046875 L 27.28125 -15.59375 C 27.28125 -16.269531 27.226562 -16.890625 27.125 -17.453125 C 21.46875 -22.535156 18.640625 -28.550781 18.640625 -35.5 C 18.640625 -42.457031 21.914062 -49.550781 28.46875 -56.78125 C 26.550781 -60.625 25.59375 -64.71875 25.59375 -69.0625 C 25.59375 -73.414062 26.238281 -77.484375 27.53125 -81.265625 C 28.832031 -85.054688 30.613281 -88.363281 32.875 -91.1875 C 37.625 -97.394531 42.285156 -100.5 46.859375 -100.5 C 51.441406 -100.5 54.691406 -98.691406 56.609375 -95.078125 C 52.535156 -90.785156 50.5 -84.0625 50.5 -74.90625 C 50.5 -65.757812 51.828125 -57.796875 54.484375 -51.015625 C 57.140625 -44.234375 60.898438 -38.414062 65.765625 -33.5625 C 76.160156 -22.9375 89.4375 -17.625 105.59375 -17.625 C 116.4375 -17.625 125.644531 -20.734375 133.21875 -26.953125 C 141.351562 -33.617188 145.421875 -42.710938 145.421875 -54.234375 C 145.421875 -62.367188 143.5 -68.976562 139.65625 -74.0625 C 133.664062 -81.976562 124.285156 -90.34375 111.515625 -99.15625 C 101.691406 -106.039062 93.84375 -109.484375 87.96875 -109.484375 C 81.976562 -109.484375 75.367188 -107.054688 68.140625 -102.203125 C 70.054688 -107.960938 71.015625 -113.328125 71.015625 -118.296875 C 71.015625 -119.429688 69.941406 -120.898438 67.796875 -122.703125 L 61.53125 -128.296875 C 41.75 -146.492188 30.050781 -163.390625 26.4375 -178.984375 C 25.195312 -184.398438 24.578125 -191.203125 24.578125 -199.390625 C 24.578125 -207.585938 26.582031 -215.894531 30.59375 -224.3125 C 34.601562 -232.726562 40.113281 -239.875 47.125 -245.75 C 61.695312 -258.1875 80.222656 -264.40625 102.703125 -264.40625 C 116.378906 -264.40625 128.921875 -262.203125 140.328125 -257.796875 C 145.191406 -255.867188 150.726562 -254.90625 156.9375 -254.90625 C 159.539062 -254.90625 161.882812 -255.046875 163.96875 -255.328125 C 166.0625 -255.609375 167.898438 -256.769531 169.484375 -258.8125 C 170.953125 -260.957031 171.6875 -262.875 171.6875 -264.5625 C 171.6875 -266.257812 171.460938 -267.675781 171.015625 -268.8125 C 171.804688 -269.144531 172.90625 -269.3125 174.3125 -269.3125 C 175.726562 -269.3125 177.28125 -268.832031 178.96875 -267.875 C 180.664062 -266.914062 182.191406 -265.585938 183.546875 -263.890625 C 186.597656 -260.046875 188.125 -255.722656 188.125 -250.921875 C 188.125 -246.117188 186.769531 -242.476562 184.0625 -240 C 187.90625 -236.601562 189.828125 -231.347656 189.828125 -224.234375 C 189.828125 -217.222656 187.453125 -211.347656 182.703125 -206.609375 C 183.609375 -203.554688 184.0625 -200.8125 184.0625 -198.375 C 184.0625 -195.945312 183.632812 -193.628906 182.78125 -191.421875 C 181.9375 -189.222656 180.78125 -187.332031 179.3125 -185.75 C 176.039062 -182.25 172.9375 -180.5 170 -180.5 C 165.363281 -180.5 161.460938 -181.289062 158.296875 -182.875 C 160.222656 -187.394531 161.1875 -192.253906 161.1875 -197.453125 C 161.1875 -202.648438 160.023438 -207.988281 157.703125 -213.46875 C 155.390625 -218.945312 152.144531 -223.722656 147.96875 -227.796875 C 139.144531 -236.148438 127.617188 -240.328125 113.390625 -240.328125 C 104.347656 -240.328125 96.945312 -237.5625 91.1875 -232.03125 C 85.757812 -226.832031 83.046875 -220.5625 83.046875 -213.21875 C 83.046875 -207.675781 84.398438 -203.039062 87.109375 -199.3125 C 91.859375 -192.875 99.375 -186.207031 109.65625 -179.3125 L 117.796875 -173.890625 C 122.316406 -171.066406 125.363281 -169.65625 126.9375 -169.65625 C 128.519531 -169.65625 130.101562 -169.820312 131.6875 -170.15625 C 133.269531 -170.5 135.023438 -170.953125 136.953125 -171.515625 C 141.015625 -172.878906 144.96875 -174.800781 148.8125 -177.28125 L 146.609375 -167.796875 C 145.929688 -164.628906 145.59375 -162.3125 145.59375 -160.84375 C 145.59375 -158.46875 146.78125 -156.320312 149.15625 -154.40625 C 170.28125 -136.101562 184.398438 -120.789062 191.515625 -108.46875 C 197.734375 -97.738281 200.84375 -86.15625 200.84375 -73.71875 C 200.84375 -61.289062 198.804688 -50.613281 194.734375 -41.6875 C 190.671875 -32.757812 184.738281 -24.851562 176.9375 -17.96875 C 159.769531 -2.601562 137.457031 5.078125 110 5.078125 C 90.675781 5.078125 73.894531 1.179688 59.65625 -6.609375 Z M 48.140625 -211.859375 C 43.835938 -210.046875 41.6875 -205.359375 41.6875 -197.796875 C 41.6875 -182.316406 52.023438 -165.3125 72.703125 -146.78125 L 82.875 -137.625 C 86.382812 -134.457031 87.941406 -132.023438 87.546875 -130.328125 C 87.148438 -128.640625 86.804688 -127.285156 86.515625 -126.265625 C 86.234375 -125.253906 85.921875 -124.296875 85.578125 -123.390625 C 85.242188 -122.484375 85.019531 -121.804688 84.90625 -121.359375 C 88.863281 -123.722656 92.085938 -124.90625 94.578125 -124.90625 C 99.546875 -124.90625 104.234375 -123.550781 108.640625 -120.84375 C 130.453125 -107.28125 145.253906 -95.191406 153.046875 -84.578125 C 158.691406 -76.773438 161.628906 -67.054688 161.859375 -55.421875 C 161.859375 -51.242188 161.578125 -47.738281 161.015625 -44.90625 C 167.003906 -48.75 170 -54.851562 170 -63.21875 C 170 -71.351562 168.894531 -77.625 166.6875 -82.03125 C 164.488281 -86.4375 161.921875 -90.363281 158.984375 -93.8125 C 156.046875 -97.257812 152.226562 -101.015625 147.53125 -105.078125 C 142.84375 -109.148438 137.054688 -113.554688 130.171875 -118.296875 L 106.09375 -134.734375 C 86.320312 -147.734375 71.296875 -161.460938 61.015625 -175.921875 C 51.972656 -188.691406 47.679688 -200.671875 48.140625 -211.859375 Z M 48.140625 -211.859375 "/></g></g></g></svg>