<svg xmlns="http://www.w3.org/2000/svg" xmlns:xlink="http://www.w3.org/1999/xlink" width="1080" zoomAndPan="magnify" viewBox="0 0 810 809.999993" height="1080" preserveAspectRatio="xMidYMid meet" version="1.0"><defs><g/></defs><g fill="#e9cba7" fill-opacity="1"><g transform="translate(24.180579, 441.752136)"><g><path d="M 17.484375 -1.9375 C 14.835938 0.707031 12.320312 2.03125 9.9375 2.03125 C 8.414062 2.03125 7.390625 1.46875 6.859375 0.34375 C 7.617188 -0.582031 8 -1.972656 8 -3.828125 L 8 -4.578125 C 8 -4.773438 7.984375 -4.957031 7.953125 -5.125 C 6.296875 -6.613281 5.46875 -8.375 5.46875 -10.40625 C 5.46875 -12.445312 6.425781 -14.523438 8.34375 -16.640625 C 7.78125 -17.765625 7.5 -18.960938 7.5 -20.234375 C 7.5 -21.515625 7.6875 -22.707031 8.0625 -23.8125 C 8.445312 -24.925781 8.972656 -25.898438 9.640625 -26.734375 C 11.023438 -28.554688 12.390625 -29.46875 13.734375 -29.46875 C 15.078125 -29.46875 16.03125 -28.9375 16.59375 -27.875 C 15.40625 -26.613281 14.8125 -24.640625 14.8125 -21.953125 C 14.8125 -19.273438 15.195312 -16.941406 15.96875 -14.953125 C 16.75 -12.960938 17.851562 -11.257812 19.28125 -9.84375 C 22.320312 -6.726562 26.210938 -5.171875 30.953125 -5.171875 C 34.128906 -5.171875 36.828125 -6.082031 39.046875 -7.90625 C 41.429688 -9.851562 42.625 -12.519531 42.625 -15.90625 C 42.625 -18.28125 42.0625 -20.21875 40.9375 -21.71875 C 39.1875 -24.03125 36.4375 -26.476562 32.6875 -29.0625 C 29.8125 -31.082031 27.507812 -32.09375 25.78125 -32.09375 C 24.03125 -32.09375 22.09375 -31.378906 19.96875 -29.953125 C 20.53125 -31.648438 20.8125 -33.222656 20.8125 -34.671875 C 20.8125 -35.003906 20.5 -35.4375 19.875 -35.96875 L 18.03125 -37.609375 C 12.238281 -42.941406 8.8125 -47.894531 7.75 -52.46875 C 7.382812 -54.050781 7.203125 -56.039062 7.203125 -58.4375 C 7.203125 -60.84375 7.789062 -63.28125 8.96875 -65.75 C 10.144531 -68.21875 11.757812 -70.316406 13.8125 -72.046875 C 18.082031 -75.679688 23.515625 -77.5 30.109375 -77.5 C 34.117188 -77.5 37.796875 -76.851562 41.140625 -75.5625 C 42.566406 -75 44.1875 -74.71875 46 -74.71875 C 46.769531 -74.71875 47.457031 -74.757812 48.0625 -74.84375 C 48.675781 -74.925781 49.21875 -75.265625 49.6875 -75.859375 C 50.113281 -76.492188 50.328125 -77.054688 50.328125 -77.546875 C 50.328125 -78.046875 50.257812 -78.460938 50.125 -78.796875 C 50.363281 -78.898438 50.6875 -78.953125 51.09375 -78.953125 C 51.507812 -78.953125 51.960938 -78.804688 52.453125 -78.515625 C 52.953125 -78.234375 53.40625 -77.847656 53.8125 -77.359375 C 54.695312 -76.234375 55.140625 -74.960938 55.140625 -73.546875 C 55.140625 -72.140625 54.742188 -71.070312 53.953125 -70.34375 C 55.078125 -69.351562 55.640625 -67.816406 55.640625 -65.734375 C 55.640625 -63.679688 54.945312 -61.957031 53.5625 -60.5625 C 53.820312 -59.664062 53.953125 -58.859375 53.953125 -58.140625 C 53.953125 -57.429688 53.828125 -56.753906 53.578125 -56.109375 C 53.328125 -55.460938 52.988281 -54.910156 52.5625 -54.453125 C 51.601562 -53.421875 50.691406 -52.90625 49.828125 -52.90625 C 48.472656 -52.90625 47.332031 -53.140625 46.40625 -53.609375 C 46.96875 -54.929688 47.25 -56.351562 47.25 -57.875 C 47.25 -59.40625 46.910156 -60.972656 46.234375 -62.578125 C 45.554688 -64.179688 44.601562 -65.582031 43.375 -66.78125 C 40.789062 -69.226562 37.410156 -70.453125 33.234375 -70.453125 C 30.585938 -70.453125 28.421875 -69.640625 26.734375 -68.015625 C 25.140625 -66.492188 24.34375 -64.65625 24.34375 -62.5 C 24.34375 -60.875 24.738281 -59.515625 25.53125 -58.421875 C 26.925781 -56.535156 29.128906 -54.582031 32.140625 -52.5625 L 34.53125 -50.96875 C 35.851562 -50.144531 36.742188 -49.734375 37.203125 -49.734375 C 37.671875 -49.734375 38.132812 -49.78125 38.59375 -49.875 C 39.0625 -49.976562 39.578125 -50.113281 40.140625 -50.28125 C 41.335938 -50.675781 42.5 -51.238281 43.625 -51.96875 L 42.96875 -49.1875 C 42.769531 -48.257812 42.671875 -47.582031 42.671875 -47.15625 C 42.671875 -46.457031 43.019531 -45.828125 43.71875 -45.265625 C 49.914062 -39.898438 54.054688 -35.410156 56.140625 -31.796875 C 57.960938 -28.648438 58.875 -25.253906 58.875 -21.609375 C 58.875 -17.960938 58.273438 -14.832031 57.078125 -12.21875 C 55.890625 -9.601562 54.15625 -7.285156 51.875 -5.265625 C 46.832031 -0.765625 40.289062 1.484375 32.25 1.484375 C 26.582031 1.484375 21.660156 0.34375 17.484375 -1.9375 Z M 14.109375 -62.109375 C 12.847656 -61.578125 12.21875 -60.203125 12.21875 -57.984375 C 12.21875 -53.441406 15.25 -48.457031 21.3125 -43.03125 L 24.296875 -40.34375 C 25.316406 -39.414062 25.769531 -38.703125 25.65625 -38.203125 C 25.539062 -37.703125 25.441406 -37.300781 25.359375 -37 C 25.273438 -36.707031 25.179688 -36.425781 25.078125 -36.15625 C 24.984375 -35.894531 24.921875 -35.703125 24.890625 -35.578125 C 26.046875 -36.265625 26.988281 -36.609375 27.71875 -36.609375 C 29.175781 -36.609375 30.550781 -36.210938 31.84375 -35.421875 C 38.238281 -31.453125 42.578125 -27.910156 44.859375 -24.796875 C 46.515625 -22.503906 47.378906 -19.65625 47.453125 -16.25 C 47.453125 -15.019531 47.367188 -13.992188 47.203125 -13.171875 C 48.953125 -14.296875 49.828125 -16.082031 49.828125 -18.53125 C 49.828125 -20.914062 49.503906 -22.753906 48.859375 -24.046875 C 48.210938 -25.335938 47.457031 -26.488281 46.59375 -27.5 C 45.738281 -28.507812 44.625 -29.609375 43.25 -30.796875 C 41.875 -31.992188 40.175781 -33.285156 38.15625 -34.671875 L 31.09375 -39.5 C 25.300781 -43.3125 20.898438 -47.335938 17.890625 -51.578125 C 15.234375 -55.316406 13.972656 -58.828125 14.109375 -62.109375 Z M 14.109375 -62.109375 "/></g></g></g><g fill="#e9cba7" fill-opacity="1"><g transform="translate(86.527473, 441.752136)"><g><path d="M 22.359375 1 C 20.171875 1 18.234375 0.46875 16.546875 -0.59375 C 14.859375 0.46875 13.289062 1 11.84375 1 C 10.40625 1 9.222656 0.875 8.296875 0.625 C 7.367188 0.375 6.554688 0.0351562 5.859375 -0.390625 C 4.429688 -1.253906 3.71875 -2.332031 3.71875 -3.625 C 3.71875 -4.289062 3.898438 -4.867188 4.265625 -5.359375 C 4.992188 -4.796875 5.925781 -4.515625 7.0625 -4.515625 C 10.007812 -4.515625 12.046875 -5.773438 13.171875 -8.296875 L 13.171875 -32.59375 C 13.171875 -34.113281 12.851562 -35.238281 12.21875 -35.96875 C 11.226562 -37.195312 9.523438 -38.40625 7.109375 -39.59375 C 9.359375 -40.625 10.816406 -41.535156 11.484375 -42.328125 C 12.609375 -43.617188 13.171875 -45.078125 13.171875 -46.703125 L 13.171875 -67.671875 C 12.046875 -70.222656 10.007812 -71.5 7.0625 -71.5 C 5.925781 -71.5 4.992188 -71.21875 4.265625 -70.65625 C 3.898438 -71.144531 3.71875 -71.710938 3.71875 -72.359375 C 3.71875 -73.003906 3.910156 -73.609375 4.296875 -74.171875 C 4.679688 -74.734375 5.203125 -75.210938 5.859375 -75.609375 C 7.378906 -76.546875 9.125 -77.015625 11.09375 -77.015625 C 13.070312 -77.015625 14.890625 -76.46875 16.546875 -75.375 C 18.265625 -76.46875 20.234375 -77.015625 22.453125 -77.015625 C 24.671875 -77.015625 26.691406 -76.367188 28.515625 -75.078125 C 32.023438 -76.367188 36.082031 -77.015625 40.6875 -77.015625 C 44.101562 -77.015625 47.019531 -76.679688 49.4375 -76.015625 L 53.859375 -74.828125 C 54.390625 -74.691406 54.898438 -74.625 55.390625 -74.625 C 56.316406 -74.625 56.78125 -75.285156 56.78125 -76.609375 C 56.78125 -76.941406 56.664062 -77.503906 56.4375 -78.296875 C 57.363281 -78.460938 58.539062 -78.546875 59.96875 -78.546875 C 61.394531 -78.546875 62.601562 -78.070312 63.59375 -77.125 C 64.582031 -76.1875 65.078125 -74.832031 65.078125 -73.0625 C 65.078125 -71.289062 64.765625 -69.988281 64.140625 -69.15625 C 65.035156 -67.832031 65.484375 -66.21875 65.484375 -64.3125 C 65.484375 -62.40625 64.835938 -60.804688 63.546875 -59.515625 C 63.941406 -58.523438 64.140625 -57.554688 64.140625 -56.609375 C 64.140625 -55.671875 63.984375 -54.8125 63.671875 -54.03125 C 63.359375 -53.25 62.96875 -52.59375 62.5 -52.0625 C 61.570312 -51.101562 60.628906 -50.625 59.671875 -50.625 C 58.273438 -50.625 57.015625 -50.921875 55.890625 -51.515625 C 56.285156 -52.316406 56.484375 -53.492188 56.484375 -55.046875 C 56.484375 -58.691406 55.570312 -61.890625 53.75 -64.640625 C 51.269531 -68.410156 47.546875 -70.296875 42.578125 -70.296875 C 40.054688 -70.296875 37.773438 -69.679688 35.734375 -68.453125 C 33.703125 -67.234375 32.273438 -65.484375 31.453125 -63.203125 L 31.453125 -43.96875 C 32.609375 -43.238281 33.691406 -42.875 34.703125 -42.875 C 35.710938 -42.875 36.472656 -42.890625 36.984375 -42.921875 C 37.503906 -42.953125 38.023438 -43.019531 38.546875 -43.125 C 39.910156 -43.320312 40.957031 -43.585938 41.6875 -43.921875 C 43.070312 -44.578125 43.765625 -46.195312 43.765625 -48.78125 C 43.765625 -50.238281 43.421875 -51.367188 42.734375 -52.171875 C 43.390625 -52.628906 44.21875 -52.859375 45.21875 -52.859375 C 47.4375 -52.859375 49.039062 -51.960938 50.03125 -50.171875 C 50.394531 -49.546875 50.578125 -48.851562 50.578125 -48.09375 C 50.578125 -47.332031 50.378906 -46.390625 49.984375 -45.265625 C 51.335938 -43.703125 52.015625 -41.851562 52.015625 -39.71875 C 52.015625 -37.582031 51.335938 -35.738281 49.984375 -34.1875 C 50.378906 -33.0625 50.578125 -32.039062 50.578125 -31.125 C 50.578125 -30.21875 50.394531 -29.347656 50.03125 -28.515625 C 49.664062 -27.691406 49.21875 -27.03125 48.6875 -26.53125 C 47.664062 -25.601562 46.507812 -25.140625 45.21875 -25.140625 C 44.28125 -25.140625 43.453125 -25.40625 42.734375 -25.9375 C 43.421875 -27.09375 43.765625 -28.453125 43.765625 -30.015625 C 43.765625 -33.085938 42.921875 -34.988281 41.234375 -35.71875 C 39.742188 -36.3125 38.035156 -36.609375 36.109375 -36.609375 C 34.191406 -36.609375 32.640625 -36.265625 31.453125 -35.578125 L 31.453125 -10.734375 C 33.367188 -7.347656 37.078125 -5.65625 42.578125 -5.65625 C 48.804688 -5.65625 53.046875 -7.578125 55.296875 -11.421875 C 57.910156 -15.828125 59.21875 -20.550781 59.21875 -25.59375 C 59.21875 -27.039062 59.085938 -28.164062 58.828125 -28.96875 C 59.648438 -29.789062 60.507812 -30.203125 61.40625 -30.203125 C 62.300781 -30.203125 62.976562 -30.078125 63.4375 -29.828125 C 63.90625 -29.585938 64.320312 -29.285156 64.6875 -28.921875 C 65.476562 -28.023438 65.875 -27.113281 65.875 -26.1875 L 65.578125 -23.75 C 65.578125 -23.113281 65.742188 -22.597656 66.078125 -22.203125 C 66.742188 -21.515625 67.078125 -20.863281 67.078125 -20.25 C 67.078125 -19.632812 66.875 -18.894531 66.46875 -18.03125 C 67.238281 -17.601562 67.925781 -16.96875 68.53125 -16.125 C 69.144531 -15.28125 69.453125 -14.410156 69.453125 -13.515625 C 69.453125 -11.628906 68.660156 -9.941406 67.078125 -8.453125 C 67.765625 -7.453125 68.109375 -6.015625 68.109375 -4.140625 C 68.109375 -2.273438 67.570312 -0.691406 66.5 0.609375 C 65.425781 1.921875 64.023438 2.578125 62.296875 2.578125 C 61.367188 2.578125 60.410156 2.476562 59.421875 2.28125 C 59.554688 1.550781 59.625 0.820312 59.625 0.09375 C 59.625 -1.425781 58.925781 -2.1875 57.53125 -2.1875 C 55.976562 -2.1875 54.421875 -1.867188 52.859375 -1.234375 C 49.179688 0.253906 45 1 40.3125 1 C 35.625 1 31.644531 0.382812 28.375 -0.84375 C 26.644531 0.382812 24.640625 1 22.359375 1 Z M 17.9375 -13.171875 C 19.59375 -13.796875 20.503906 -15.960938 20.671875 -19.671875 C 20.867188 -23.378906 20.96875 -28.507812 20.96875 -35.0625 C 20.96875 -41.625 20.957031 -45.988281 20.9375 -48.15625 C 20.925781 -50.332031 20.898438 -52.082031 20.859375 -53.40625 C 20.765625 -57.3125 20.394531 -59.671875 19.75 -60.484375 C 19.101562 -61.296875 18.5 -61.835938 17.9375 -62.109375 C 17.9375 -50.578125 17.738281 -44.015625 17.34375 -42.421875 C 16.875 -41.097656 15.742188 -40.15625 13.953125 -39.59375 C 15.941406 -38.894531 17.070312 -38.050781 17.34375 -37.0625 C 17.738281 -35.46875 17.9375 -29.65625 17.9375 -19.625 Z M 30.453125 -13.65625 C 30.453125 -13.5625 30.46875 -13.484375 30.5 -13.421875 Z M 30.453125 -13.65625 "/></g></g></g><g fill="#e9cba7" fill-opacity="1"><g transform="translate(158.114624, 441.752136)"><g><path d="M 28.078125 -0.59375 C 26.378906 0.46875 24.453125 1 22.296875 1 C 20.148438 1 18.234375 0.46875 16.546875 -0.59375 C 14.859375 0.46875 13.289062 1 11.84375 1 C 10.40625 1 9.222656 0.875 8.296875 0.625 C 7.367188 0.375 6.554688 0.0351562 5.859375 -0.390625 C 4.429688 -1.253906 3.71875 -2.332031 3.71875 -3.625 C 3.71875 -4.289062 3.898438 -4.867188 4.265625 -5.359375 C 4.992188 -4.796875 5.925781 -4.515625 7.0625 -4.515625 C 10.007812 -4.515625 12.046875 -5.773438 13.171875 -8.296875 L 13.171875 -32.59375 C 13.171875 -34.113281 12.851562 -35.238281 12.21875 -35.96875 C 11.226562 -37.195312 9.523438 -38.40625 7.109375 -39.59375 C 9.359375 -40.625 10.816406 -41.535156 11.484375 -42.328125 C 12.609375 -43.617188 13.171875 -45.078125 13.171875 -46.703125 L 13.171875 -67.671875 C 12.046875 -70.222656 10.007812 -71.5 7.0625 -71.5 C 5.925781 -71.5 4.992188 -71.21875 4.265625 -70.65625 C 3.898438 -71.144531 3.71875 -71.710938 3.71875 -72.359375 C 3.71875 -73.003906 3.910156 -73.609375 4.296875 -74.171875 C 4.679688 -74.734375 5.203125 -75.210938 5.859375 -75.609375 C 7.378906 -76.546875 9.125 -77.015625 11.09375 -77.015625 C 13.070312 -77.015625 14.890625 -76.46875 16.546875 -75.375 C 18.265625 -76.46875 20.179688 -77.015625 22.296875 -77.015625 C 24.421875 -77.015625 26.347656 -76.46875 28.078125 -75.375 C 31.816406 -76.789062 35.960938 -77.5 40.515625 -77.5 C 45.066406 -77.5 48.882812 -77.082031 51.96875 -76.25 C 55.050781 -75.425781 57.703125 -74.253906 59.921875 -72.734375 C 64.390625 -69.648438 67.171875 -65.363281 68.265625 -59.875 C 68.691406 -57.414062 70.265625 -55.554688 72.984375 -54.296875 C 70.398438 -52.835938 68.710938 -50.519531 67.921875 -47.34375 C 66.296875 -40.789062 62.238281 -36.703125 55.75 -35.078125 C 59.09375 -34.179688 61.820312 -32.34375 63.9375 -29.5625 C 66.125 -26.675781 67.21875 -23.28125 67.21875 -19.375 L 67.21875 -14.40625 C 67.21875 -9.632812 68.757812 -6.554688 71.84375 -5.171875 C 72.769531 -4.734375 73.78125 -4.515625 74.875 -4.515625 C 75.96875 -4.515625 76.878906 -4.796875 77.609375 -5.359375 C 77.972656 -4.867188 78.15625 -4.300781 78.15625 -3.65625 C 78.15625 -3.007812 77.988281 -2.40625 77.65625 -1.84375 C 77.320312 -1.28125 76.875 -0.796875 76.3125 -0.390625 C 75.125 0.535156 73.734375 1 72.140625 1 C 70.546875 1 68.988281 0.566406 67.46875 -0.296875 C 64.6875 1.222656 62.085938 1.375 59.671875 0.15625 C 58.742188 0.71875 57.765625 1 56.734375 1 C 55.710938 1 54.726562 0.765625 53.78125 0.296875 C 52.832031 -0.160156 51.992188 -0.921875 51.265625 -1.984375 C 49.710938 -4.273438 48.9375 -7.785156 48.9375 -12.515625 L 48.9375 -16.203125 C 48.9375 -23.847656 46.75 -28.8125 42.375 -31.09375 C 40.914062 -31.863281 39.210938 -32.25 37.265625 -32.25 L 31.453125 -32.25 L 31.453125 -8.046875 C 32.347656 -5.691406 34.050781 -4.515625 36.5625 -4.515625 C 37.6875 -4.515625 38.613281 -4.796875 39.34375 -5.359375 C 39.707031 -4.867188 39.890625 -4.140625 39.890625 -3.171875 C 39.890625 -2.210938 39.367188 -1.273438 38.328125 -0.359375 C 37.285156 0.546875 35.71875 1 33.625 1 C 31.539062 1 29.691406 0.46875 28.078125 -0.59375 Z M 40.984375 -70.890625 C 34.628906 -70.890625 31.453125 -68.425781 31.453125 -63.5 L 31.453125 -43.171875 C 31.453125 -41.453125 32.128906 -40.296875 33.484375 -39.703125 C 34.773438 -39.140625 36.6875 -38.859375 39.21875 -38.859375 C 41.757812 -38.859375 43.535156 -39 44.546875 -39.28125 C 45.554688 -39.5625 46.425781 -40.046875 47.15625 -40.734375 C 48.644531 -42.160156 49.390625 -44.546875 49.390625 -47.890625 L 49.390625 -62.40625 C 49.390625 -66.539062 47.664062 -69.1875 44.21875 -70.34375 C 43.1875 -70.707031 42.109375 -70.890625 40.984375 -70.890625 Z M 52.71875 -67.71875 C 53.738281 -65.394531 54.25 -61.6875 54.25 -56.59375 C 54.25 -47.8125 53.835938 -42.5625 53.015625 -40.84375 C 54.835938 -41.207031 56.144531 -43.640625 56.9375 -48.140625 L 57.328125 -50.171875 C 57.691406 -52.328125 58.753906 -53.703125 60.515625 -54.296875 C 59.222656 -54.734375 58.394531 -55.25 58.03125 -55.84375 C 57.632812 -56.539062 57.273438 -57.722656 56.953125 -59.390625 C 56.640625 -61.066406 56.316406 -62.414062 55.984375 -63.4375 C 55.660156 -64.46875 55.316406 -65.28125 54.953125 -65.875 C 54.316406 -66.9375 53.570312 -67.550781 52.71875 -67.71875 Z M 17.9375 -13.171875 C 19.59375 -13.796875 20.503906 -15.960938 20.671875 -19.671875 C 20.867188 -23.378906 20.96875 -28.507812 20.96875 -35.0625 C 20.96875 -41.625 20.957031 -45.988281 20.9375 -48.15625 C 20.925781 -50.332031 20.898438 -52.082031 20.859375 -53.40625 C 20.765625 -57.3125 20.394531 -59.671875 19.75 -60.484375 C 19.101562 -61.296875 18.5 -61.835938 17.9375 -62.109375 C 17.9375 -50.578125 17.738281 -44.015625 17.34375 -42.421875 C 16.875 -41.097656 15.742188 -40.15625 13.953125 -39.59375 C 15.941406 -38.894531 17.070312 -38.050781 17.34375 -37.0625 C 17.738281 -35.46875 17.9375 -29.65625 17.9375 -19.625 Z M 52.21875 -26.78125 C 53.539062 -25.289062 54.203125 -23.46875 54.203125 -21.3125 L 54.203125 -14.75 C 54.203125 -9.257812 55.296875 -6.332031 57.484375 -5.96875 C 58.078125 -5.863281 58.65625 -5.878906 59.21875 -6.015625 C 58.03125 -7.867188 57.4375 -9.820312 57.4375 -11.875 L 57.4375 -18.828125 C 57.4375 -21.441406 57.070312 -23.296875 56.34375 -24.390625 C 55.082031 -26.242188 53.707031 -27.039062 52.21875 -26.78125 Z M 52.21875 -26.78125 "/></g></g></g><g fill="#e9cba7" fill-opacity="1"><g transform="translate(235.265788, 441.752136)"><g><path d="M 73.578125 -70.40625 C 72.710938 -70.96875 71.6875 -71.25 70.5 -71.25 C 68.144531 -71.25 66.023438 -69.957031 64.140625 -67.375 C 59.109375 -53.957031 56.507812 -46.765625 56.34375 -45.796875 C 56.175781 -44.835938 56.09375 -44.144531 56.09375 -43.71875 C 56.09375 -41.664062 57.21875 -40.289062 59.46875 -39.59375 C 57.019531 -38.601562 55.332031 -37.609375 54.40625 -36.609375 C 52.945312 -34.992188 51.640625 -32.507812 50.484375 -29.15625 L 41.390625 -4.328125 C 39.703125 0.472656 38.457031 3.140625 37.65625 3.671875 C 37.363281 3.835938 37.015625 3.921875 36.609375 3.921875 C 36.210938 3.921875 35.882812 3.804688 35.625 3.578125 L 19.46875 -32.546875 C 18.8125 -34.097656 17.953125 -35.289062 16.890625 -36.125 C 15.171875 -37.445312 12.96875 -38.601562 10.28125 -39.59375 C 13.164062 -41.1875 14.570312 -42.660156 14.5 -44.015625 C 14.5 -44.648438 14.238281 -45.660156 13.71875 -47.046875 L 5.015625 -69.40625 C 3.265625 -70.632812 1.660156 -71.25 0.203125 -71.25 C -0.859375 -71.25 -1.820312 -70.96875 -2.6875 -70.40625 C -3.050781 -70.664062 -3.234375 -71.160156 -3.234375 -71.890625 C -3.234375 -72.617188 -3.113281 -73.289062 -2.875 -73.90625 C -2.644531 -74.519531 -2.28125 -75.054688 -1.78125 -75.515625 C -0.726562 -76.515625 0.789062 -77.015625 2.78125 -77.015625 C 4.769531 -77.015625 6.523438 -76.484375 8.046875 -75.421875 C 9.734375 -76.484375 11.710938 -77.015625 13.984375 -77.015625 C 16.253906 -77.015625 18.21875 -76.5 19.875 -75.46875 C 21.625 -76.5 23.226562 -77.015625 24.6875 -77.015625 C 26.144531 -77.015625 27.335938 -76.90625 28.265625 -76.6875 C 29.191406 -76.46875 30.003906 -76.144531 30.703125 -75.71875 C 32.191406 -74.851562 32.96875 -73.660156 33.03125 -72.140625 C 33.03125 -71.210938 32.851562 -70.632812 32.5 -70.40625 C 31.601562 -70.96875 30.691406 -71.25 29.765625 -71.25 C 27.671875 -71.25 26.046875 -70.847656 24.890625 -70.046875 L 41.1875 -23.546875 L 56.484375 -67.8125 C 56.316406 -68.9375 55.878906 -69.832031 55.171875 -70.5 C 54.460938 -71.164062 53.378906 -71.5 51.921875 -71.5 C 50.460938 -71.5 49.253906 -71.21875 48.296875 -70.65625 C 47.960938 -71.144531 47.796875 -71.921875 47.796875 -72.984375 C 47.796875 -74.046875 48.242188 -74.984375 49.140625 -75.796875 C 50.035156 -76.609375 51.269531 -77.015625 52.84375 -77.015625 C 54.414062 -77.015625 55.8125 -76.628906 57.03125 -75.859375 C 58.09375 -76.628906 59.414062 -77.015625 61 -77.015625 C 62.59375 -77.015625 63.90625 -76.648438 64.9375 -75.921875 C 66.394531 -76.648438 67.851562 -77.015625 69.3125 -77.015625 C 70.769531 -77.015625 71.9375 -76.539062 72.8125 -75.59375 C 73.6875 -74.644531 74.125 -73.425781 74.125 -71.9375 C 74.125 -71.175781 73.941406 -70.664062 73.578125 -70.40625 Z M 56.4375 -65.6875 C 56.375 -65.476562 56.34375 -65.34375 56.34375 -65.28125 Z M 16 -62.109375 C 15.269531 -61.578125 14.90625 -60.890625 14.90625 -60.046875 C 14.90625 -59.203125 14.925781 -58.5625 14.96875 -58.125 C 15.019531 -57.695312 15.144531 -57.144531 15.34375 -56.46875 C 15.550781 -55.789062 15.851562 -54.921875 16.25 -53.859375 L 18.984375 -46.796875 C 19.640625 -45.078125 20.003906 -43.785156 20.078125 -42.921875 C 20.234375 -41.460938 19.304688 -40.351562 17.296875 -39.59375 C 18.648438 -39.332031 19.765625 -39.007812 20.640625 -38.625 C 21.515625 -38.25 22.300781 -37.304688 23 -35.796875 C 23.695312 -34.285156 24.609375 -32.125 25.734375 -29.3125 L 29.90625 -19.171875 C 31.164062 -16.097656 32.554688 -14.242188 34.078125 -13.609375 C 34.515625 -13.410156 34.945312 -13.265625 35.375 -13.171875 Z M 16 -62.109375 "/></g></g></g><g fill="#e9cba7" fill-opacity="1"><g transform="translate(305.660636, 441.752136)"><g><path d="M 22.359375 1 C 20.171875 1 18.234375 0.46875 16.546875 -0.59375 C 14.859375 0.46875 13.289062 1 11.84375 1 C 10.40625 1 9.222656 0.875 8.296875 0.625 C 7.367188 0.375 6.554688 0.0351562 5.859375 -0.390625 C 4.429688 -1.253906 3.71875 -2.332031 3.71875 -3.625 C 3.71875 -4.289062 3.898438 -4.867188 4.265625 -5.359375 C 4.992188 -4.796875 5.925781 -4.515625 7.0625 -4.515625 C 10.007812 -4.515625 12.046875 -5.773438 13.171875 -8.296875 L 13.171875 -32.59375 C 13.171875 -34.113281 12.851562 -35.238281 12.21875 -35.96875 C 11.226562 -37.195312 9.523438 -38.40625 7.109375 -39.59375 C 9.359375 -40.625 10.816406 -41.535156 11.484375 -42.328125 C 12.609375 -43.617188 13.171875 -45.078125 13.171875 -46.703125 L 13.171875 -67.671875 C 12.046875 -70.222656 10.007812 -71.5 7.0625 -71.5 C 5.925781 -71.5 4.992188 -71.21875 4.265625 -70.65625 C 3.898438 -71.144531 3.71875 -71.710938 3.71875 -72.359375 C 3.71875 -73.003906 3.910156 -73.609375 4.296875 -74.171875 C 4.679688 -74.734375 5.203125 -75.210938 5.859375 -75.609375 C 7.378906 -76.546875 9.125 -77.015625 11.09375 -77.015625 C 13.070312 -77.015625 14.890625 -76.46875 16.546875 -75.375 C 18.265625 -76.46875 20.234375 -77.015625 22.453125 -77.015625 C 24.671875 -77.015625 26.691406 -76.367188 28.515625 -75.078125 C 32.023438 -76.367188 36.082031 -77.015625 40.6875 -77.015625 C 44.101562 -77.015625 47.019531 -76.679688 49.4375 -76.015625 L 53.859375 -74.828125 C 54.390625 -74.691406 54.898438 -74.625 55.390625 -74.625 C 56.316406 -74.625 56.78125 -75.285156 56.78125 -76.609375 C 56.78125 -76.941406 56.664062 -77.503906 56.4375 -78.296875 C 57.363281 -78.460938 58.539062 -78.546875 59.96875 -78.546875 C 61.394531 -78.546875 62.601562 -78.070312 63.59375 -77.125 C 64.582031 -76.1875 65.078125 -74.832031 65.078125 -73.0625 C 65.078125 -71.289062 64.765625 -69.988281 64.140625 -69.15625 C 65.035156 -67.832031 65.484375 -66.21875 65.484375 -64.3125 C 65.484375 -62.40625 64.835938 -60.804688 63.546875 -59.515625 C 63.941406 -58.523438 64.140625 -57.554688 64.140625 -56.609375 C 64.140625 -55.671875 63.984375 -54.8125 63.671875 -54.03125 C 63.359375 -53.25 62.96875 -52.59375 62.5 -52.0625 C 61.570312 -51.101562 60.628906 -50.625 59.671875 -50.625 C 58.273438 -50.625 57.015625 -50.921875 55.890625 -51.515625 C 56.285156 -52.316406 56.484375 -53.492188 56.484375 -55.046875 C 56.484375 -58.691406 55.570312 -61.890625 53.75 -64.640625 C 51.269531 -68.410156 47.546875 -70.296875 42.578125 -70.296875 C 40.054688 -70.296875 37.773438 -69.679688 35.734375 -68.453125 C 33.703125 -67.234375 32.273438 -65.484375 31.453125 -63.203125 L 31.453125 -43.96875 C 32.609375 -43.238281 33.691406 -42.875 34.703125 -42.875 C 35.710938 -42.875 36.472656 -42.890625 36.984375 -42.921875 C 37.503906 -42.953125 38.023438 -43.019531 38.546875 -43.125 C 39.910156 -43.320312 40.957031 -43.585938 41.6875 -43.921875 C 43.070312 -44.578125 43.765625 -46.195312 43.765625 -48.78125 C 43.765625 -50.238281 43.421875 -51.367188 42.734375 -52.171875 C 43.390625 -52.628906 44.21875 -52.859375 45.21875 -52.859375 C 47.4375 -52.859375 49.039062 -51.960938 50.03125 -50.171875 C 50.394531 -49.546875 50.578125 -48.851562 50.578125 -48.09375 C 50.578125 -47.332031 50.378906 -46.390625 49.984375 -45.265625 C 51.335938 -43.703125 52.015625 -41.851562 52.015625 -39.71875 C 52.015625 -37.582031 51.335938 -35.738281 49.984375 -34.1875 C 50.378906 -33.0625 50.578125 -32.039062 50.578125 -31.125 C 50.578125 -30.21875 50.394531 -29.347656 50.03125 -28.515625 C 49.664062 -27.691406 49.21875 -27.03125 48.6875 -26.53125 C 47.664062 -25.601562 46.507812 -25.140625 45.21875 -25.140625 C 44.28125 -25.140625 43.453125 -25.40625 42.734375 -25.9375 C 43.421875 -27.09375 43.765625 -28.453125 43.765625 -30.015625 C 43.765625 -33.085938 42.921875 -34.988281 41.234375 -35.71875 C 39.742188 -36.3125 38.035156 -36.609375 36.109375 -36.609375 C 34.191406 -36.609375 32.640625 -36.265625 31.453125 -35.578125 L 31.453125 -10.734375 C 33.367188 -7.347656 37.078125 -5.65625 42.578125 -5.65625 C 48.804688 -5.65625 53.046875 -7.578125 55.296875 -11.421875 C 57.910156 -15.828125 59.21875 -20.550781 59.21875 -25.59375 C 59.21875 -27.039062 59.085938 -28.164062 58.828125 -28.96875 C 59.648438 -29.789062 60.507812 -30.203125 61.40625 -30.203125 C 62.300781 -30.203125 62.976562 -30.078125 63.4375 -29.828125 C 63.90625 -29.585938 64.320312 -29.285156 64.6875 -28.921875 C 65.476562 -28.023438 65.875 -27.113281 65.875 -26.1875 L 65.578125 -23.75 C 65.578125 -23.113281 65.742188 -22.597656 66.078125 -22.203125 C 66.742188 -21.515625 67.078125 -20.863281 67.078125 -20.25 C 67.078125 -19.632812 66.875 -18.894531 66.46875 -18.03125 C 67.238281 -17.601562 67.925781 -16.96875 68.53125 -16.125 C 69.144531 -15.28125 69.453125 -14.410156 69.453125 -13.515625 C 69.453125 -11.628906 68.660156 -9.941406 67.078125 -8.453125 C 67.765625 -7.453125 68.109375 -6.015625 68.109375 -4.140625 C 68.109375 -2.273438 67.570312 -0.691406 66.5 0.609375 C 65.425781 1.921875 64.023438 2.578125 62.296875 2.578125 C 61.367188 2.578125 60.410156 2.476562 59.421875 2.28125 C 59.554688 1.550781 59.625 0.820312 59.625 0.09375 C 59.625 -1.425781 58.925781 -2.1875 57.53125 -2.1875 C 55.976562 -2.1875 54.421875 -1.867188 52.859375 -1.234375 C 49.179688 0.253906 45 1 40.3125 1 C 35.625 1 31.644531 0.382812 28.375 -0.84375 C 26.644531 0.382812 24.640625 1 22.359375 1 Z M 17.9375 -13.171875 C 19.59375 -13.796875 20.503906 -15.960938 20.671875 -19.671875 C 20.867188 -23.378906 20.96875 -28.507812 20.96875 -35.0625 C 20.96875 -41.625 20.957031 -45.988281 20.9375 -48.15625 C 20.925781 -50.332031 20.898438 -52.082031 20.859375 -53.40625 C 20.765625 -57.3125 20.394531 -59.671875 19.75 -60.484375 C 19.101562 -61.296875 18.5 -61.835938 17.9375 -62.109375 C 17.9375 -50.578125 17.738281 -44.015625 17.34375 -42.421875 C 16.875 -41.097656 15.742188 -40.15625 13.953125 -39.59375 C 15.941406 -38.894531 17.070312 -38.050781 17.34375 -37.0625 C 17.738281 -35.46875 17.9375 -29.65625 17.9375 -19.625 Z M 30.453125 -13.65625 C 30.453125 -13.5625 30.46875 -13.484375 30.5 -13.421875 Z M 30.453125 -13.65625 "/></g></g></g><g fill="#e9cba7" fill-opacity="1"><g transform="translate(377.247776, 441.752136)"><g><path d="M 12.671875 -0.34375 C 11.441406 0.550781 10.039062 1 8.46875 1 C 6.894531 1 5.632812 0.59375 4.6875 -0.21875 C 3.75 -1.03125 3.28125 -1.96875 3.28125 -3.03125 C 3.28125 -4.09375 3.445312 -4.867188 3.78125 -5.359375 C 4.738281 -4.796875 6.257812 -4.515625 8.34375 -4.515625 C 9.175781 -4.515625 10.085938 -4.9375 11.078125 -5.78125 C 12.066406 -6.632812 12.863281 -7.804688 13.46875 -9.296875 L 13.46875 -32.59375 C 13.46875 -34.144531 13.132812 -35.300781 12.46875 -36.0625 C 11.476562 -37.257812 9.789062 -38.4375 7.40625 -39.59375 C 9.820312 -40.757812 11.34375 -41.722656 11.96875 -42.484375 C 12.96875 -43.734375 13.46875 -45.140625 13.46875 -46.703125 L 13.515625 -68.359375 C 12.722656 -70.453125 10.96875 -71.5 8.25 -71.5 C 6.851562 -71.5 5.828125 -71.21875 5.171875 -70.65625 C 4.835938 -71.082031 4.671875 -71.640625 4.671875 -72.328125 C 4.671875 -73.023438 4.816406 -73.65625 5.109375 -74.21875 C 5.410156 -74.789062 5.828125 -75.289062 6.359375 -75.71875 C 7.484375 -76.582031 8.988281 -77.015625 10.875 -77.015625 C 12.769531 -77.015625 14.328125 -76.46875 15.546875 -75.375 C 16.640625 -76.46875 17.914062 -77.015625 19.375 -77.015625 C 20.832031 -77.015625 22.078125 -76.398438 23.109375 -75.171875 C 24.398438 -76.398438 25.539062 -77.015625 26.53125 -77.015625 C 27.519531 -77.015625 28.28125 -76.929688 28.8125 -76.765625 C 29.34375 -76.597656 29.875 -76.28125 30.40625 -75.8125 C 31.46875 -74.988281 32.578125 -73.316406 33.734375 -70.796875 L 52.765625 -31.296875 L 68.46875 -70 L 69.859375 -73.234375 C 70.679688 -75.054688 71.457031 -76.140625 72.1875 -76.484375 C 72.914062 -76.835938 73.769531 -77.015625 74.75 -77.015625 C 75.726562 -77.015625 76.726562 -76.648438 77.75 -75.921875 C 79.007812 -76.648438 80.65625 -77.015625 82.6875 -77.015625 C 84.726562 -77.015625 86.492188 -76.46875 87.984375 -75.375 C 89.304688 -76.46875 90.6875 -77.015625 92.125 -77.015625 C 93.570312 -77.015625 94.703125 -76.894531 95.515625 -76.65625 C 96.328125 -76.425781 97.03125 -76.113281 97.625 -75.71875 C 98.882812 -74.820312 99.515625 -73.710938 99.515625 -72.390625 C 99.515625 -71.722656 99.332031 -71.144531 98.96875 -70.65625 C 98.238281 -71.21875 97.3125 -71.5 96.1875 -71.5 C 93.664062 -71.5 91.957031 -70.320312 91.0625 -67.96875 L 91.0625 -46.703125 C 91.0625 -45.078125 91.410156 -43.867188 92.109375 -43.078125 C 93.203125 -41.785156 94.875 -40.625 97.125 -39.59375 C 94.707031 -38.40625 93.171875 -37.429688 92.515625 -36.671875 C 91.546875 -35.472656 91.0625 -34.113281 91.0625 -32.59375 L 91.0625 -8.296875 C 92.1875 -5.773438 94.222656 -4.515625 97.171875 -4.515625 C 98.304688 -4.515625 99.238281 -4.796875 99.96875 -5.359375 C 100.332031 -4.867188 100.515625 -4.300781 100.515625 -3.65625 C 100.515625 -3.007812 100.320312 -2.40625 99.9375 -1.84375 C 99.550781 -1.28125 99.03125 -0.796875 98.375 -0.390625 C 96.851562 0.535156 95.113281 1 93.15625 1 C 91.195312 1 89.375 0.46875 87.6875 -0.59375 C 86.132812 0.46875 84.363281 1 82.375 1 C 80.25 1 78.378906 0.46875 76.765625 -0.59375 C 75.066406 0.46875 73.5 1 72.0625 1 C 70.625 1 69.441406 0.875 68.515625 0.625 C 67.585938 0.375 66.773438 0.0351562 66.078125 -0.390625 C 64.648438 -1.253906 63.9375 -2.332031 63.9375 -3.625 C 63.9375 -4.289062 64.117188 -4.867188 64.484375 -5.359375 C 65.210938 -4.796875 66.140625 -4.515625 67.265625 -4.515625 C 70.210938 -4.515625 72.25 -5.773438 73.375 -8.296875 L 73.375 -62.59375 L 54 -14.609375 L 51.875 -9.734375 C 50.84375 -7.421875 50.117188 -6.113281 49.703125 -5.8125 C 49.296875 -5.507812 48.957031 -5.359375 48.6875 -5.359375 C 47.863281 -5.359375 47.285156 -5.441406 46.953125 -5.609375 L 20.421875 -57.9375 L 20.421875 -9.34375 C 21.046875 -7.820312 21.90625 -6.632812 23 -5.78125 C 24.09375 -4.9375 25.316406 -4.515625 26.671875 -4.515625 C 28.035156 -4.515625 29.195312 -4.796875 30.15625 -5.359375 C 30.519531 -4.765625 30.703125 -3.945312 30.703125 -2.90625 C 30.703125 -1.863281 30.1875 -0.953125 29.15625 -0.171875 C 28.132812 0.609375 26.8125 1 25.1875 1 C 23.5625 1 22.070312 0.582031 20.71875 -0.25 C 19.519531 0.582031 18.148438 1 16.609375 1 C 15.078125 1 13.765625 0.550781 12.671875 -0.34375 Z M 27.421875 -62.15625 C 27.085938 -61.65625 26.921875 -60.941406 26.921875 -60.015625 C 26.921875 -57.335938 28.050781 -53.773438 30.3125 -49.328125 L 48.390625 -13.21875 C 48.617188 -13.507812 48.734375 -14.140625 48.734375 -15.109375 C 48.734375 -17.984375 47.359375 -22.203125 44.609375 -27.765625 Z M 78.15625 -13.171875 C 79.8125 -13.796875 80.722656 -15.960938 80.890625 -19.671875 C 81.085938 -23.378906 81.1875 -28.507812 81.1875 -35.0625 C 81.1875 -41.625 81.175781 -45.988281 81.15625 -48.15625 C 81.132812 -50.332031 81.109375 -52.082031 81.078125 -53.40625 C 80.984375 -57.3125 80.613281 -59.671875 79.96875 -60.484375 C 79.320312 -61.296875 78.71875 -61.835938 78.15625 -62.109375 Z M 19.71875 -12.515625 C 19.71875 -12.253906 19.738281 -12.054688 19.78125 -11.921875 Z M 14.15625 -12.515625 C 14.125 -12.390625 14.109375 -12.191406 14.109375 -11.921875 Z M 14.15625 -12.515625 "/></g></g></g><g fill="#e9cba7" fill-opacity="1"><g transform="translate(481.27516, 441.752136)"><g/></g></g><g fill="#e9cba7" fill-opacity="1"><g transform="translate(506.11456, 441.752136)"><g><path d="M 28.078125 -0.640625 C 26.347656 0.453125 24.414062 1 22.28125 1 C 20.144531 1 18.234375 0.46875 16.546875 -0.59375 C 14.859375 0.46875 13.289062 1 11.84375 1 C 10.40625 1 9.222656 0.875 8.296875 0.625 C 7.367188 0.375 6.554688 0.0351562 5.859375 -0.390625 C 4.429688 -1.253906 3.71875 -2.332031 3.71875 -3.625 C 3.71875 -4.289062 3.898438 -4.867188 4.265625 -5.359375 C 4.992188 -4.796875 5.925781 -4.515625 7.0625 -4.515625 C 10.007812 -4.515625 12.046875 -5.773438 13.171875 -8.296875 L 13.171875 -32.59375 C 13.171875 -34.113281 12.851562 -35.238281 12.21875 -35.96875 C 11.226562 -37.195312 9.523438 -38.40625 7.109375 -39.59375 C 9.359375 -40.625 10.816406 -41.535156 11.484375 -42.328125 C 12.609375 -43.617188 13.171875 -45.078125 13.171875 -46.703125 L 13.171875 -67.671875 C 12.046875 -70.222656 10.007812 -71.5 7.0625 -71.5 C 5.925781 -71.5 4.992188 -71.21875 4.265625 -70.65625 C 3.898438 -71.144531 3.71875 -71.710938 3.71875 -72.359375 C 3.71875 -73.003906 3.910156 -73.609375 4.296875 -74.171875 C 4.679688 -74.734375 5.203125 -75.210938 5.859375 -75.609375 C 7.378906 -76.546875 9.125 -77.015625 11.09375 -77.015625 C 13.070312 -77.015625 14.890625 -76.46875 16.546875 -75.375 C 18.265625 -76.46875 20.175781 -77.015625 22.28125 -77.015625 C 24.382812 -77.015625 26.28125 -76.484375 27.96875 -75.421875 C 31.25 -76.804688 34.953125 -77.5 39.078125 -77.5 C 43.203125 -77.5 46.769531 -77.019531 49.78125 -76.0625 C 52.789062 -75.101562 55.507812 -73.765625 57.9375 -72.046875 C 62.96875 -68.460938 66.296875 -63.738281 67.921875 -57.875 C 68.578125 -55.59375 70.148438 -53.722656 72.640625 -52.265625 C 70.085938 -50.835938 68.378906 -48.679688 67.515625 -45.796875 C 66.660156 -42.921875 65.226562 -40.25 63.21875 -37.78125 C 61.21875 -35.3125 58.925781 -33.25 56.34375 -31.59375 C 51.070312 -28.21875 45.472656 -26.53125 39.546875 -26.53125 C 36.960938 -26.53125 34.265625 -26.863281 31.453125 -27.53125 L 31.453125 -8.546875 C 32.347656 -6.617188 34.1875 -5.359375 36.96875 -4.765625 C 37.695312 -4.597656 38.503906 -4.515625 39.390625 -4.515625 C 40.285156 -4.515625 41.097656 -4.796875 41.828125 -5.359375 C 42.191406 -4.867188 42.375 -4.300781 42.375 -3.65625 C 42.375 -3.007812 42.132812 -2.40625 41.65625 -1.84375 C 41.175781 -1.28125 40.539062 -0.796875 39.75 -0.390625 C 37.988281 0.535156 36.066406 1 33.984375 1 C 31.898438 1 29.929688 0.453125 28.078125 -0.640625 Z M 31.453125 -40.484375 C 31.453125 -38.234375 32.28125 -36.429688 33.9375 -35.078125 C 35.457031 -33.816406 37.410156 -33.1875 39.796875 -33.1875 C 43.441406 -33.1875 46.078125 -34.578125 47.703125 -37.359375 C 48.265625 -38.316406 48.546875 -39.492188 48.546875 -40.890625 L 48.546875 -63.34375 C 48.546875 -65.726562 47.632812 -67.597656 45.8125 -68.953125 C 44.15625 -70.210938 42.503906 -70.84375 40.859375 -70.84375 C 39.222656 -70.84375 37.882812 -70.6875 36.84375 -70.375 C 35.800781 -70.0625 34.878906 -69.585938 34.078125 -68.953125 C 32.328125 -67.566406 31.453125 -65.628906 31.453125 -63.140625 Z M 51.765625 -35.375 C 52.523438 -35.507812 53.3125 -36.4375 54.125 -38.15625 C 54.9375 -39.875 55.550781 -41.898438 55.96875 -44.234375 C 56.382812 -46.578125 56.90625 -48.300781 57.53125 -49.40625 C 58.15625 -50.519531 59.164062 -51.304688 60.5625 -51.765625 C 58.28125 -52.523438 56.835938 -54.550781 56.234375 -57.84375 C 55.640625 -61.144531 54.9375 -63.570312 54.125 -65.125 C 53.3125 -66.6875 52.523438 -67.535156 51.765625 -67.671875 C 52.992188 -64.921875 53.609375 -59.617188 53.609375 -51.765625 C 53.609375 -46.535156 53.34375 -42.59375 52.8125 -39.9375 C 52.28125 -37.289062 51.929688 -35.769531 51.765625 -35.375 Z M 17.9375 -13.171875 C 19.59375 -13.796875 20.503906 -15.960938 20.671875 -19.671875 C 20.867188 -23.378906 20.96875 -28.507812 20.96875 -35.0625 C 20.96875 -41.625 20.957031 -45.988281 20.9375 -48.15625 C 20.925781 -50.332031 20.898438 -52.082031 20.859375 -53.40625 C 20.765625 -57.3125 20.394531 -59.671875 19.75 -60.484375 C 19.101562 -61.296875 18.5 -61.835938 17.9375 -62.109375 C 17.9375 -50.578125 17.738281 -44.015625 17.34375 -42.421875 C 16.875 -41.097656 15.742188 -40.15625 13.953125 -39.59375 C 15.941406 -38.894531 17.070312 -38.050781 17.34375 -37.0625 C 17.738281 -35.46875 17.9375 -29.65625 17.9375 -19.625 Z M 17.9375 -13.171875 "/></g></g></g><g fill="#e9cba7" fill-opacity="1"><g transform="translate(576.857171, 441.752136)"><g><path d="M 22.359375 1 C 20.171875 1 18.234375 0.46875 16.546875 -0.59375 C 14.859375 0.46875 13.289062 1 11.84375 1 C 10.40625 1 9.222656 0.875 8.296875 0.625 C 7.367188 0.375 6.554688 0.0351562 5.859375 -0.390625 C 4.429688 -1.253906 3.71875 -2.332031 3.71875 -3.625 C 3.71875 -4.289062 3.898438 -4.867188 4.265625 -5.359375 C 4.992188 -4.796875 5.925781 -4.515625 7.0625 -4.515625 C 10.007812 -4.515625 12.046875 -5.773438 13.171875 -8.296875 L 13.171875 -32.59375 C 13.171875 -34.113281 12.851562 -35.238281 12.21875 -35.96875 C 11.226562 -37.195312 9.523438 -38.40625 7.109375 -39.59375 C 9.359375 -40.625 10.816406 -41.535156 11.484375 -42.328125 C 12.609375 -43.617188 13.171875 -45.078125 13.171875 -46.703125 L 13.171875 -67.671875 C 12.046875 -70.222656 10.007812 -71.5 7.0625 -71.5 C 5.925781 -71.5 4.992188 -71.21875 4.265625 -70.65625 C 3.898438 -71.144531 3.71875 -71.710938 3.71875 -72.359375 C 3.71875 -73.003906 3.910156 -73.609375 4.296875 -74.171875 C 4.679688 -74.734375 5.203125 -75.210938 5.859375 -75.609375 C 7.378906 -76.546875 9.125 -77.015625 11.09375 -77.015625 C 13.070312 -77.015625 14.890625 -76.46875 16.546875 -75.375 C 18.265625 -76.46875 20.234375 -77.015625 22.453125 -77.015625 C 24.671875 -77.015625 26.691406 -76.367188 28.515625 -75.078125 C 32.023438 -76.367188 36.082031 -77.015625 40.6875 -77.015625 C 44.101562 -77.015625 47.019531 -76.679688 49.4375 -76.015625 L 53.859375 -74.828125 C 54.390625 -74.691406 54.898438 -74.625 55.390625 -74.625 C 56.316406 -74.625 56.78125 -75.285156 56.78125 -76.609375 C 56.78125 -76.941406 56.664062 -77.503906 56.4375 -78.296875 C 57.363281 -78.460938 58.539062 -78.546875 59.96875 -78.546875 C 61.394531 -78.546875 62.601562 -78.070312 63.59375 -77.125 C 64.582031 -76.1875 65.078125 -74.832031 65.078125 -73.0625 C 65.078125 -71.289062 64.765625 -69.988281 64.140625 -69.15625 C 65.035156 -67.832031 65.484375 -66.21875 65.484375 -64.3125 C 65.484375 -62.40625 64.835938 -60.804688 63.546875 -59.515625 C 63.941406 -58.523438 64.140625 -57.554688 64.140625 -56.609375 C 64.140625 -55.671875 63.984375 -54.8125 63.671875 -54.03125 C 63.359375 -53.25 62.96875 -52.59375 62.5 -52.0625 C 61.570312 -51.101562 60.628906 -50.625 59.671875 -50.625 C 58.273438 -50.625 57.015625 -50.921875 55.890625 -51.515625 C 56.285156 -52.316406 56.484375 -53.492188 56.484375 -55.046875 C 56.484375 -58.691406 55.570312 -61.890625 53.75 -64.640625 C 51.269531 -68.410156 47.546875 -70.296875 42.578125 -70.296875 C 40.054688 -70.296875 37.773438 -69.679688 35.734375 -68.453125 C 33.703125 -67.234375 32.273438 -65.484375 31.453125 -63.203125 L 31.453125 -43.96875 C 32.609375 -43.238281 33.691406 -42.875 34.703125 -42.875 C 35.710938 -42.875 36.472656 -42.890625 36.984375 -42.921875 C 37.503906 -42.953125 38.023438 -43.019531 38.546875 -43.125 C 39.910156 -43.320312 40.957031 -43.585938 41.6875 -43.921875 C 43.070312 -44.578125 43.765625 -46.195312 43.765625 -48.78125 C 43.765625 -50.238281 43.421875 -51.367188 42.734375 -52.171875 C 43.390625 -52.628906 44.21875 -52.859375 45.21875 -52.859375 C 47.4375 -52.859375 49.039062 -51.960938 50.03125 -50.171875 C 50.394531 -49.546875 50.578125 -48.851562 50.578125 -48.09375 C 50.578125 -47.332031 50.378906 -46.390625 49.984375 -45.265625 C 51.335938 -43.703125 52.015625 -41.851562 52.015625 -39.71875 C 52.015625 -37.582031 51.335938 -35.738281 49.984375 -34.1875 C 50.378906 -33.0625 50.578125 -32.039062 50.578125 -31.125 C 50.578125 -30.21875 50.394531 -29.347656 50.03125 -28.515625 C 49.664062 -27.691406 49.21875 -27.03125 48.6875 -26.53125 C 47.664062 -25.601562 46.507812 -25.140625 45.21875 -25.140625 C 44.28125 -25.140625 43.453125 -25.40625 42.734375 -25.9375 C 43.421875 -27.09375 43.765625 -28.453125 43.765625 -30.015625 C 43.765625 -33.085938 42.921875 -34.988281 41.234375 -35.71875 C 39.742188 -36.3125 38.035156 -36.609375 36.109375 -36.609375 C 34.191406 -36.609375 32.640625 -36.265625 31.453125 -35.578125 L 31.453125 -10.734375 C 33.367188 -7.347656 37.078125 -5.65625 42.578125 -5.65625 C 48.804688 -5.65625 53.046875 -7.578125 55.296875 -11.421875 C 57.910156 -15.828125 59.21875 -20.550781 59.21875 -25.59375 C 59.21875 -27.039062 59.085938 -28.164062 58.828125 -28.96875 C 59.648438 -29.789062 60.507812 -30.203125 61.40625 -30.203125 C 62.300781 -30.203125 62.976562 -30.078125 63.4375 -29.828125 C 63.90625 -29.585938 64.320312 -29.285156 64.6875 -28.921875 C 65.476562 -28.023438 65.875 -27.113281 65.875 -26.1875 L 65.578125 -23.75 C 65.578125 -23.113281 65.742188 -22.597656 66.078125 -22.203125 C 66.742188 -21.515625 67.078125 -20.863281 67.078125 -20.25 C 67.078125 -19.632812 66.875 -18.894531 66.46875 -18.03125 C 67.238281 -17.601562 67.925781 -16.96875 68.53125 -16.125 C 69.144531 -15.28125 69.453125 -14.410156 69.453125 -13.515625 C 69.453125 -11.628906 68.660156 -9.941406 67.078125 -8.453125 C 67.765625 -7.453125 68.109375 -6.015625 68.109375 -4.140625 C 68.109375 -2.273438 67.570312 -0.691406 66.5 0.609375 C 65.425781 1.921875 64.023438 2.578125 62.296875 2.578125 C 61.367188 2.578125 60.410156 2.476562 59.421875 2.28125 C 59.554688 1.550781 59.625 0.820312 59.625 0.09375 C 59.625 -1.425781 58.925781 -2.1875 57.53125 -2.1875 C 55.976562 -2.1875 54.421875 -1.867188 52.859375 -1.234375 C 49.179688 0.253906 45 1 40.3125 1 C 35.625 1 31.644531 0.382812 28.375 -0.84375 C 26.644531 0.382812 24.640625 1 22.359375 1 Z M 17.9375 -13.171875 C 19.59375 -13.796875 20.503906 -15.960938 20.671875 -19.671875 C 20.867188 -23.378906 20.96875 -28.507812 20.96875 -35.0625 C 20.96875 -41.625 20.957031 -45.988281 20.9375 -48.15625 C 20.925781 -50.332031 20.898438 -52.082031 20.859375 -53.40625 C 20.765625 -57.3125 20.394531 -59.671875 19.75 -60.484375 C 19.101562 -61.296875 18.5 -61.835938 17.9375 -62.109375 C 17.9375 -50.578125 17.738281 -44.015625 17.34375 -42.421875 C 16.875 -41.097656 15.742188 -40.15625 13.953125 -39.59375 C 15.941406 -38.894531 17.070312 -38.050781 17.34375 -37.0625 C 17.738281 -35.46875 17.9375 -29.65625 17.9375 -19.625 Z M 30.453125 -13.65625 C 30.453125 -13.5625 30.46875 -13.484375 30.5 -13.421875 Z M 30.453125 -13.65625 "/></g></g></g><g fill="#e9cba7" fill-opacity="1"><g transform="translate(648.444311, 441.752136)"><g><path d="M 43.28125 -0.640625 C 41.550781 0.453125 39.632812 1 37.53125 1 C 35.425781 1 33.484375 0.453125 31.703125 -0.640625 C 29.878906 0.453125 28.203125 1 26.671875 1 C 25.148438 1 23.925781 0.875 23 0.625 C 22.070312 0.375 21.257812 0.0351562 20.5625 -0.390625 C 19.144531 -1.253906 18.4375 -2.332031 18.4375 -3.625 C 18.4375 -4.289062 18.617188 -4.867188 18.984375 -5.359375 C 19.710938 -4.796875 20.679688 -4.515625 21.890625 -4.515625 C 23.097656 -4.515625 24.320312 -4.828125 25.5625 -5.453125 C 26.800781 -6.085938 27.738281 -7.066406 28.375 -8.390625 L 28.375 -32.59375 C 28.375 -34.113281 28.054688 -35.238281 27.421875 -35.96875 C 26.429688 -37.195312 24.726562 -38.40625 22.3125 -39.59375 C 24.5625 -40.625 26.015625 -41.535156 26.671875 -42.328125 C 27.804688 -43.617188 28.375 -45.078125 28.375 -46.703125 L 28.375 -69.75 C 27.28125 -70.144531 25.976562 -70.34375 24.46875 -70.34375 C 22.957031 -70.34375 21.375 -69.945312 19.71875 -69.15625 C 18.0625 -68.363281 16.570312 -67.207031 15.25 -65.6875 C 12.300781 -62.238281 10.828125 -57.734375 10.828125 -52.171875 C 10.828125 -48.953125 11.359375 -46.582031 12.421875 -45.0625 C 12.023438 -44.226562 11.28125 -43.8125 10.1875 -43.8125 C 9.09375 -43.8125 8.113281 -44.0625 7.25 -44.5625 C 6.394531 -45.0625 5.648438 -45.742188 5.015625 -46.609375 C 3.722656 -48.328125 3.078125 -50.175781 3.078125 -52.15625 C 3.078125 -54.144531 3.441406 -55.835938 4.171875 -57.234375 C 2.941406 -58.691406 2.328125 -60.335938 2.328125 -62.171875 C 2.328125 -64.015625 2.828125 -65.53125 3.828125 -66.71875 C 2.429688 -68.207031 1.734375 -70.210938 1.734375 -72.734375 C 1.734375 -75.648438 3.078125 -77.601562 5.765625 -78.59375 C 6.554688 -78.894531 7.25 -79.046875 7.84375 -79.046875 C 8.976562 -79.046875 9.828125 -78.796875 10.390625 -78.296875 C 10.148438 -77.503906 10.03125 -76.941406 10.03125 -76.609375 C 10.03125 -75.285156 10.492188 -74.625 11.421875 -74.625 C 11.921875 -74.625 12.4375 -74.691406 12.96875 -74.828125 L 15.203125 -75.46875 C 19.078125 -76.5 22.304688 -77.015625 24.890625 -77.015625 C 27.472656 -77.015625 29.742188 -76.445312 31.703125 -75.3125 C 33.390625 -76.445312 35.304688 -77.015625 37.453125 -77.015625 C 39.609375 -77.015625 41.566406 -76.445312 43.328125 -75.3125 C 45.210938 -76.445312 47.164062 -77.015625 49.1875 -77.015625 C 52.394531 -77.015625 55.207031 -76.679688 57.625 -76.015625 L 62.046875 -74.828125 C 62.578125 -74.691406 63.09375 -74.625 63.59375 -74.625 C 64.519531 -74.625 64.984375 -75.285156 64.984375 -76.609375 C 64.984375 -76.941406 64.867188 -77.503906 64.640625 -78.296875 C 65.203125 -78.796875 65.910156 -79.046875 66.765625 -79.046875 C 67.628906 -79.046875 68.457031 -78.894531 69.25 -78.59375 C 70.050781 -78.300781 70.75 -77.875 71.34375 -77.3125 C 72.632812 -76.144531 73.28125 -74.476562 73.28125 -72.3125 C 73.28125 -70.144531 72.582031 -68.28125 71.1875 -66.71875 C 72.1875 -65.53125 72.6875 -64.023438 72.6875 -62.203125 C 72.6875 -60.378906 72.054688 -58.722656 70.796875 -57.234375 C 71.554688 -55.878906 71.9375 -54.519531 71.9375 -53.15625 C 71.9375 -51.800781 71.769531 -50.578125 71.4375 -49.484375 C 71.113281 -48.390625 70.632812 -47.429688 70 -46.609375 C 68.644531 -44.742188 66.941406 -43.8125 64.890625 -43.8125 C 63.765625 -43.8125 63 -44.226562 62.59375 -45.0625 C 63.65625 -46.582031 64.1875 -48.875 64.1875 -51.9375 C 64.1875 -55 63.78125 -57.664062 62.96875 -59.9375 C 62.15625 -62.207031 61.085938 -64.125 59.765625 -65.6875 C 57.085938 -68.789062 53.925781 -70.34375 50.28125 -70.34375 C 48.882812 -70.34375 47.675781 -70.144531 46.65625 -69.75 L 46.65625 -46.703125 C 46.65625 -45.078125 47.003906 -43.867188 47.703125 -43.078125 C 48.785156 -41.785156 50.457031 -40.625 52.71875 -39.59375 C 50.300781 -38.40625 48.757812 -37.429688 48.09375 -36.671875 C 47.132812 -35.472656 46.65625 -34.113281 46.65625 -32.59375 L 46.65625 -8.390625 C 47.25 -7.066406 48.164062 -6.085938 49.40625 -5.453125 C 50.644531 -4.828125 51.878906 -4.515625 53.109375 -4.515625 C 54.335938 -4.515625 55.316406 -4.796875 56.046875 -5.359375 C 56.410156 -4.867188 56.59375 -4.300781 56.59375 -3.65625 C 56.59375 -3.007812 56.398438 -2.40625 56.015625 -1.84375 C 55.640625 -1.28125 55.117188 -0.796875 54.453125 -0.390625 C 52.929688 0.535156 51.148438 1 49.109375 1 C 47.078125 1 45.132812 0.453125 43.28125 -0.640625 Z M 33.140625 -13.171875 C 34.796875 -13.796875 35.707031 -15.960938 35.875 -19.671875 C 36.070312 -23.378906 36.171875 -28.507812 36.171875 -35.0625 C 36.171875 -41.625 36.160156 -45.988281 36.140625 -48.15625 C 36.128906 -50.332031 36.101562 -52.082031 36.0625 -53.40625 C 35.96875 -57.3125 35.597656 -59.671875 34.953125 -60.484375 C 34.304688 -61.296875 33.703125 -61.835938 33.140625 -62.109375 C 33.140625 -50.578125 32.941406 -44.015625 32.546875 -42.421875 C 32.078125 -41.097656 30.945312 -40.15625 29.15625 -39.59375 C 31.144531 -38.894531 32.273438 -38.050781 32.546875 -37.0625 C 32.941406 -35.46875 33.140625 -29.65625 33.140625 -19.625 Z M 33.140625 -13.171875 "/></g></g></g><g fill="#e9cba7" fill-opacity="1"><g transform="translate(723.459322, 441.752136)"><g><path d="M 17.484375 -1.9375 C 14.835938 0.707031 12.320312 2.03125 9.9375 2.03125 C 8.414062 2.03125 7.390625 1.46875 6.859375 0.34375 C 7.617188 -0.582031 8 -1.972656 8 -3.828125 L 8 -4.578125 C 8 -4.773438 7.984375 -4.957031 7.953125 -5.125 C 6.296875 -6.613281 5.46875 -8.375 5.46875 -10.40625 C 5.46875 -12.445312 6.425781 -14.523438 8.34375 -16.640625 C 7.78125 -17.765625 7.5 -18.960938 7.5 -20.234375 C 7.5 -21.515625 7.6875 -22.707031 8.0625 -23.8125 C 8.445312 -24.925781 8.972656 -25.898438 9.640625 -26.734375 C 11.023438 -28.554688 12.390625 -29.46875 13.734375 -29.46875 C 15.078125 -29.46875 16.03125 -28.9375 16.59375 -27.875 C 15.40625 -26.613281 14.8125 -24.640625 14.8125 -21.953125 C 14.8125 -19.273438 15.195312 -16.941406 15.96875 -14.953125 C 16.75 -12.960938 17.851562 -11.257812 19.28125 -9.84375 C 22.320312 -6.726562 26.210938 -5.171875 30.953125 -5.171875 C 34.128906 -5.171875 36.828125 -6.082031 39.046875 -7.90625 C 41.429688 -9.851562 42.625 -12.519531 42.625 -15.90625 C 42.625 -18.28125 42.0625 -20.21875 40.9375 -21.71875 C 39.1875 -24.03125 36.4375 -26.476562 32.6875 -29.0625 C 29.8125 -31.082031 27.507812 -32.09375 25.78125 -32.09375 C 24.03125 -32.09375 22.09375 -31.378906 19.96875 -29.953125 C 20.53125 -31.648438 20.8125 -33.222656 20.8125 -34.671875 C 20.8125 -35.003906 20.5 -35.4375 19.875 -35.96875 L 18.03125 -37.609375 C 12.238281 -42.941406 8.8125 -47.894531 7.75 -52.46875 C 7.382812 -54.050781 7.203125 -56.039062 7.203125 -58.4375 C 7.203125 -60.84375 7.789062 -63.28125 8.96875 -65.75 C 10.144531 -68.21875 11.757812 -70.316406 13.8125 -72.046875 C 18.082031 -75.679688 23.515625 -77.5 30.109375 -77.5 C 34.117188 -77.5 37.796875 -76.851562 41.140625 -75.5625 C 42.566406 -75 44.1875 -74.71875 46 -74.71875 C 46.769531 -74.71875 47.457031 -74.757812 48.0625 -74.84375 C 48.675781 -74.925781 49.21875 -75.265625 49.6875 -75.859375 C 50.113281 -76.492188 50.328125 -77.054688 50.328125 -77.546875 C 50.328125 -78.046875 50.257812 -78.460938 50.125 -78.796875 C 50.363281 -78.898438 50.6875 -78.953125 51.09375 -78.953125 C 51.507812 -78.953125 51.960938 -78.804688 52.453125 -78.515625 C 52.953125 -78.234375 53.40625 -77.847656 53.8125 -77.359375 C 54.695312 -76.234375 55.140625 -74.960938 55.140625 -73.546875 C 55.140625 -72.140625 54.742188 -71.070312 53.953125 -70.34375 C 55.078125 -69.351562 55.640625 -67.816406 55.640625 -65.734375 C 55.640625 -63.679688 54.945312 -61.957031 53.5625 -60.5625 C 53.820312 -59.664062 53.953125 -58.859375 53.953125 -58.140625 C 53.953125 -57.429688 53.828125 -56.753906 53.578125 -56.109375 C 53.328125 -55.460938 52.988281 -54.910156 52.5625 -54.453125 C 51.601562 -53.421875 50.691406 -52.90625 49.828125 -52.90625 C 48.472656 -52.90625 47.332031 -53.140625 46.40625 -53.609375 C 46.96875 -54.929688 47.25 -56.351562 47.25 -57.875 C 47.25 -59.40625 46.910156 -60.972656 46.234375 -62.578125 C 45.554688 -64.179688 44.601562 -65.582031 43.375 -66.78125 C 40.789062 -69.226562 37.410156 -70.453125 33.234375 -70.453125 C 30.585938 -70.453125 28.421875 -69.640625 26.734375 -68.015625 C 25.140625 -66.492188 24.34375 -64.65625 24.34375 -62.5 C 24.34375 -60.875 24.738281 -59.515625 25.53125 -58.421875 C 26.925781 -56.535156 29.128906 -54.582031 32.140625 -52.5625 L 34.53125 -50.96875 C 35.851562 -50.144531 36.742188 -49.734375 37.203125 -49.734375 C 37.671875 -49.734375 38.132812 -49.78125 38.59375 -49.875 C 39.0625 -49.976562 39.578125 -50.113281 40.140625 -50.28125 C 41.335938 -50.675781 42.5 -51.238281 43.625 -51.96875 L 42.96875 -49.1875 C 42.769531 -48.257812 42.671875 -47.582031 42.671875 -47.15625 C 42.671875 -46.457031 43.019531 -45.828125 43.71875 -45.265625 C 49.914062 -39.898438 54.054688 -35.410156 56.140625 -31.796875 C 57.960938 -28.648438 58.875 -25.253906 58.875 -21.609375 C 58.875 -17.960938 58.273438 -14.832031 57.078125 -12.21875 C 55.890625 -9.601562 54.15625 -7.285156 51.875 -5.265625 C 46.832031 -0.765625 40.289062 1.484375 32.25 1.484375 C 26.582031 1.484375 21.660156 0.34375 17.484375 -1.9375 Z M 14.109375 -62.109375 C 12.847656 -61.578125 12.21875 -60.203125 12.21875 -57.984375 C 12.21875 -53.441406 15.25 -48.457031 21.3125 -43.03125 L 24.296875 -40.34375 C 25.316406 -39.414062 25.769531 -38.703125 25.65625 -38.203125 C 25.539062 -37.703125 25.441406 -37.300781 25.359375 -37 C 25.273438 -36.707031 25.179688 -36.425781 25.078125 -36.15625 C 24.984375 -35.894531 24.921875 -35.703125 24.890625 -35.578125 C 26.046875 -36.265625 26.988281 -36.609375 27.71875 -36.609375 C 29.175781 -36.609375 30.550781 -36.210938 31.84375 -35.421875 C 38.238281 -31.453125 42.578125 -27.910156 44.859375 -24.796875 C 46.515625 -22.503906 47.378906 -19.65625 47.453125 -16.25 C 47.453125 -15.019531 47.367188 -13.992188 47.203125 -13.171875 C 48.953125 -14.296875 49.828125 -16.082031 49.828125 -18.53125 C 49.828125 -20.914062 49.503906 -22.753906 48.859375 -24.046875 C 48.210938 -25.335938 47.457031 -26.488281 46.59375 -27.5 C 45.738281 -28.507812 44.625 -29.609375 43.25 -30.796875 C 41.875 -31.992188 40.175781 -33.285156 38.15625 -34.671875 L 31.09375 -39.5 C 25.300781 -43.3125 20.898438 -47.335938 17.890625 -51.578125 C 15.234375 -55.316406 13.972656 -58.828125 14.109375 -62.109375 Z M 14.109375 -62.109375 "/></g></g></g></svg>