<svg xmlns="http://www.w3.org/2000/svg" xmlns:xlink="http://www.w3.org/1999/xlink" width="1080" zoomAndPan="magnify" viewBox="0 0 810 809.999993" height="1080" preserveAspectRatio="xMidYMid meet" version="1.0"><defs><clipPath id="9ea6c3dd70"><path d="M 81 382.808594 L 106.5 382.808594 L 106.5 405 L 81 405 Z M 81 382.808594 " clip-rule="nonzero"/></clipPath><clipPath id="ec47c74a44"><path d="M 10 12.519531 L 415 12.519531 L 415 415 L 10 415 Z M 10 12.519531 " clip-rule="nonzero"/></clipPath></defs><g clip-path="url(#9ea6c3dd70)"><path fill="#ffffff" d="M 85.570312 382.808594 C 84.769531 382.808594 84.109375 383.125 83.679688 383.609375 C 83.253906 384.089844 83.050781 384.714844 83.050781 385.328125 C 83.050781 385.945312 83.253906 386.566406 83.679688 387.050781 C 84.109375 387.53125 84.769531 387.851562 85.570312 387.851562 C 86.367188 387.851562 87.03125 387.53125 87.460938 387.050781 C 87.886719 386.566406 88.089844 385.945312 88.089844 385.328125 C 88.089844 384.714844 87.886719 384.089844 87.460938 383.609375 C 87.03125 383.125 86.367188 382.808594 85.570312 382.808594 Z M 85.570312 383.816406 C 86.117188 383.816406 86.464844 384.003906 86.707031 384.277344 C 86.949219 384.550781 87.082031 384.9375 87.082031 385.328125 C 87.082031 385.722656 86.949219 386.105469 86.707031 386.378906 C 86.460938 386.65625 86.117188 386.839844 85.570312 386.839844 C 85.023438 386.839844 84.679688 386.65625 84.433594 386.378906 C 84.191406 386.105469 84.058594 385.722656 84.058594 385.328125 C 84.058594 384.9375 84.191406 384.550781 84.433594 384.277344 C 84.679688 384.003906 85.023438 383.816406 85.570312 383.816406 Z M 83.785156 388.355469 C 82.261719 388.355469 81.011719 389.601562 81.011719 391.128906 L 81.011719 396.925781 C 81.011719 397.0625 81.066406 397.199219 81.167969 397.292969 C 81.347656 397.925781 81.839844 398.4375 82.523438 398.4375 C 82.703125 398.4375 82.871094 398.398438 83.03125 398.34375 L 83.03125 403.226562 C 83.03125 404.195312 83.824219 404.992188 84.792969 404.992188 C 85.289062 404.992188 85.734375 404.78125 86.054688 404.453125 C 86.375 404.78125 86.820312 404.992188 87.316406 404.992188 C 88.285156 404.992188 89.078125 404.195312 89.078125 403.226562 L 89.078125 393.21875 L 90.0625 394.554688 C 90.078125 394.574219 90.09375 394.59375 90.109375 394.609375 L 92.101562 396.65625 L 92.0625 396.609375 C 92.570312 397.265625 93.527344 397.390625 94.183594 396.886719 C 94.84375 396.378906 94.964844 395.421875 94.460938 394.765625 C 94.449219 394.75 94.433594 394.734375 94.421875 394.71875 L 92.457031 392.707031 L 90.054688 389.472656 C 90.050781 389.464844 90.046875 389.460938 90.042969 389.453125 C 89.632812 388.828125 88.863281 388.429688 88.074219 388.355469 C 88 388.3125 83.785156 388.355469 83.785156 388.355469 Z M 83.785156 389.363281 L 87.820312 389.363281 C 88.449219 389.363281 88.992188 389.65625 89.21875 390.03125 C 89.226562 390.046875 89.234375 390.0625 89.246094 390.074219 C 89.25 390.078125 89.253906 390.082031 89.257812 390.089844 L 91.667969 393.335938 C 91.679688 393.351562 91.695312 393.371094 91.710938 393.386719 L 93.664062 395.386719 C 93.832031 395.613281 93.792969 395.914062 93.570312 396.085938 C 93.34375 396.261719 93.035156 396.222656 92.863281 395.996094 C 92.851562 395.980469 92.839844 395.964844 92.824219 395.949219 L 90.855469 393.929688 L 89.027344 391.449219 C 89.011719 391.429688 89 391.414062 88.984375 391.398438 C 88.820312 391.171875 88.503906 391.121094 88.28125 391.285156 C 88.148438 391.378906 88.070312 391.535156 88.070312 391.699219 L 88.070312 403.226562 C 88.070312 403.652344 87.738281 403.984375 87.316406 403.984375 C 86.890625 403.984375 86.558594 403.652344 86.558594 403.226562 L 86.558594 397.429688 C 86.5625 397.152344 86.339844 396.921875 86.0625 396.917969 C 86.058594 396.917969 86.050781 396.917969 86.046875 396.917969 C 85.769531 396.921875 85.546875 397.152344 85.550781 397.429688 L 85.550781 403.226562 C 85.550781 403.652344 85.21875 403.984375 84.792969 403.984375 C 84.371094 403.984375 84.039062 403.652344 84.039062 403.226562 L 84.039062 392.386719 C 84.042969 392.109375 83.820312 391.878906 83.539062 391.875 C 83.261719 391.871094 83.035156 392.09375 83.03125 392.375 C 83.03125 392.378906 83.03125 392.382812 83.03125 392.386719 L 83.03125 396.925781 C 83.03125 397.210938 82.808594 397.429688 82.523438 397.429688 C 82.242188 397.429688 82.019531 397.210938 82.019531 396.925781 L 82.019531 391.128906 C 82.019531 390.148438 82.808594 389.363281 83.785156 389.363281 Z M 103.199219 404.992188 C 102.363281 404.992188 101.683594 404.3125 101.683594 403.480469 L 101.683594 402.472656 L 100.675781 402.472656 L 100.675781 403.480469 C 100.675781 404.3125 99.996094 404.992188 99.164062 404.992188 C 98.332031 404.992188 97.652344 404.3125 97.652344 403.480469 L 97.652344 401.039062 L 97.171875 399.605469 C 97.144531 399.515625 97.140625 399.417969 97.164062 399.324219 L 97.507812 397.933594 L 96.644531 397.933594 C 96.410156 397.933594 96.210938 397.777344 96.152344 397.550781 L 95.648438 395.535156 C 95.582031 395.265625 95.746094 394.992188 96.015625 394.921875 L 98.03125 394.417969 C 98.074219 394.410156 98.113281 394.402344 98.15625 394.402344 L 98.953125 394.402344 L 100.320312 393.039062 C 100.464844 392.894531 100.679688 392.851562 100.871094 392.929688 C 101.058594 393.007812 101.179688 393.191406 101.179688 393.394531 L 101.179688 397.429688 L 103.027344 397.429688 L 103.777344 396.867188 C 104.167969 396.578125 104.667969 396.5 105.128906 396.660156 C 105.585938 396.824219 105.929688 397.203125 106.046875 397.671875 C 106.195312 398.265625 105.953125 398.886719 105.445312 399.226562 L 104.710938 399.714844 L 104.710938 403.480469 C 104.710938 404.3125 104.03125 404.992188 103.199219 404.992188 Z M 100.171875 401.460938 L 102.1875 401.460938 C 102.46875 401.460938 102.691406 401.6875 102.691406 401.964844 L 102.691406 403.480469 C 102.691406 403.757812 102.917969 403.984375 103.199219 403.984375 C 103.476562 403.984375 103.703125 403.757812 103.703125 403.480469 L 103.703125 399.445312 C 103.703125 399.277344 103.785156 399.121094 103.925781 399.027344 L 104.886719 398.386719 C 105.039062 398.285156 105.113281 398.09375 105.066406 397.914062 C 105.03125 397.773438 104.929688 397.660156 104.789062 397.609375 C 104.652344 397.558594 104.503906 397.582031 104.382812 397.671875 L 103.5 398.335938 C 103.414062 398.402344 103.304688 398.4375 103.195312 398.4375 L 100.675781 398.4375 C 100.398438 398.4375 100.171875 398.210938 100.171875 397.933594 L 100.171875 394.613281 L 99.519531 395.265625 C 99.425781 395.359375 99.296875 395.414062 99.164062 395.414062 L 98.21875 395.414062 L 96.75 395.78125 L 97.035156 396.925781 L 98.15625 396.925781 C 98.3125 396.925781 98.457031 396.996094 98.554688 397.121094 C 98.648438 397.242188 98.683594 397.402344 98.644531 397.550781 L 98.175781 399.425781 L 98.632812 400.800781 C 98.652344 400.851562 98.660156 400.90625 98.660156 400.957031 L 98.660156 403.480469 C 98.660156 403.757812 98.886719 403.984375 99.164062 403.984375 C 99.441406 403.984375 99.667969 403.757812 99.667969 403.480469 L 99.667969 401.964844 C 99.667969 401.6875 99.894531 401.460938 100.171875 401.460938 Z M 100.171875 401.460938 " fill-opacity="1" fill-rule="nonzero"/></g><g clip-path="url(#ec47c74a44)"><path fill="#eacca8" d="M 282.539062 12.757812 C 281.6875 12.769531 280.816406 12.8125 279.949219 12.882812 C 245.414062 19.03125 226.421875 56.710938 223.671875 89.941406 C 219.652344 120.089844 232.527344 158.84375 264.613281 165.597656 C 269.269531 166.511719 274.105469 166.09375 278.652344 164.820312 C 317.289062 151.453125 334.578125 104.242188 328.996094 65.132812 C 327.371094 39.875 308.917969 12.410156 282.539062 12.753906 Z M 136.125 14.375 C 114.648438 14.917969 97.921875 37.390625 94.519531 58.511719 C 87.34375 100.363281 105.796875 152.363281 148.054688 165.597656 C 152.011719 166.484375 156.105469 166.578125 160.101562 165.941406 C 188.664062 161.027344 200.765625 127.988281 199.566406 101.316406 C 198.707031 66.128906 180.996094 25.445312 145.582031 15.554688 C 142.34375 14.667969 139.191406 14.296875 136.121094 14.375 Z M 376.105469 133.242188 C 338.957031 135.535156 313.488281 173.777344 309.859375 209.488281 C 304.941406 235.246094 318.25 269.695312 346.734375 271.75 C 386.449219 271.246094 413.546875 227.457031 414.671875 189.78125 C 417.183594 164.863281 402.957031 134.617188 376.109375 133.242188 Z M 50.960938 141.726562 C 35.15625 141.585938 19.609375 151.355469 14.449219 167.929688 C 0.667969 212.273438 28.339844 268.433594 73.859375 277.75 C 92.855469 281.105469 109.546875 266.054688 114.257812 247.941406 C 124.242188 209.203125 103.738281 164.222656 69.039062 146.640625 C 63.386719 143.367188 57.148438 141.78125 50.960938 141.726562 Z M 217.5 221.238281 C 186.515625 221.308594 155.046875 237.53125 134.984375 261.679688 C 113.316406 289.824219 95.5625 322.578125 88.621094 358.101562 C 80.183594 383.671875 99.304688 413.097656 125.796875 413.277344 C 157.667969 414.191406 185.058594 391.609375 216.75 389.929688 C 243.636719 385.703125 267.710938 400.132812 291.886719 409.578125 C 312.46875 418.660156 340.90625 415.179688 351.414062 392.324219 C 359.679688 369.03125 347.515625 344.191406 337.4375 323.503906 C 316.882812 289.925781 294.859375 254.636719 261.15625 233.667969 C 247.648438 225.03125 232.632812 221.203125 217.503906 221.234375 Z M 217.5 221.238281 " fill-opacity="1" fill-rule="nonzero"/></g><path fill="#eacca8" d="M 674.574219 391.507812 C 673.722656 391.519531 672.851562 391.5625 671.984375 391.632812 C 637.449219 397.78125 618.457031 435.460938 615.707031 468.691406 C 611.6875 498.84375 624.566406 537.59375 656.648438 544.347656 C 661.304688 545.261719 666.140625 544.84375 670.6875 543.570312 C 709.324219 530.203125 726.613281 482.992188 721.03125 443.882812 C 719.40625 418.625 700.953125 391.160156 674.574219 391.507812 Z M 528.160156 393.125 C 506.683594 393.667969 489.957031 416.140625 486.554688 437.261719 C 479.382812 479.113281 497.832031 531.113281 540.089844 544.347656 C 544.046875 545.238281 548.140625 545.328125 552.140625 544.691406 C 580.699219 539.777344 592.800781 506.738281 591.605469 480.066406 C 590.746094 444.878906 573.03125 404.199219 537.617188 394.304688 C 534.382812 393.421875 531.226562 393.046875 528.160156 393.125 Z M 768.140625 511.992188 C 730.992188 514.285156 705.523438 552.527344 701.894531 588.242188 C 696.980469 613.996094 710.285156 648.445312 738.769531 650.5 C 778.484375 649.996094 805.582031 606.207031 806.707031 568.53125 C 809.21875 543.613281 794.992188 513.367188 768.144531 511.992188 Z M 442.996094 520.476562 C 427.191406 520.335938 411.648438 530.105469 406.484375 546.679688 C 392.707031 591.023438 420.375 647.183594 465.894531 656.503906 C 484.890625 659.855469 501.582031 644.804688 506.292969 626.691406 C 516.277344 587.953125 495.773438 542.972656 461.074219 525.390625 C 455.421875 522.117188 449.183594 520.53125 443 520.476562 Z M 609.535156 599.988281 C 578.550781 600.058594 547.082031 616.28125 527.019531 640.429688 C 505.351562 668.574219 487.601562 701.328125 480.65625 736.851562 C 472.21875 762.421875 491.339844 791.847656 517.832031 792.027344 C 549.703125 792.941406 577.09375 770.359375 608.785156 768.683594 C 635.671875 764.453125 659.746094 778.882812 683.921875 788.328125 C 704.503906 797.410156 732.941406 793.929688 743.449219 771.074219 C 751.714844 747.78125 739.550781 722.941406 729.472656 702.253906 C 708.917969 668.675781 686.894531 633.386719 653.191406 612.421875 C 639.683594 603.78125 624.671875 599.953125 609.539062 599.988281 Z M 609.535156 599.988281 " fill-opacity="1" fill-rule="nonzero"/></svg>