<svg xmlns="http://www.w3.org/2000/svg" xmlns:xlink="http://www.w3.org/1999/xlink" version="1.1" x="0px" y="0px" viewBox="0 0 100 125" style="enable-background:new 0 0 100 100;" xml:space="preserve"><path d="M50,31.9c-1,0-1.9,0.4-2.6,1.1h0L18.7,66.6l-0.2,0.3c0,0,0,0,0,0c0,0,0,0,0,0l0,0l0,0c-0.3,0.3-0.2,0.8,0.1,1  c0.3,0.3,0.8,0.2,1-0.1l0,0l0,0c0,0,0,0,0,0c0,0,0,0,0,0l28.5-33.3l0.2-0.3c0.4-0.5,1-0.8,1.7-0.8c0,0,0,0,0,0s0,0,0,0  c0.6,0,1.3,0.3,1.7,0.8l0.2,0.3l28.5,33.3c0,0,0,0,0,0c0,0,0,0,0,0l0,0l0,0c0.3,0.3,0.7,0.3,1,0.1c0.3-0.3,0.3-0.7,0.1-1l0,0l0,0  c0,0,0,0,0,0c0,0,0,0,0,0l-0.2-0.3L52.6,33h0C51.9,32.3,51,31.9,50,31.9C50,31.9,50,31.9,50,31.9C50,31.9,50,31.9,50,31.9z"/><text x="0" y="115" fill="#000000" font-size="5px" font-weight="bold" font-family="'Helvetica Neue', Helvetica, Arial-Unicode, Arial, Sans-serif">Created by João Gabriel Mendes Corrêa</text><text x="0" y="120" fill="#000000" font-size="5px" font-weight="bold" font-family="'Helvetica Neue', Helvetica, Arial-Unicode, Arial, Sans-serif">from the Noun Project</text></svg>